<svg width="19" height="18" viewBox="0 0 19 18" fill="none" xmlns="http://www.w3.org/2000/svg">
<path d="M13.2874 15.21C12.5524 15.9225 11.7499 15.81 10.9774 15.4725C10.1599 15.1275 9.40988 15.1125 8.54738 15.4725C7.46738 15.9375 6.89738 15.8025 6.25238 15.21C2.59238 11.4375 3.13238 5.6925 7.28738 5.4825C8.29988 5.535 9.00488 6.0375 9.59738 6.0825C10.4824 5.9025 11.3299 5.385 12.2749 5.4525C13.4074 5.5425 14.2624 5.9925 14.8249 6.8025C12.4849 8.205 13.0399 11.2875 15.1849 12.15C14.7574 13.275 14.2024 14.3925 13.2799 15.2175L13.2874 15.21ZM9.52238 5.4375C9.40988 3.765 10.7674 2.385 12.3274 2.25C12.5449 4.185 10.5724 5.625 9.52238 5.4375Z" fill="white"/>
</svg>
