<svg width="7" height="5" viewBox="0 0 7 5" fill="none" xmlns="http://www.w3.org/2000/svg">
<path fill-rule="evenodd" clip-rule="evenodd" d="M5.93237 0.676582C6.00377 0.69228 6.0619 0.734452 6.094 0.793834C6.12609 0.853217 6.12953 0.924954 6.10354 0.993288L4.99222 3.91026C4.98031 3.94514 4.96115 3.97831 4.93587 4.0078C4.9106 4.03729 4.87972 4.06248 4.8451 4.08188C4.81047 4.10128 4.7728 4.11449 4.73433 4.12072C4.69586 4.12695 4.65738 4.12607 4.62119 4.11814C4.585 4.11021 4.55183 4.09538 4.52368 4.07454C4.49552 4.05371 4.47294 4.0273 4.4573 3.99687C4.44165 3.96645 4.43325 3.93265 4.43261 3.89748C4.43197 3.86231 4.43909 3.8265 4.45355 3.79218L5.32778 1.49749L0.408088 4.15645C0.339125 4.19372 0.260226 4.20586 0.188749 4.19019C0.117272 4.17452 0.0590717 4.13233 0.0269509 4.0729C-0.00516979 4.01347 -0.00857969 3.94167 0.0174719 3.87329C0.0435234 3.80491 0.0969025 3.74555 0.165866 3.70828L5.08556 1.04932L2.68694 0.523532C2.6503 0.516824 2.61644 0.50316 2.58737 0.483354C2.5583 0.463547 2.53462 0.438005 2.51775 0.40825C2.50087 0.378495 2.49114 0.345137 2.48914 0.310166C2.48713 0.275196 2.4929 0.239328 2.50609 0.204705C2.51928 0.170081 2.53963 0.13741 2.56591 0.10864C2.5922 0.0798705 2.62389 0.0555922 2.65909 0.0372531C2.69429 0.018914 2.73228 0.00689 2.7708 0.00189841C2.80931 -0.00309306 2.84756 -0.000949809 2.88327 0.00820015L5.93237 0.676582Z" fill="white"/>
</svg>
