<?xml version="1.0" encoding="UTF-8"?>
<svg version="1.1" xmlns="http://www.w3.org/2000/svg" width="42" height="42">
<path d="M0 0 C1.16015625 -0.03867188 1.16015625 -0.03867188 2.34375 -0.078125 C5.07020685 0.33677061 5.87469195 1.04988788 7.5 3.25 C8.95865096 7.22813897 8.96574935 10.90626359 7.58203125 14.8984375 C6.71851422 16.75300639 5.81977834 18.59149248 4.890625 20.4140625 C3.50694529 23.23583628 2.52817468 26.01295543 1.5625 29 C-0.17546002 33.93128493 -2.47993918 37.84098842 -6.5 41.25 C-12.1412748 43.13042493 -18.28183631 43.030465 -23.875 41.0625 C-27.89498486 38.28679617 -32.07695463 35.08835426 -33.5 30.25 C-33.38646209 24.34602845 -31.24464214 19.74123746 -27.5 15.25 C-26.84 15.25 -26.18 15.25 -25.5 15.25 C-25.5 14.59 -25.5 13.93 -25.5 13.25 C-23.4610296 11.8707843 -21.4374203 10.60823314 -19.3125 9.375 C-15.98351002 7.42288324 -12.7812409 5.47547416 -9.76171875 3.0546875 C-6.57724808 0.51371091 -3.96188828 0.07923777 0 0 Z " fill="#E8E77B" transform="translate(33.5,-0.25)"/>
<path d="M0 0 C2 2 2 2 2.1171875 3.8828125 C1.58443771 8.8150444 0.50680197 12.50593087 -1.90234375 16.83203125 C-3.17502694 19.34569377 -4.00195032 21.88490413 -4.875 24.5625 C-6.63787832 29.57241902 -8.9148639 33.53580458 -13 37 C-18.67750011 38.89250004 -24.8304784 38.78891694 -30.4375 36.75 C-32.94921027 35.03468567 -34.97202887 33.2619678 -37 31 C-35.92878906 31.48339844 -35.92878906 31.48339844 -34.8359375 31.9765625 C-29.75498612 33.81018407 -23.9772576 34.04257757 -18.8359375 32.2421875 C-13.95299373 29.60332001 -11.67990206 26.86078457 -9.8125 21.75 C-9.544375 20.8425 -9.27625 19.935 -9 19 C-8.34 19 -7.68 19 -7 19 C-6.82984375 17.90171875 -6.82984375 17.90171875 -6.65625 16.78125 C-5.79863198 13.14658316 -4.07543298 10.45013352 -2.15625 7.28125 C-0.92264714 4.84738489 -0.4160801 2.68560794 0 0 Z " fill="#474535" transform="translate(40,4)"/>
<path d="M0 0 C0.66 0.33 1.32 0.66 2 1 C1.53680089 5.72463088 0.90108294 9.17057052 -2 13 C-2.66 13 -3.32 13 -4 13 C-4 13.66 -4 14.32 -4 15 C-5.32 15.33 -6.64 15.66 -8 16 C-8.33 15.01 -8.66 14.02 -9 13 C-11.8201938 11.28773948 -14.92955871 10.1940605 -18 9 C-17.8125 7.125 -17.8125 7.125 -17 5 C-14.6875 3.9375 -14.6875 3.9375 -12 3 C-11.401875 2.46375 -10.80375 1.9275 -10.1875 1.375 C-6.77728051 -0.76856653 -3.98594825 -0.25715795 0 0 Z " fill="#F5F59E" transform="translate(36,3)"/>
<path d="M0 0 C0.66 0 1.32 0 2 0 C1.125 4.875 1.125 4.875 0 6 C-0.31758878 12.28421854 -0.31758878 12.28421854 2 18 C3.89551022 18.05441656 5.7914792 18.09298035 7.6875 18.125 C8.74324219 18.14820312 9.79898437 18.17140625 10.88671875 18.1953125 C16.9941374 17.81216202 19.92088862 15.4287495 24 11 C23.91651691 13.83842501 23.4276272 15.54049314 21.48046875 17.6328125 C16.05552622 22.3610782 11.99810388 23.42570681 4.8046875 23.33984375 C0.52266882 22.8209919 -2.26777728 21.34315451 -5 18 C-6.47690355 14.23389596 -6.44195074 12.12149154 -4.9609375 8.36328125 C-1.71970752 1.71970752 -1.71970752 1.71970752 0 0 Z " fill="#C8D05F" transform="translate(6,15)"/>
<path d="M0 0 C0.34751969 2.91916538 0.53280018 5.13195476 -1.04296875 7.69921875 C-3.83778487 11.08414267 -5.48933073 12.83579682 -9.875 13.3125 C-13 13 -13 13 -15.375 11 C-15.91125 10.34 -16.4475 9.68 -17 9 C-15.68 8.67 -14.36 8.34 -13 8 C-13 7.34 -13 6.68 -13 6 C-12.01 6 -11.02 6 -10 6 C-9.67 4.35 -9.34 2.7 -9 1 C-2.25 -1.125 -2.25 -1.125 0 0 Z " fill="#8F4A1C" transform="translate(26,17)"/>
<path d="M0 0 C1.16015625 -0.03867188 1.16015625 -0.03867188 2.34375 -0.078125 C4.5 0.25 4.5 0.25 6.30859375 1.55078125 C7.5 3.25 7.5 3.25 7.0625 6.6875 C5.3460897 12.53641407 2.34306388 17.88572852 -0.5 23.25 C-1.16 23.25 -1.82 23.25 -2.5 23.25 C-2.83 24.24 -3.16 25.23 -3.5 26.25 C-2.72301141 20.9664776 -0.35260466 16.85683185 2.125 12.1875 C3.39280693 9.47900338 4.06722623 7.19286165 4.5 4.25 C-2.19122773 3.62784076 -2.19122773 3.62784076 -8.1875 6.0625 C-8.950625 6.784375 -9.71375 7.50625 -10.5 8.25 C-12.82671865 9.26529541 -15.1603447 10.26488198 -17.5 11.25 C-19.50580329 12.57458708 -21.50715862 13.9059907 -23.5 15.25 C-24.16 15.25 -24.82 15.25 -25.5 15.25 C-25.5 14.59 -25.5 13.93 -25.5 13.25 C-23.4610296 11.8707843 -21.4374203 10.60823314 -19.3125 9.375 C-15.98351002 7.42288324 -12.7812409 5.47547416 -9.76171875 3.0546875 C-6.57724808 0.51371091 -3.96188828 0.07923777 0 0 Z " fill="#B1C35C" transform="translate(33.5,-0.25)"/>
<path d="M0 0 C0.66 0 1.32 0 2 0 C2.33 0.66 2.66 1.32 3 2 C4.32 2 5.64 2 7 2 C7 1.34 7 0.68 7 0 C7.66 0.33 8.32 0.66 9 1 C8.54625 1.721875 8.0925 2.44375 7.625 3.1875 C5.96697257 5.86420442 5.96697257 5.86420442 5.125 8.4375 C3.57406911 11.97017592 1.67469125 14.1979425 -1 17 C-4.35868104 18.26505387 -7.69532809 18.10113774 -11.25 18.0625 C-12.32765625 18.05347656 -13.4053125 18.04445313 -14.515625 18.03515625 C-15.33546875 18.02355469 -16.1553125 18.01195313 -17 18 C-17.33 17.34 -17.66 16.68 -18 16 C-14.7 16 -11.4 16 -8 16 C-9.65 15.67 -11.3 15.34 -13 15 C-12.67 14.34 -12.34 13.68 -12 13 C-10.6696875 13.12375 -10.6696875 13.12375 -9.3125 13.25 C-5.27533282 12.94530814 -3.86135289 11.77959995 -1 9 C0.4783226 6.04335481 0.06032783 3.25770263 0 0 Z " fill="#D4D362" transform="translate(25,16)"/>
<path d="M0 0 C0.99 0.33 1.98 0.66 3 1 C1.515 2.485 1.515 2.485 0 4 C1.98 3.67 3.96 3.34 6 3 C6 2.01 6 1.02 6 0 C7.32 0.66 8.64 1.32 10 2 C9.67 2.66 9.34 3.32 9 4 C6.67843403 4.40729228 4.3431213 4.74438677 2 5 C1.67 6.65 1.34 8.3 1 10 C0.01 10 -0.98 10 -2 10 C-2 10.66 -2 11.32 -2 12 C-3.32 12 -4.64 12 -6 12 C-6.35671933 8.16526716 -6.29771416 6.44657125 -4.125 3.1875 C-2 1 -2 1 0 0 Z " fill="#E29755" transform="translate(15,13)"/>
<path d="M0 0 C1 3 1 3 0.75 6.9375 C0.65266706 9.03858679 0.65266706 9.03858679 1 11 C4.19397917 14.27803126 6.68437906 15.92409879 11.25 16.1875 C14.89888141 16.00505593 17.6162953 15.32047013 21 14 C19 17 19 17 16 18 C10.62592506 18.59902109 5.57699013 18.9128257 0.875 15.9375 C-1.64209422 13.79554963 -2.04144857 12.87335159 -3.125 9.5625 C-2.98590481 5.59828721 -2.04868344 3.35984084 0 0 Z " fill="#90A93E" transform="translate(3,20)"/>
<path d="M0 0 C0 0.66 0 1.32 0 2 C0.99 2.33 1.98 2.66 3 3 C3 3.99 3 4.98 3 6 C1.02 6.33 -0.96 6.66 -3 7 C-3 6.01 -3 5.02 -3 4 C-7.0042343 7.49087093 -8.62671065 9.64951939 -9 15 C-9.12375 14.360625 -9.2475 13.72125 -9.375 13.0625 C-9.58125 12.381875 -9.7875 11.70125 -10 11 C-10.66 10.67 -11.32 10.34 -12 10 C-11.07015882 5.93194482 -9.40336874 4.34543308 -6 2.1875 C-2.33846154 0 -2.33846154 0 0 0 Z " fill="#E3CE80" transform="translate(18,10)"/>
<path d="M0 0 C0.375 2.1875 0.375 2.1875 0 5 C-2.86746118 8.00083147 -4.67762846 9.85626396 -8.875 10.3125 C-9.926875 10.1578125 -9.926875 10.1578125 -11 10 C-11 9.34 -11 8.68 -11 8 C-10.34 8 -9.68 8 -9 8 C-8.773125 7.4225 -8.54625 6.845 -8.3125 6.25 C-6.47530093 3.10051589 -3.84497849 0 0 0 Z " fill="#57290B" transform="translate(25,20)"/>
<path d="M0 0 C0.70511719 0.31710938 1.41023437 0.63421875 2.13671875 0.9609375 C5.12505879 2.04538286 7.65069658 2.3964359 10.8125 2.625 C12.27623047 2.73714844 12.27623047 2.73714844 13.76953125 2.8515625 C14.50558594 2.90054688 15.24164063 2.94953125 16 3 C16 3.66 16 4.32 16 5 C17.32 5 18.64 5 20 5 C20 5.66 20 6.32 20 7 C13.92255186 7.32429071 9.24800177 7.49866785 4 4 C1.625 1.8125 1.625 1.8125 0 0 Z " fill="#6D735B" transform="translate(3,35)"/>
<path d="M0 0 C0.33 0.99 0.66 1.98 1 3 C-1.48796876 7.32690218 -4.32449827 8.99401719 -8.90234375 10.5 C-12.0222836 11.24367281 -14.81884334 11.31811567 -18 11 C-18.66 10.34 -19.32 9.68 -20 9 C-16.37 9 -12.74 9 -9 9 C-9 8.34 -9 7.68 -9 7 C-7.88625 6.6596875 -7.88625 6.6596875 -6.75 6.3125 C-3.48860409 4.75592468 -2.07105025 2.91481146 0 0 Z " fill="#C0CA54" transform="translate(29,26)"/>
<path d="M0 0 C0.33 0 0.66 0 1 0 C0.53680089 4.72463088 -0.09891706 8.17057052 -3 12 C-3.66 12 -4.32 12 -5 12 C-5 12.66 -5 13.32 -5 14 C-6.32 14.33 -7.64 14.66 -9 15 C-9 12 -9 12 -7.28515625 10.09765625 C-5.806099 8.74337008 -4.32693272 7.38920297 -2.84765625 6.03515625 C-0.94893897 3.9437573 -0.38824514 2.75469171 0 0 Z " fill="#EEF185" transform="translate(37,4)"/>
<path d="M0 0 C2.97 0.33 5.94 0.66 9 1 C9 1.99 9 2.98 9 4 C8 5 8 5 5.27734375 5.09765625 C3.62412109 5.08025391 3.62412109 5.08025391 1.9375 5.0625 C0.28041016 5.04896484 0.28041016 5.04896484 -1.41015625 5.03515625 C-2.26480469 5.02355469 -3.11945312 5.01195312 -4 5 C-4.33 4.34 -4.66 3.68 -5 3 C-1.7 3 1.6 3 5 3 C3.35 2.67 1.7 2.34 0 2 C0 1.34 0 0.68 0 0 Z " fill="#DFDD6B" transform="translate(12,29)"/>
<path d="M0 0 C0.66 0 1.32 0 2 0 C0.50829734 4.9723422 -1.60457417 9.41845739 -4 14 C-4.66 14 -5.32 14 -6 14 C-6.33 14.99 -6.66 15.98 -7 17 C-6.37954537 12.76677156 -4.89476441 9.47709705 -2.9375 5.6875 C-2.38964844 4.61886719 -1.84179688 3.55023438 -1.27734375 2.44921875 C-0.64505859 1.23685547 -0.64505859 1.23685547 0 0 Z " fill="#9CB14C" transform="translate(37,9)"/>
<path d="M0 0 C0 0.66 0 1.32 0 2 C1.32 2 2.64 2 4 2 C4 2.66 4 3.32 4 4 C0.7 4 -2.6 4 -6 4 C-6 3.01 -6 2.02 -6 1 C-3.92446352 0.4465236 -2.15634036 0 0 0 Z " fill="#69685E" transform="translate(19,38)"/>
<path d="M0 0 C0.639375 0.350625 1.27875 0.70125 1.9375 1.0625 C2.5975 1.0625 3.2575 1.0625 3.9375 1.0625 C3.6075 2.0525 3.2775 3.0425 2.9375 4.0625 C0.875 4.75 0.875 4.75 -1.0625 5.0625 C-1.0625 4.4025 -1.0625 3.7425 -1.0625 3.0625 C-2.3825 3.0625 -3.7025 3.0625 -5.0625 3.0625 C-5.0625 2.0725 -5.0625 1.0825 -5.0625 0.0625 C-2.0625 -0.9375 -2.0625 -0.9375 0 0 Z " fill="#575548" transform="translate(24.0625,36.9375)"/>
<path d="M0 0 C0.66 0.33 1.32 0.66 2 1 C0.02 3.31 -1.96 5.62 -4 8 C-4.99 7.67 -5.98 7.34 -7 7 C-6.8125 5.125 -6.8125 5.125 -6 3 C-3.5 1.8125 -3.5 1.8125 -1 1 C-0.67 0.67 -0.34 0.34 0 0 Z " fill="#E8EA8F" transform="translate(25,5)"/>
<path d="M0 0 C0.99 0.33 1.98 0.66 3 1 C2.34 2.98 1.68 4.96 1 7 C-0.9375 6.1875 -0.9375 6.1875 -3 5 C-3.33 4.01 -3.66 3.02 -4 2 C-2.68 2 -1.36 2 0 2 C0 1.34 0 0.68 0 0 Z " fill="#A15F26" transform="translate(13,23)"/>
<path d="M0 0 C0.66 0 1.32 0 2 0 C2.99 2.64 3.98 5.28 5 8 C2 8 2 8 0 7 C0 4.69 0 2.38 0 0 Z " fill="#EDE98A" transform="translate(6,21)"/>
<path d="M0 0 C1.231394 3.69418201 0.64432764 6.2056261 0 10 C-0.99 10 -1.98 10 -3 10 C-2.25 3.375 -2.25 3.375 0 0 Z " fill="#9BB53F" transform="translate(3,20)"/>
<path d="M0 0 C0.66 0.33 1.32 0.66 2 1 C-0.46153846 5.8 -0.46153846 5.8 -3.1875 6.8125 C-3.785625 6.874375 -4.38375 6.93625 -5 7 C-5 5.35 -5 3.7 -5 2 C-3.35 2 -1.7 2 0 2 C0 1.34 0 0.68 0 0 Z " fill="#E3E56D" transform="translate(32,16)"/>
<path d="M0 0 C1.65 0 3.3 0 5 0 C5 0.99 5 1.98 5 3 C3.68 3 2.36 3 1 3 C1 3.66 1 4.32 1 5 C0.34 5 -0.32 5 -1 5 C-0.67 3.35 -0.34 1.7 0 0 Z " fill="#F2B977" transform="translate(11,19)"/>
<path d="M0 0 C0.66 0 1.32 0 2 0 C1.6875 2.375 1.6875 2.375 1 5 C0.01 5.66 -0.98 6.32 -2 7 C-2.33 6.01 -2.66 5.02 -3 4 C-1.6875 1.8125 -1.6875 1.8125 0 0 Z " fill="#B6C85D" transform="translate(6,15)"/>
<path d="M0 0 C0.33 0.99 0.66 1.98 1 3 C-0.8125 5.6875 -0.8125 5.6875 -3 8 C-3.66 8 -4.32 8 -5 8 C-3.62845496 5.04590299 -2.01136276 2.55991624 0 0 Z " fill="#A0B347" transform="translate(29,26)"/>
<path d="M0 0 C1.32 0.66 2.64 1.32 4 2 C3.67 2.66 3.34 3.32 3 4 C0.35139573 4.59355614 -2.29197322 4.74209269 -5 5 C-2 3 -2 3 0 3 C0 2.01 0 1.02 0 0 Z " fill="#CE8B5D" transform="translate(21,13)"/>
<path d="" fill="#7F7F00" transform="translate(0,0)"/>
<path d="" fill="#FFFF00" transform="translate(0,0)"/>
<path d="" fill="#FFFF00" transform="translate(0,0)"/>
</svg>
