<?xml version="1.0" encoding="UTF-8"?>
<svg version="1.1" xmlns="http://www.w3.org/2000/svg" width="42" height="42">
<path d="M0 0 C0.33 1.65 0.66 3.3 1 5 C2.299375 4.835 3.59875 4.67 4.9375 4.5 C10.50229781 4.47362655 13.16027469 7.05574527 17.0546875 10.76171875 C20.15799901 14.33239645 21.90177808 16.8606257 22.3125 21.625 C22 25 22 25 20 28 C20.928125 27.95875 21.85625 27.9175 22.8125 27.875 C26 28 26 28 29 30 C29.5 32.8125 29.5 32.8125 29 36 C26.5625 38.8125 26.5625 38.8125 24 41 C23.67 41.33 23.34 41.66 23 42 C20.0625 42.1875 20.0625 42.1875 17 42 C15 40 15 40 14.875 36.875 C14.91625 35.92625 14.9575 34.9775 15 34 C14.42765625 34.31839844 13.8553125 34.63679688 13.265625 34.96484375 C9.47283904 36.69775458 6.06979712 36.86207525 2 36 C-3.72700101 32.68860575 -8.2345035 27.43145153 -10 21 C-9.83286288 17.54583278 -9.54123585 15.08247169 -8 12 C-10.475 11.01 -10.475 11.01 -13 10 C-13.4375 7.8125 -13.4375 7.8125 -13 5 C-9.23459802 0.9617428 -5.56111281 -0.67818449 0 0 Z " fill="#F1882C" transform="translate(13,0)"/>
<path d="M0 0 C0 1.32 0 2.64 0 4 C0.66 4 1.32 4 2 4 C4.6875 6.25 4.6875 6.25 7 9 C6.875 11 6.875 11 6 13 C5.04285856 17.30713648 4.51939743 21.62222163 4 26 C-1.0626025 25.15805531 -3.08034935 21.95539263 -6 18 C-8.28382791 14.46375033 -9 12.65980038 -9 8.4375 C-7.59097836 3.59398813 -5.34588392 0 0 0 Z " fill="#923E1B" transform="translate(12,9)"/>
<path d="M0 0 C1.3303125 0.7115625 1.3303125 0.7115625 2.6875 1.4375 C6.4380145 3.20661061 8.91052072 3.07715999 13 3 C13.99 3.66 14.98 4.32 16 5 C16.5 7.8125 16.5 7.8125 16 11 C13.5625 13.8125 13.5625 13.8125 11 16 C10.67 16.33 10.34 16.66 10 17 C7.0625 17.1875 7.0625 17.1875 4 17 C2 15 2 15 1.875 11.875 C1.91625 10.92625 1.9575 9.9775 2 9 C1.34 9 0.68 9 0 9 C-1.6875 6.6875 -1.6875 6.6875 -3 4 C-2.67 3.01 -2.34 2.02 -2 1 C-1.34 0.67 -0.68 0.34 0 0 Z " fill="#AFABA2" transform="translate(26,25)"/>
<path d="M0 0 C2.125 0.3125 2.125 0.3125 4 1 C4.66 0.67 5.32 0.34 6 0 C7.99960012 -0.039992 10.00047242 -0.04346799 12 0 C12.33 0.99 12.66 1.98 13 3 C12.34 3 11.68 3 11 3 C11.33 4.98 11.66 6.96 12 9 C10.576875 8.4740625 10.576875 8.4740625 9.125 7.9375 C6.12939828 6.64973223 6.12939828 6.64973223 4 8 C4.33 8.5775 4.66 9.155 5 9.75 C6 12 6 12 6 16 C3.59454362 17.20272819 2.05003047 17.10071472 -0.625 17.0625 C-1.85089844 17.04896484 -1.85089844 17.04896484 -3.1015625 17.03515625 C-3.72804688 17.02355469 -4.35453125 17.01195313 -5 17 C-4.93976506 14.91587093 -4.85091679 12.83255565 -4.75 10.75 C-4.70359375 9.58984375 -4.6571875 8.4296875 -4.609375 7.234375 C-3.90902058 3.51710925 -2.99935817 2.24109347 0 0 Z " fill="#C84450" transform="translate(20,19)"/>
<path d="M0 0 C6.03205573 1.02558442 10.30959366 5.88699207 14 10.5 C15.34358059 13.85895148 15.3979436 16.41850756 15 20 C13.5 21.9375 13.5 21.9375 12 23 C11.67 21.02 11.34 19.04 11 17 C11.66 17 12.32 17 13 17 C12.67 16.34 12.34 15.68 12 15 C8.65747276 14.92572162 6.1964086 14.93453047 3 16 C2.34 15.34 1.68 14.68 1 14 C4.06117568 11.37613513 4.73173127 11 9 11 C8.67 10.34 8.34 9.68 8 9 C7.34 8.855625 6.68 8.71125 6 8.5625 C5.34 8.376875 4.68 8.19125 4 8 C3.67 7.01 3.34 6.02 3 5 C2.34 4.67 1.68 4.34 1 4 C0.375 1.9375 0.375 1.9375 0 0 Z " fill="#EA9961" transform="translate(20,5)"/>
<path d="M0 0 C1 2.5625 1 2.5625 1 6 C-1.3785683 8.71449367 -4.10440971 10.85840368 -7 13 C-8.98 12.01 -10.96 11.02 -13 10 C-13.4375 7.8125 -13.4375 7.8125 -13 5 C-9.23459802 0.9617428 -5.56111281 -0.67818449 0 0 Z " fill="#AAA59C" transform="translate(13,0)"/>
<path d="M0 0 C2.80736541 1.4036827 2.96708362 3.10783413 4 6 C4.33 6.99 4.66 7.98 5 9 C5.66 9 6.32 9 7 9 C7 9.99 7 10.98 7 12 C7.66 12.33 8.32 12.66 9 13 C8.34 14.32 7.68 15.64 7 17 C4.5 15.8125 4.5 15.8125 2 14 C1.6875 11.3125 1.6875 11.3125 2 9 C1.01 9 0.02 9 -1 9 C-1.09765625 2.84765625 -1.09765625 2.84765625 -1 1 C-0.67 0.67 -0.34 0.34 0 0 Z " fill="#7A2E15" transform="translate(6,14)"/>
<path d="M0 0 C0.103125 0.886875 0.20625 1.77375 0.3125 2.6875 C0.80777973 6.0243879 0.80777973 6.0243879 2.625 8.625 C4 11 4 11 3.6875 13.3125 C3.460625 13.869375 3.23375 14.42625 3 15 C2.67 14.34 2.34 13.68 2 13 C1.34 12.690625 0.68 12.38125 0 12.0625 C-2 11 -2 11 -3 8 C-3.66 8 -4.32 8 -5 8 C-5 6.68 -5 5.36 -5 4 C-5.66 3.67 -6.32 3.34 -7 3 C-3.375 0 -3.375 0 0 0 Z " fill="#D2661F" transform="translate(17,5)"/>
<path d="M0 0 C4.97093824 0.41153737 9.44508386 0.79600832 14 3 C14 4.32 14 5.64 14 7 C10.29207191 7.28328822 6.69795687 7.45269973 3 7 C0.73702662 4.54305747 0 3.3203746 0 0 Z " fill="#D6D0C3" transform="translate(28,27)"/>
<path d="M0 0 C1.9375 0.1875 1.9375 0.1875 4 1 C6.02755186 3.93995019 6 5.27704003 6 9 C3.59454362 10.20272819 2.05003047 10.10071472 -0.625 10.0625 C-1.85089844 10.04896484 -1.85089844 10.04896484 -3.1015625 10.03515625 C-4.04128906 10.01775391 -4.04128906 10.01775391 -5 10 C-5 8.02 -5 6.04 -5 4 C-4.54625 4.66 -4.0925 5.32 -3.625 6 C-3.08875 6.66 -2.5525 7.32 -2 8 C-1.34 8 -0.68 8 0 8 C-0.2784375 6.2984375 -0.2784375 6.2984375 -0.5625 4.5625 C-0.706875 3.386875 -0.85125 2.21125 -1 1 C-0.67 0.67 -0.34 0.34 0 0 Z " fill="#BA5D5C" transform="translate(20,26)"/>
<path d="M0 0 C0.99 0 1.98 0 3 0 C3 1.32 3 2.64 3 4 C3.66 4 4.32 4 5 4 C6.70680947 5.62553283 8.37660195 7.29115995 10 9 C9.67 9.99 9.34 10.98 9 12 C4.33160622 11.38341969 4.33160622 11.38341969 2 10 C0.47156347 7.11705247 -0.31308379 4.17944076 -1 1 C-0.67 0.67 -0.34 0.34 0 0 Z " fill="#AB420B" transform="translate(9,9)"/>
<path d="M0 0 C1.65 0 3.3 0 5 0 C5.33 1.98 5.66 3.96 6 6 C2.1496895 8.56687367 0.41430237 7.83288724 -4 7 C-3.01 6.67 -2.02 6.34 -1 6 C-0.67 4.02 -0.34 2.04 0 0 Z " fill="#D3CCBF" transform="translate(8,0)"/>
<path d="M0 0 C0.99 0 1.98 0 3 0 C3 1.65 3 3.3 3 5 C3.9590625 5.2165625 3.9590625 5.2165625 4.9375 5.4375 C7 6 7 6 8 7 C8.66 5.35 9.32 3.7 10 2 C10.66 2.66 11.32 3.32 12 4 C11.96712417 6.72869407 11.43602229 9.2966618 11 12 C7.52660947 11.43491477 6.04993024 10.37356664 3.8125 7.6875 C3.04873047 6.79611328 3.04873047 6.79611328 2.26953125 5.88671875 C0.9388234 3.90908216 0.42672613 2.32899925 0 0 Z " fill="#87462F" transform="translate(5,23)"/>
<path d="M0 0 C3.39192363 0.59283621 5.2107757 1.76743189 7.75 4.0625 C8.67039062 4.88427734 8.67039062 4.88427734 9.609375 5.72265625 C10.29773438 6.35494141 10.29773438 6.35494141 11 7 C10.67 7.99 10.34 8.98 10 10 C7.0625 9.1875 7.0625 9.1875 4 8 C3.67 7.01 3.34 6.02 3 5 C2.34 4.67 1.68 4.34 1 4 C0.375 1.9375 0.375 1.9375 0 0 Z " fill="#FAAE68" transform="translate(20,5)"/>
<path d="M0 0 C6 6 6 6 6.0625 9.0625 C6.041875 10.031875 6.02125 11.00125 6 12 C6.99 12.33 7.98 12.66 9 13 C9 13.66 9 14.32 9 15 C7.35 14.67 5.7 14.34 4 14 C4 12.02 4 10.04 4 8 C3.34 8 2.68 8 2 8 C0.3125 5.6875 0.3125 5.6875 -1 3 C-0.67 2.01 -0.34 1.02 0 0 Z " fill="#9F918A" transform="translate(24,26)"/>
<path d="M0 0 C3 1 3 1 4.375 3.5 C5.77933274 6.24852772 5.77933274 6.24852772 8.6875 6.8125 C9.8321875 6.9053125 9.8321875 6.9053125 11 7 C11 7.66 11 8.32 11 9 C9.02 9.99 7.04 10.98 5 12 C4.16180842 10.37750059 3.3295884 8.75191503 2.5 7.125 C2.0359375 6.22007813 1.571875 5.31515625 1.09375 4.3828125 C0 2 0 2 0 0 Z " fill="#E37324" transform="translate(16,7)"/>
<path d="M0 0 C0.99 0.33 1.98 0.66 3 1 C1.34832443 4.5786304 -0.78286492 7.74820188 -3 11 C-3.97744926 7.95904675 -4.16271218 6.00367313 -3 3 C-1.4375 1.25 -1.4375 1.25 0 0 Z " fill="#C7724C" transform="translate(20,19)"/>
<path d="M0 0 C1.32 0.33 2.64 0.66 4 1 C4 1.66 4 2.32 4 3 C4.66 3 5.32 3 6 3 C6.33 4.65 6.66 6.3 7 8 C7.99 8.33 8.98 8.66 10 9 C9.67 9.99 9.34 10.98 9 12 C9 11.34 9 10.68 9 10 C8.360625 9.731875 7.72125 9.46375 7.0625 9.1875 C5 8 5 8 4 5 C3.34 5 2.68 5 2 5 C2 3.68 2 2.36 2 1 C1.34 0.67 0.68 0.34 0 0 Z " fill="#C35312" transform="translate(10,8)"/>
<path d="M0 0 C0.66 0 1.32 0 2 0 C2 1.32 2 2.64 2 4 C4.31 4 6.62 4 9 4 C7.68 5.32 6.36 6.64 5 8 C2.5 6.8125 2.5 6.8125 0 5 C-0.3125 2.3125 -0.3125 2.3125 0 0 Z " fill="#9C948E" transform="translate(0,5)"/>
<path d="M0 0 C0 0.99 0 1.98 0 3 C0.1496644 4.39775858 0.31720487 5.7936871 0.5 7.1875 C0.665 8.445625 0.83 9.70375 1 11 C-0.32 10.67 -1.64 10.34 -3 10 C-3.75 8.375 -3.75 8.375 -4 6 C-2.0625 2.75 -2.0625 2.75 0 0 Z " fill="#AA2D39" transform="translate(20,24)"/>
<path d="M0 0 C0.33 0.66 0.66 1.32 1 2 C4.02934491 2.65772428 4.02934491 2.65772428 7 3 C6.67 3.99 6.34 4.98 6 6 C5.01 5.67 4.02 5.34 3 5 C1.33378384 4.96125079 -0.33394172 4.9549714 -2 5 C-1.125 1.125 -1.125 1.125 0 0 Z " fill="#B83A45" transform="translate(23,21)"/>
<path d="M0 0 C2.31 0 4.62 0 7 0 C6.67 0.99 6.34 1.98 6 3 C4.02 3 2.04 3 0 3 C0 2.01 0 1.02 0 0 Z " fill="#A3A198" transform="translate(35,34)"/>
<path d="M0 0 C3.60654039 2.40436026 3.85452932 3.94679607 5 8 C3.02 6.68 1.04 5.36 -1 4 C-0.67 2.68 -0.34 1.36 0 0 Z " fill="#C1B0A5" transform="translate(26,25)"/>
<path d="M0 0 C4.24822374 0.47202486 6.19989709 2.96655518 9 6 C6.03 5.505 6.03 5.505 3 5 C2.67 4.01 2.34 3.02 2 2 C1.34 1.34 0.68 0.68 0 0 Z " fill="#FD9E44" transform="translate(21,8)"/>
<path d="M0 0 C0.99 0 1.98 0 3 0 C3 1.65 3 3.3 3 5 C3.66 5 4.32 5 5 5 C4.67 5.99 4.34 6.98 4 8 C0 2.25 0 2.25 0 0 Z " fill="#9F6448" transform="translate(5,23)"/>
<path d="M0 0 C0.66 1.32 1.32 2.64 2 4 C1.01 4.99 0.02 5.98 -1 7 C-1.33 5.02 -1.66 3.04 -2 1 C-1.34 0.67 -0.68 0.34 0 0 Z " fill="#C47776" transform="translate(33,21)"/>
<path d="M0 0 C0.66 0.33 1.32 0.66 2 1 C1.67 2.98 1.34 4.96 1 7 C0.34 7 -0.32 7 -1 7 C-1.04254356 5.00045254 -1.04080783 2.99958364 -1 1 C-0.67 0.67 -0.34 0.34 0 0 Z " fill="#78260A" transform="translate(6,14)"/>
</svg>
