<?xml version="1.0" encoding="UTF-8"?>
<svg version="1.1" xmlns="http://www.w3.org/2000/svg" width="42" height="42">
<path d="M0 0 C3.4375 0.9375 3.4375 0.9375 6.4375 2.9375 C7.5625 5.6875 7.5625 5.6875 7.4375 8.9375 C5.96875 10.2421875 5.96875 10.2421875 4.0625 11.5625 C1.27120144 13.62684009 0.52925288 14.53316529 -0.25390625 17.984375 C-0.47552102 20.98145087 -0.59653178 23.93297998 -0.5625 26.9375 C0.22125 26.133125 1.005 25.32875 1.8125 24.5 C5.64302769 20.76067535 7.94612001 20.59855582 13.1171875 20.6484375 C16.64369864 21.08776717 18.75030127 22.69816773 21.4375 24.9375 C22.035625 25.39125 22.63375 25.845 23.25 26.3125 C25.13500497 28.89198049 25.4375 30.75858624 25.4375 33.9375 C22.34118494 38.52858784 18.47490227 40.08265943 13.30859375 41.44140625 C4.45766311 42.97075073 -4.69547091 41.93259745 -13.5625 40.9375 C-14.02987126 32.2781491 -13.42838231 25.12242789 -10.5703125 16.91796875 C-9.66671775 14.24570984 -9.06595412 11.70649768 -8.5625 8.9375 C-7.40505069 3.57564082 -6.04093474 -0.10598131 0 0 Z " fill="#F9C030" transform="translate(16.5625,0.0625)"/>
<path d="M0 0 C3.72882589 0.69373505 5.70405943 1.79883986 8.05859375 4.78125 C9.18359375 7.40625 9.18359375 7.40625 8.67578125 9.46875 C6.40839776 12.4127872 4.0262269 12.40216023 0.43359375 13.03125 C-3.1638741 13.68185589 -6.55944814 14.31997209 -10.02734375 15.484375 C-13.39111949 16.59621124 -16.29737993 16.54701105 -19.81640625 16.40625 C-19.81640625 15.74625 -19.81640625 15.08625 -19.81640625 14.40625 C-19.05328125 14.385625 -18.29015625 14.365 -17.50390625 14.34375 C-16.61703125 14.034375 -15.73015625 13.725 -14.81640625 13.40625 C-14.03030606 11.7357871 -13.25527247 10.05617445 -12.60546875 8.328125 C-10.02623516 2.0460313 -6.78030508 -0.28202309 0 0 Z " fill="#FDCA40" transform="translate(29.81640625,20.59375)"/>
<path d="M0 0 C0.66 0 1.32 0 2 0 C2 2.97 2 5.94 2 9 C4.97983024 8.88480819 7.95845792 8.75809198 10.9375 8.625 C12.18370117 8.57859375 12.18370117 8.57859375 13.45507812 8.53125 C22.83669082 8.50122077 22.83669082 8.50122077 31 5 C32.99958364 4.95919217 35.00045254 4.95745644 37 5 C37 4.01 37 3.02 37 2 C37.66 2 38.32 2 39 2 C38.875 4.25 38.875 4.25 38 7 C29.33896272 14.39356841 18.42664143 13.52163315 7.71875 12.76953125 C5.14323974 12.54052325 2.57108637 12.27424921 0 12 C0 8.04 0 4.08 0 0 Z " fill="#D18811" transform="translate(3,29)"/>
<path d="M0 0 C2.64 0 5.28 0 8 0 C8.33 1.65 8.66 3.3 9 5 C8.50628906 5.29390625 8.01257812 5.5878125 7.50390625 5.890625 C4.06695692 8.29718107 2.25340046 9.8683366 1.3125 14.0703125 C1.08633263 17.05996236 0.96604855 20.00257198 1 23 C2.65 21.35 4.3 19.7 6 18 C6.99 18.33 7.98 18.66 9 19 C8.236875 19.53625 7.47375 20.0725 6.6875 20.625 C3.77135526 23.20205814 2.5294378 25.45814404 1 29 C-0.32 29 -1.64 29 -3 29 C-3 22.4 -3 15.8 -3 9 C-1.68 9 -0.36 9 1 9 C1 8.34 1 7.68 1 7 C1.804375 6.71125 2.60875 6.4225 3.4375 6.125 C6.1326468 5.26737432 6.1326468 5.26737432 7 3 C4.69 3.33 2.38 3.66 0 4 C0 2.68 0 1.36 0 0 Z " fill="#D9931A" transform="translate(15,4)"/>
<path d="M0 0 C0.66 0 1.32 0 2 0 C2.12375 1.2375 2.2475 2.475 2.375 3.75 C2.75746305 6.8762197 3.30549523 9.28879237 5 12 C10.34107392 12.18417496 13.90904512 11.74689628 19 10 C21.45141296 9.42782867 23.91022517 8.88655704 26.375 8.375 C27.62023437 8.11460938 28.86546875 7.85421875 30.1484375 7.5859375 C31.08945312 7.39257812 32.03046875 7.19921875 33 7 C33 5.68 33 4.36 33 3 C33 2.01 33 1.02 33 0 C35.0625 1.625 35.0625 1.625 37 4 C36.75 7.25 36.75 7.25 36 10 C27.18732845 12.6250511 19.17965983 14.3114206 9.9375 14.125 C9.07189453 14.11597656 8.20628906 14.10695313 7.31445312 14.09765625 C5.20951221 14.07439723 3.10471658 14.03854008 1 14 C1 11.03 1 8.06 1 5 C0.34 5 -0.32 5 -1 5 C-0.67 3.35 -0.34 1.7 0 0 Z " fill="#F3B523" transform="translate(4,24)"/>
<path d="M0 0 C6.52307692 0.61538462 6.52307692 0.61538462 8.9375 2.5625 C9.288125 3.036875 9.63875 3.51125 10 4 C7.36 4 4.72 4 2 4 C2 5.32 2 6.64 2 8 C5.465 7.505 5.465 7.505 9 7 C8 10 8 10 5.75 11.1875 C3.00208853 11.99938294 0.84552111 12.16260121 -2 12 C-2.17835515 7.45194365 -1.99785435 4.1205746 0 0 Z " fill="#FDCD4A" transform="translate(13,0)"/>
<path d="M0 0 C1.31625194 2.63250388 0.74813658 3.80179056 0.0625 6.625 C-0.13214844 7.44226563 -0.32679687 8.25953125 -0.52734375 9.1015625 C-0.76130859 10.04128906 -0.76130859 10.04128906 -1 11 C0.65 11 2.3 11 4 11 C2.68 11.33 1.36 11.66 0 12 C0 12.66 0 13.32 0 14 C-0.66 14 -1.32 14 -2 14 C-2.309375 14.94875 -2.61875 15.8975 -2.9375 16.875 C-4 20 -4 20 -5 22 C-5.66 22 -6.32 22 -7 22 C-6.52474813 19.8613666 -6.048438 17.7230573 -5.56640625 15.5859375 C-5.19891218 13.90813698 -4.85130623 12.2258093 -4.52734375 10.5390625 C-3.69900586 6.3486473 -3.0526348 3.19139092 0 0 Z " fill="#EDB01D" transform="translate(12,1)"/>
<path d="M0 0 C2.64 0 5.28 0 8 0 C8.33 1.65 8.66 3.3 9 5 C8.34 5 7.68 5 7 5 C7 4.34 7 3.68 7 3 C4.69 3.33 2.38 3.66 0 4 C0 2.68 0 1.36 0 0 Z " fill="#E8A825" transform="translate(15,4)"/>
<path d="M0 0 C0.66 0 1.32 0 2 0 C1.67 1.65 1.34 3.3 1 5 C0.0925 5.144375 -0.815 5.28875 -1.75 5.4375 C-4.80340304 5.90407712 -4.80340304 5.90407712 -6.9375 6.5625 C-9.96068576 7.20378183 -12.92158611 7.05920027 -16 7 C-16 6.67 -16 6.34 -16 6 C-15.04287109 5.80083984 -15.04287109 5.80083984 -14.06640625 5.59765625 C-13.24011719 5.42105469 -12.41382813 5.24445312 -11.5625 5.0625 C-10.73878906 4.88847656 -9.91507813 4.71445312 -9.06640625 4.53515625 C-7.02338796 4.19247006 -7.02338796 4.19247006 -6 3 C-4.00041636 2.95919217 -1.99954746 2.95745644 0 3 C0 2.01 0 1.02 0 0 Z " fill="#E6A315" transform="translate(40,31)"/>
<path d="M0 0 C0.33 0 0.66 0 1 0 C1 2.64 1 5.28 1 8 C0.01 8 -0.98 8 -2 8 C-2.125 5.125 -2.125 5.125 -2 2 C-1.34 1.34 -0.68 0.68 0 0 Z " fill="#FECE45" transform="translate(10,18)"/>
<path d="M0 0 C0.66 0.33 1.32 0.66 2 1 C-1.07999946 4.67230705 -3.2482602 5.56802365 -8 6 C-8 5.34 -8 4.68 -8 4 C-7.01 4 -6.02 4 -5 4 C-5 3.34 -5 2.68 -5 2 C-2.625 0.9375 -2.625 0.9375 0 0 Z " fill="#C37A13" transform="translate(21,9)"/>
<path d="M0 0 C2.35981813 0.93578995 4.69631264 1.93347808 7 3 C7 3.33 7 3.66 7 4 C4.03 3.67 1.06 3.34 -2 3 C-2 2.34 -2 1.68 -2 1 C-1.34 0.67 -0.68 0.34 0 0 Z " fill="#FED45B" transform="translate(16,0)"/>
<path d="M0 0 C0.99 0.33 1.98 0.66 3 1 C1.125 6.75 1.125 6.75 0 9 C-0.66 9 -1.32 9 -2 9 C-1.34 6.03 -0.68 3.06 0 0 Z " fill="#F2B827" transform="translate(7,14)"/>
<path d="M0 0 C0.33 0.99 0.66 1.98 1 3 C-0.40445835 5.2636564 -2.1967913 7.0208685 -4 9 C-4.33 8.01 -4.66 7.02 -5 6 C-3.59554165 3.7363436 -1.8032087 1.9791315 0 0 Z " fill="#F9C030" transform="translate(21,24)"/>
<path d="M0 0 C0.99 0.33 1.98 0.66 3 1 C1.8553125 1.8971875 1.8553125 1.8971875 0.6875 2.8125 C-1.3483575 4.46959332 -3.1978279 6.10297674 -5 8 C-5 5 -5 5 -2.5 2.3125 C-1.675 1.549375 -0.85 0.78625 0 0 Z " fill="#E1A01E" transform="translate(21,22)"/>
</svg>
