<svg width="15" height="14" viewBox="0 0 15 14" fill="none" xmlns="http://www.w3.org/2000/svg">
<path d="M8.88464 2.85038C8.58512 2.22022 7.94107 1.81306 7.24387 1.81306C6.54668 1.81306 5.90262 2.22022 5.60314 2.85038C5.55251 2.95689 5.59779 3.08428 5.7043 3.13487C5.81089 3.18555 5.93822 3.14022 5.98881 3.03371C6.21796 2.55163 6.7106 2.24011 7.24387 2.24011C7.77715 2.24011 8.26979 2.5516 8.49893 3.03371C8.53549 3.11065 8.61206 3.15561 8.69191 3.15561C8.72264 3.15561 8.75385 3.14893 8.78345 3.13487C8.88996 3.08428 8.93526 2.95689 8.88464 2.85038Z" fill="white"/>
<path d="M11.6036 4.48251C11.1697 3.93673 10.4502 3.68583 9.7706 3.8435C9.65572 3.87012 9.58418 3.98484 9.61084 4.09972C9.63743 4.2146 9.75221 4.28622 9.86706 4.25948C10.3869 4.13902 10.9374 4.33073 11.2693 4.74825C11.6011 5.16573 11.6637 5.74521 11.4289 6.22455C11.377 6.33049 11.4208 6.45842 11.5267 6.51029C11.5569 6.52509 11.5889 6.53211 11.6204 6.53211C11.6994 6.53211 11.7753 6.48816 11.8124 6.41247C12.1193 5.7859 12.0374 5.02838 11.6036 4.48251Z" fill="white"/>
<path d="M4.71718 3.84353C4.03747 3.68594 3.31801 3.93673 2.88422 4.48254C2.45038 5.02838 2.36844 5.78593 2.67539 6.4125C2.71249 6.48816 2.78835 6.53213 2.86733 6.53213C2.89885 6.53213 2.93088 6.52509 2.9611 6.51032C3.06702 6.45845 3.11079 6.33052 3.05892 6.22461C2.82406 5.74527 2.88674 5.16579 3.21854 4.7483C3.55035 4.33076 4.10085 4.13911 4.62071 4.25951C4.73557 4.28617 4.85034 4.21463 4.87694 4.09975C4.90359 3.98487 4.83206 3.87015 4.71718 3.84353Z" fill="white"/>
<path d="M12.8124 3.94321C12.8324 3.8223 12.8425 3.70026 12.8425 3.57847C12.8425 2.25992 11.6954 1.18717 10.2855 1.18717C10.0233 1.18717 9.76593 1.22416 9.51802 1.29728C9.08209 0.503223 8.21045 0 7.24387 0C6.2773 0 5.40565 0.503223 4.96972 1.29728C4.72182 1.22416 4.46449 1.18717 4.20227 1.18717C3.72409 1.18717 3.25773 1.3114 2.85358 1.54643C2.75165 1.60571 2.71707 1.73641 2.77633 1.83836C2.83561 1.94028 2.96628 1.9748 3.06826 1.91561C3.40728 1.71847 3.79944 1.61425 4.20227 1.61425C4.47844 1.61425 4.74791 1.66281 5.00325 1.75851C5.10894 1.79826 5.22727 1.7486 5.27326 1.64552C5.60322 0.905342 6.3767 0.427077 7.24387 0.427077C8.11104 0.427077 8.88452 0.905342 9.21449 1.64552C9.26047 1.7486 9.37872 1.79818 9.48449 1.75851C9.73984 1.66278 10.0093 1.61425 10.2855 1.61425C11.4599 1.61425 12.4154 2.4954 12.4154 3.5785C12.4154 3.73212 12.3955 3.88648 12.3564 4.0373C12.3267 4.15142 12.3952 4.26797 12.5093 4.29765C13.4228 4.53503 14.0607 5.31236 14.0607 6.18791C14.0607 7.27098 13.1052 8.15213 11.9308 8.15213C11.8836 8.15213 11.8367 8.15241 11.7901 8.15269C11.5129 8.15451 11.2667 8.15595 11.0485 8.1008C11.0467 8.10032 11.0451 8.09955 11.0433 8.0991C10.9651 8.07912 10.8935 8.05241 10.827 8.01832C10.8261 8.01781 10.825 8.01735 10.824 8.01682C10.8045 8.00671 10.7856 7.99573 10.767 7.9843C10.7633 7.98207 10.7596 7.97995 10.756 7.97765C10.739 7.9669 10.7225 7.95541 10.7061 7.9435C10.7014 7.94005 10.6967 7.93665 10.692 7.93309C10.6761 7.92106 10.6606 7.90841 10.6454 7.8952C10.6409 7.89138 10.6366 7.8875 10.6322 7.88357C10.6165 7.86948 10.601 7.85488 10.5858 7.83951C10.5829 7.83648 10.5799 7.83331 10.577 7.83023C10.5606 7.81319 10.5445 7.79568 10.5287 7.77709C10.5176 7.76387 10.506 7.75114 10.4942 7.73863C10.4904 7.73453 10.4865 7.73048 10.4826 7.72647C10.4741 7.71781 10.4656 7.70932 10.4569 7.701C10.4527 7.69698 10.4485 7.69288 10.4442 7.68895C10.4328 7.67833 10.4211 7.66806 10.4092 7.65805C10.4039 7.65366 10.3985 7.64942 10.3932 7.64514C10.3851 7.63863 10.3769 7.63224 10.3686 7.62599C10.3632 7.62186 10.3577 7.61772 10.3521 7.61371C10.339 7.60426 10.3257 7.59503 10.3122 7.58626C10.3105 7.5851 10.3086 7.58405 10.3068 7.58292C10.293 7.57403 10.2789 7.5656 10.2647 7.55742C10.2625 7.55618 10.2603 7.55493 10.2581 7.55369C9.98132 7.39789 9.63421 7.37576 9.31457 7.50924C8.81367 7.71849 8.31447 7.84593 7.82508 7.89126C7.75001 7.89823 7.67528 7.90329 7.60145 7.90637C7.60021 7.90643 7.59899 7.90643 7.59775 7.90649C7.56167 7.90799 7.52579 7.90903 7.49019 7.90963C7.45301 7.91019 7.41586 7.91039 7.37882 7.90997L6.97769 7.90524C6.97582 7.90521 6.9739 7.90516 6.97203 7.90513C6.94453 7.90476 6.91696 7.90397 6.88935 7.90304C6.87627 7.90255 6.86326 7.90213 6.85002 7.90151C6.83969 7.90106 6.82933 7.9004 6.819 7.89987C6.78202 7.89789 6.7445 7.89548 6.70562 7.89237C6.70551 7.89237 6.70542 7.89237 6.70531 7.89237C6.21091 7.8527 5.70429 7.72163 5.19544 7.50061C4.92753 7.38431 4.63226 7.38134 4.37496 7.47664C4.37179 7.47766 4.36859 7.47831 4.36545 7.4795C4.33529 7.49093 4.30603 7.5042 4.27722 7.51835C4.27541 7.51922 4.2736 7.52013 4.27182 7.52103C4.24822 7.53278 4.22505 7.54528 4.20247 7.55875C4.20162 7.55926 4.20077 7.55972 4.19992 7.56023C4.19047 7.56591 4.18116 7.5718 4.17191 7.57777C4.16458 7.58247 4.15736 7.58731 4.15017 7.5922C4.14143 7.59817 4.13269 7.60414 4.12411 7.61037C4.11203 7.61914 4.10015 7.62819 4.0884 7.6375C4.08305 7.64175 4.07779 7.64608 4.07253 7.65043C4.06022 7.66062 4.04811 7.67106 4.03625 7.68187C4.03419 7.68377 4.03204 7.68552 4.03 7.68745C4.01625 7.70018 4.00295 7.71348 3.98987 7.72703C3.98625 7.73077 3.98269 7.73456 3.97912 7.73838C3.96639 7.75199 3.95385 7.76588 3.94183 7.78029C3.94146 7.78071 3.94109 7.78111 3.94072 7.78153C3.92663 7.79842 3.91223 7.81438 3.89768 7.82995C3.89389 7.83397 3.89013 7.83807 3.88631 7.842C3.87335 7.85544 3.86016 7.86829 3.84681 7.88071C3.84036 7.88668 3.83385 7.89237 3.82734 7.89808C3.81967 7.90482 3.81189 7.9113 3.80408 7.91772C3.79064 7.92873 3.77706 7.93928 3.76331 7.9493C3.75858 7.95275 3.75385 7.9562 3.7491 7.95954C3.72884 7.97372 3.70833 7.98696 3.68744 7.99913C3.68736 7.99916 3.6873 7.99922 3.68722 7.99927C3.67624 8.00567 3.66517 8.01178 3.65402 8.01766C3.65094 8.01928 3.64777 8.02081 3.64466 8.02239C3.62669 8.03161 3.60847 8.04022 3.59002 8.0482C3.58144 8.05187 3.57279 8.05544 3.56404 8.05892C3.55204 8.0637 3.53993 8.06826 3.52771 8.07259C3.51399 8.0774 3.50012 8.0821 3.48594 8.08642C3.25861 8.15635 2.99868 8.15473 2.70335 8.15278C2.65494 8.15247 2.60618 8.15213 2.55706 8.15213C1.38262 8.15213 0.427134 7.27098 0.427134 6.18791C0.427134 5.31236 1.0651 4.53503 1.97851 4.29765C2.09263 4.268 2.16111 4.15145 2.13145 4.0373C2.09229 3.88648 2.07243 3.73212 2.07243 3.5785C2.07243 3.20714 2.18536 2.8456 2.39902 2.53301C2.46555 2.43564 2.44056 2.30279 2.34322 2.23621C2.24583 2.16968 2.113 2.19467 2.04642 2.29201C1.78406 2.6759 1.64538 3.12078 1.64538 3.57847C1.64538 3.70026 1.65545 3.8223 1.67543 3.94321C0.679311 4.28532 0 5.1824 0 6.18788C0 7.50643 1.14705 8.57915 2.55697 8.57915C2.60513 8.57915 2.65298 8.57949 2.70041 8.5798C2.74653 8.58011 2.79271 8.58042 2.83903 8.58042C3.05134 8.58042 3.26458 8.57374 3.47061 8.53068C5.31448 10.3617 5.51595 11.8432 5.51595 12.4007V13.2308C5.51595 13.4042 5.61864 13.6479 6.1078 13.8245C6.42121 13.9377 6.83352 14 7.26877 14C7.70403 14 8.11634 13.9377 8.42975 13.8245C8.91893 13.6479 9.02162 13.4042 9.02162 13.2308V12.4006C9.02162 11.7146 9.26568 10.9673 9.74697 10.1795C9.80846 10.0789 9.77674 9.94751 9.67609 9.88602C9.57547 9.82453 9.44403 9.85622 9.38257 9.9569C8.85968 10.8126 8.59457 11.6348 8.59457 12.4006L8.59469 13.2295C8.59047 13.2498 8.51956 13.3443 8.24989 13.435C7.98549 13.5239 7.63708 13.5729 7.26877 13.5729C6.90047 13.5729 6.55205 13.5239 6.28765 13.435C6.01799 13.3443 5.94711 13.2498 5.94298 13.2307V12.4006C5.94298 10.7217 4.65773 9.14383 3.90739 8.36602C3.95597 8.33741 4.00365 8.30482 4.05037 8.26814C4.05176 8.26707 4.05312 8.26599 4.0545 8.26492C4.06769 8.25448 4.08082 8.24367 4.09386 8.23252C4.09618 8.23054 4.09853 8.22859 4.10085 8.22658C4.11274 8.21628 4.12454 8.20564 4.13625 8.19474C4.13919 8.192 4.14219 8.18934 4.14514 8.18657C4.15614 8.17618 4.16707 8.1654 4.17793 8.15445C4.18119 8.15117 4.1845 8.148 4.18775 8.14469C4.19848 8.13368 4.20911 8.12225 4.2197 8.11067C4.22275 8.10734 4.22587 8.10417 4.22889 8.1008C4.24228 8.08592 4.25558 8.07064 4.26876 8.05482C4.28019 8.04109 4.29216 8.02836 4.30433 8.01605C4.3094 8.01093 4.31469 8.00609 4.31992 8.00117C4.32671 7.99477 4.33362 7.98858 4.34058 7.98261C4.34796 7.97632 4.35541 7.97016 4.36308 7.96424C4.36692 7.96127 4.37086 7.9585 4.37473 7.95561C4.3845 7.94851 4.39429 7.94146 4.4045 7.93493C4.97057 8.46056 5.69479 9.26669 6.14012 10.268C6.20211 10.4074 6.34481 10.4832 6.49526 10.4565C6.64388 10.4301 6.75474 10.3066 6.76487 10.1562L6.88739 8.33037C6.91603 8.33127 6.94438 8.33192 6.97262 8.33224L7.37372 8.33693C7.39175 8.33716 7.40972 8.33727 7.42774 8.33727C7.44478 8.33727 7.46187 8.33676 7.47893 8.33657C7.49475 8.33637 7.51051 8.33628 7.52641 8.33591C7.56656 8.33506 7.6068 8.33365 7.6471 8.33175C7.64814 8.3317 7.64916 8.3317 7.65021 8.33164L7.77265 10.1561C7.78275 10.3065 7.89356 10.43 8.04214 10.4564C8.19282 10.4832 8.33535 10.4074 8.3974 10.268C8.83622 9.28118 9.54694 8.48388 10.1044 7.96167C10.1053 7.96235 10.1062 7.963 10.1071 7.9637C10.1219 7.9746 10.136 7.9864 10.1497 7.99873C10.1527 8.00145 10.1558 8.00397 10.1587 8.00677C10.1741 8.02126 10.1888 8.03651 10.2026 8.05284C10.2173 8.07021 10.2322 8.08696 10.2471 8.1032C10.2499 8.1062 10.2528 8.10903 10.2555 8.11201C10.2682 8.1255 10.2808 8.13872 10.2936 8.15142C10.296 8.15377 10.2984 8.15601 10.3008 8.15833C10.3145 8.17177 10.3282 8.18484 10.3421 8.19746C10.3436 8.19879 10.3451 8.20009 10.3466 8.20142C10.362 8.21532 10.3776 8.2287 10.3933 8.2416C10.3934 8.24169 10.3935 8.2418 10.3937 8.24189C10.4635 8.29933 10.5355 8.34737 10.6094 8.38705C10.4242 8.58003 10.203 8.82544 9.97778 9.1092C9.90447 9.20159 9.91995 9.33591 10.0123 9.4092C10.1046 9.48248 10.239 9.46703 10.3123 9.37467C10.5887 9.02637 10.859 8.73829 11.0582 8.53908C11.2984 8.58274 11.5473 8.58124 11.7926 8.57969C11.8383 8.57941 11.8844 8.57912 11.9307 8.57912C13.3406 8.57912 14.4877 7.50641 14.4877 6.18785C14.4877 5.1824 13.8084 4.28532 12.8124 3.94321ZM6.36408 9.75082C5.96247 8.98285 5.42442 8.34208 4.94649 7.86433C4.97388 7.87222 5.00037 7.88147 5.02527 7.89228C5.50647 8.10125 5.98765 8.23631 6.46165 8.29638L6.36408 9.75082ZM8.17346 9.75085L8.07562 8.29271C8.53971 8.22958 9.00945 8.09944 9.47909 7.90326C9.51307 7.88906 9.54935 7.87768 9.58684 7.86883C9.11217 8.34409 8.57474 8.98379 8.17346 9.75085Z" fill="white"/>
</svg>
