<?xml version="1.0" encoding="UTF-8"?>
<svg version="1.1" xmlns="http://www.w3.org/2000/svg" width="42" height="42">
<path d="M0 0 C1.66309906 2.23778251 2.98638486 4.26929004 4.3125 6.6875 C4.67150391 7.28755859 5.03050781 7.88761719 5.40039062 8.50585938 C7.82950793 12.81349406 8.46263702 16.09604758 8 21 C7.505 21.495 7.505 21.495 7 22 C6.76002259 23.47745126 6.53280035 24.95698687 6.3125 26.4375 C5.7890625 28.890625 5.7890625 28.890625 5 31 C2.1875 32.6875 2.1875 32.6875 -1 33 C-4.70575925 32.00577191 -7.76379969 30.03418305 -11 28 C-11.86625 29.11375 -11.86625 29.11375 -12.75 30.25 C-14.72419646 32.66290678 -16.79971581 34.79971581 -19 37 C-19.66 37.99 -20.32 38.98 -21 40 C-25.40114397 39.49701212 -27.71195019 37.91227269 -31 35 C-29.87114558 32.13444648 -28.69345961 29.31334952 -27.4375 26.5 C-26.24344131 23.59272667 -25.4677675 21.0872655 -25 18 C-25.763125 17.896875 -26.52625 17.79375 -27.3125 17.6875 C-30.3131619 16.91988882 -31.29340724 16.55988914 -33 14 C-34 10.6875 -34 10.6875 -34 7 C-31.19440056 2.13696096 -28.1789219 -0.00612323 -22.8046875 -1.53515625 C-15.79760703 -2.69649689 -6.26008575 -3.77927605 0 0 Z " fill="#587B44" transform="translate(34,2)"/>
<path d="M0 0 C0.33 0.66 0.66 1.32 1 2 C5.41729075 3.88029419 5.41729075 3.88029419 10 3 C12.1875 3.4375 12.1875 3.4375 14 4 C14 6.31 14 8.62 14 11 C16.97 11.495 16.97 11.495 20 12 C20 11.34 20 10.68 20 10 C24.38461538 7 24.38461538 7 27 7 C27.495 9.97 27.495 9.97 28 13 C24.37 13.33 20.74 13.66 17 14 C17.33 15.98 17.66 17.96 18 20 C20.37429296 20.25069913 20.37429296 20.25069913 23 20 C23.495 19.484375 23.99 18.96875 24.5 18.4375 C24.995 17.963125 25.49 17.48875 26 17 C28.6875 17.3125 28.6875 17.3125 31 18 C30.01 18.495 30.01 18.495 29 19 C29.020625 20.27875 29.04125 21.5575 29.0625 22.875 C29.125 26.75 29.125 26.75 28 29 C25.35139573 29.59355614 22.70802678 29.74209269 20 30 C19.67 28.68 19.34 27.36 19 26 C18.278125 26.185625 17.55625 26.37125 16.8125 26.5625 C13.83337065 27.02592012 11.91006089 26.67155251 9 26 C7.68 26 6.36 26 5 26 C5 25.01 5 24.02 5 23 C4.34 23 3.68 23 3 23 C2.67 21.68 2.34 20.36 2 19 C2.78375 19.185625 3.5675 19.37125 4.375 19.5625 C6.97089775 20.25962266 6.97089775 20.25962266 9 19 C9.90725434 16.88672575 9.90725434 16.88672575 10.625 14.4375 C11.07875 12.973125 11.5325 11.50875 12 10 C8.7 10 5.4 10 2 10 C2 11.65 2 13.3 2 15 C-0.375 15.625 -0.375 15.625 -3 16 C-3.66 15.34 -4.32 14.68 -5 14 C-5 13.01 -5 12.02 -5 11 C-4.34 11 -3.68 11 -3 11 C-2.67 10.01 -2.34 9.02 -2 8 C-1.34 8 -0.68 8 0 8 C-0.2784375 6.2984375 -0.2784375 6.2984375 -0.5625 4.5625 C-0.706875 3.386875 -0.85125 2.21125 -1 1 C-0.67 0.67 -0.34 0.34 0 0 Z " fill="#325F1E" transform="translate(10,3)"/>
<path d="M0 0 C0.66 0.66 1.32 1.32 2 2 C3.32 2 4.64 2 6 2 C6.268125 2.598125 6.53625 3.19625 6.8125 3.8125 C7.86831322 6.00443888 7.86831322 6.00443888 9.4375 7.4375 C12.68191323 10.68191323 13.94214542 13.13218124 14.25 17.75 C14 21 14 21 13 22 C12.76002259 23.47745126 12.53280035 24.95698687 12.3125 26.4375 C11.7890625 28.890625 11.7890625 28.890625 11 31 C8.1875 32.6875 8.1875 32.6875 5 33 C1.1334176 32.0333544 0.25509535 31.38264302 -2 28 C-0.68 27.34 0.64 26.68 2 26 C2 27.32 2 28.64 2 30 C4.64 30 7.28 30 10 30 C9.95875 28.9275 9.9175 27.855 9.875 26.75 C9.9885825 23.34252515 10.21273364 21.79260369 12 19 C9.58380177 18.74969023 9.58380177 18.74969023 7 19 C6.34 19.99 5.68 20.98 5 22 C2.4375 22.25 2.4375 22.25 0 22 C-1 21 -1 21 -1.0625 17.9375 C-1.0315625 16.4834375 -1.0315625 16.4834375 -1 15 C2.67410785 13.82428549 6.16929183 13.92633254 10 14 C9.67 12.02 9.34 10.04 9 8 C8.21625 8.495 7.4325 8.99 6.625 9.5 C4 11 4 11 2 11 C2 11.66 2 12.32 2 13 C-0.97 12.505 -0.97 12.505 -4 12 C-4 9.69 -4 7.38 -4 5 C-6.97 4.505 -6.97 4.505 -10 4 C-9.67 3.01 -9.34 2.02 -9 1 C-9 1.66 -9 2.32 -9 3 C-8.01 3 -7.02 3 -6 3 C-5.34 2.34 -4.68 1.68 -4 1 C-2 0 -2 0 0 0 Z " fill="#5D7E49" transform="translate(28,2)"/>
<path d="M0 0 C0.99 0.33 1.98 0.66 3 1 C3.6875 3.0625 3.6875 3.0625 4 5 C4.66 5 5.32 5 6 5 C6.33 5.66 6.66 6.32 7 7 C9.31 7 11.62 7 14 7 C12.66189532 9.92710398 11.14313267 12.16754924 9 14.5625 C7.12253722 16.66995197 5.57778314 18.63332529 4 21 C-0.40114397 20.49701212 -2.71195019 18.91227269 -6 16 C-4.86489753 13.11858604 -3.68172726 10.27433815 -2.4375 7.4375 C-1.37880408 4.90583583 -0.53395878 2.66979391 0 0 Z " fill="#6DB322" transform="translate(9,21)"/>
<path d="M0 0 C0.33 0.66 0.66 1.32 1 2 C5.41729075 3.88029419 5.41729075 3.88029419 10 3 C12.1875 3.4375 12.1875 3.4375 14 4 C14 6.31 14 8.62 14 11 C16.97 11.495 16.97 11.495 20 12 C20 11.34 20 10.68 20 10 C24.38461538 7 24.38461538 7 27 7 C27.495 9.97 27.495 9.97 28 13 C26.22978678 13.336611 24.45880326 13.66917293 22.6875 14 C21.70136719 14.185625 20.71523438 14.37125 19.69921875 14.5625 C17 15 17 15 14 15 C13.71125 14.360625 13.4225 13.72125 13.125 13.0625 C12.17176549 10.84793921 12.17176549 10.84793921 10 10 C8.62657169 9.9310528 7.24997898 9.91532292 5.875 9.9375 C4.59625 9.958125 3.3175 9.97875 2 10 C2 11.65 2 13.3 2 15 C-0.375 15.625 -0.375 15.625 -3 16 C-3.66 15.34 -4.32 14.68 -5 14 C-5 13.01 -5 12.02 -5 11 C-4.34 11 -3.68 11 -3 11 C-2.67 10.01 -2.34 9.02 -2 8 C-1.34 8 -0.68 8 0 8 C-0.2784375 6.2984375 -0.2784375 6.2984375 -0.5625 4.5625 C-0.706875 3.386875 -0.85125 2.21125 -1 1 C-0.67 0.67 -0.34 0.34 0 0 Z " fill="#304A20" transform="translate(10,3)"/>
<path d="M0 0 C0.66 0.66 1.32 1.32 2 2 C3.32 2 4.64 2 6 2 C6.99 3.98 7.98 5.96 9 8 C4.25 11 4.25 11 2 11 C2 11.66 2 12.32 2 13 C-0.97 12.505 -0.97 12.505 -4 12 C-4 9.69 -4 7.38 -4 5 C-6.97 4.505 -6.97 4.505 -10 4 C-9.67 3.01 -9.34 2.02 -9 1 C-9 1.66 -9 2.32 -9 3 C-8.01 3 -7.02 3 -6 3 C-5.34 2.34 -4.68 1.68 -4 1 C-2 0 -2 0 0 0 Z " fill="#57803D" transform="translate(28,2)"/>
<path d="M0 0 C2.625 -0.1875 2.625 -0.1875 5 0 C5.33 0.66 5.66 1.32 6 2 C5.34 2 4.68 2 4 2 C4.020625 3.27875 4.04125 4.5575 4.0625 5.875 C4.125 9.75 4.125 9.75 3 12 C0.35139573 12.59355614 -2.29197322 12.74209269 -5 13 C-5.33 11.68 -5.66 10.36 -6 9 C-7.65 9.33 -9.3 9.66 -11 10 C-9.68 9.01 -8.36 8.02 -7 7 C-7.33 5.68 -7.66 4.36 -8 3 C-6.576875 3.0928125 -6.576875 3.0928125 -5.125 3.1875 C-3.578125 3.0946875 -3.578125 3.0946875 -2 3 C-1.34 2.01 -0.68 1.02 0 0 Z " fill="#40612C" transform="translate(35,20)"/>
<path d="M0 0 C1.28003906 -0.00515625 2.56007813 -0.0103125 3.87890625 -0.015625 C7.24848614 0.23589139 9.47102704 0.67793084 12.4375 2.25 C14.3125 4.75 14.3125 4.75 15.4375 7.25 C15.1075 7.91 14.7775 8.57 14.4375 9.25 C13.7775 8.59 13.1175 7.93 12.4375 7.25 C12.4375 6.26 12.4375 5.27 12.4375 4.25 C10.7875 4.58 9.1375 4.91 7.4375 5.25 C7.1075 4.26 6.7775 3.27 6.4375 2.25 C5.32375 2.930625 4.21 3.61125 3.0625 4.3125 C1.1640625 5.47265625 1.1640625 5.47265625 -0.5625 6.25 C-1.2225 5.92 -1.8825 5.59 -2.5625 5.25 C-3.5525 6.24 -4.5425 7.23 -5.5625 8.25 C-8.0625 6.875 -8.0625 6.875 -10.5625 5.25 C-10.5625 4.59 -10.5625 3.93 -10.5625 3.25 C-11.5525 2.92 -12.5425 2.59 -13.5625 2.25 C-8.90492588 0.43592167 -4.98729225 -0.02013034 0 0 Z " fill="#70925B" transform="translate(21.5625,-0.25)"/>
<path d="M0 0 C0.66 0.33 1.32 0.66 2 1 C1.39159077 4.54905382 0.68842953 7.80087037 -1 11 C-2.75 12 -2.75 12 -5 12 C-8.25 10.5625 -8.25 10.5625 -11 9 C-10.67 8.01 -10.34 7.02 -10 6 C-9.34 6 -8.68 6 -8 6 C-8 4.35 -8 2.7 -8 1 C-5.26094655 -0.36952673 -3.02912668 -0.12621361 0 0 Z " fill="#527A39" transform="translate(20,12)"/>
<path d="M0 0 C3.0625 0.125 3.0625 0.125 5.0625 1.125 C4.7325 2.775 4.4025 4.425 4.0625 6.125 C1.4225 6.125 -1.2175 6.125 -3.9375 6.125 C-3.980221 4.45888095 -3.97813832 2.79117115 -3.9375 1.125 C-2.9375 0.125 -2.9375 0.125 0 0 Z " fill="#629041" transform="translate(16.9375,11.875)"/>
<path d="M0 0 C0.33 0.66 0.66 1.32 1 2 C5.41729075 3.88029419 5.41729075 3.88029419 10 3 C12.1875 3.4375 12.1875 3.4375 14 4 C13.67 5.32 13.34 6.64 13 8 C12.443125 7.649375 11.88625 7.29875 11.3125 6.9375 C8.46113217 5.78154007 6.91482778 6.19032562 4 7 C3.67 6.34 3.34 5.68 3 5 C2.34 6.65 1.68 8.3 1 10 C-0.32 9.67 -1.64 9.34 -3 9 C-2.01 8.67 -1.02 8.34 0 8 C-0.2784375 6.2984375 -0.2784375 6.2984375 -0.5625 4.5625 C-0.706875 3.386875 -0.85125 2.21125 -1 1 C-0.67 0.67 -0.34 0.34 0 0 Z " fill="#476C31" transform="translate(10,3)"/>
<path d="M0 0 C1.9375 0.3125 1.9375 0.3125 4 1 C5.09658936 4.28976808 4.79953138 5.71303767 4 9 C1.97954558 8.39816251 -0.02111039 7.72693904 -2 7 C-2.33 6.34 -2.66 5.68 -3 5 C-1.5625 2.375 -1.5625 2.375 0 0 Z " fill="#62AD12" transform="translate(8,33)"/>
<path d="M0 0 C0.598125 0.226875 1.19625 0.45375 1.8125 0.6875 C1.8125 2.3375 1.8125 3.9875 1.8125 5.6875 C0.8225 5.6875 -0.1675 5.6875 -1.1875 5.6875 C-4.46523504 6.43900023 -4.46523504 6.43900023 -6.1875 9.6875 C-5.58414218 3.29190714 -5.58414218 3.29190714 -3.875 0.6875 C-2.1875 -0.3125 -2.1875 -0.3125 0 0 Z " fill="#7AA05B" transform="translate(6.1875,4.3125)"/>
<path d="M0 0 C1.98 0 3.96 0 6 0 C6.66 1.32 7.32 2.64 8 4 C5.36 4.33 2.72 4.66 0 5 C-0.33 4.01 -0.66 3.02 -1 2 C-0.67 1.34 -0.34 0.68 0 0 Z " fill="#4D7038" transform="translate(30,28)"/>
<path d="M0 0 C0.66 0 1.32 0 2 0 C1.65865732 6.37173005 0.21130444 11.06713249 -4 16 C-4.66 16 -5.32 16 -6 16 C-4.86489753 13.11858604 -3.68172726 10.27433815 -2.4375 7.4375 C-1.37880408 4.90583583 -0.53395878 2.66979391 0 0 Z " fill="#A4D453" transform="translate(9,21)"/>
<path d="M0 0 C0.97582031 0.00902344 1.95164062 0.01804688 2.95703125 0.02734375 C3.69308594 0.03894531 4.42914062 0.05054688 5.1875 0.0625 C5.1875 0.7225 5.1875 1.3825 5.1875 2.0625 C3.95 2.206875 2.7125 2.35125 1.4375 2.5 C-0.79807023 2.77109727 -2.83218887 3.06812539 -5 3.6875 C-7.45526458 4.19548578 -9.40681184 3.66392204 -11.8125 3.0625 C-11.4825 2.4025 -11.1525 1.7425 -10.8125 1.0625 C-7.19111734 0.03976493 -3.74515244 -0.04512232 0 0 Z " fill="#88AA6C" transform="translate(19.8125,-0.0625)"/>
<path d="M0 0 C0 0.99 0 1.98 0 3 C0.66 3.33 1.32 3.66 2 4 C1.34 4.66 0.68 5.32 0 6 C-3.125 5.625 -3.125 5.625 -6 5 C-6 3.68 -6 2.36 -6 1 C-3.92446352 0.4465236 -2.15634036 0 0 0 Z " fill="#27411A" transform="translate(27,23)"/>
<path d="M0 0 C0.66 0.33 1.32 0.66 2 1 C2.625 4.0625 2.625 4.0625 3 7 C0.6875 8.5625 0.6875 8.5625 -2 10 C-2.99 9.67 -3.98 9.34 -5 9 C-4.34 8.67 -3.68 8.34 -3 8 C-2.09656316 6.11736119 -2.09656316 6.11736119 -1.375 3.9375 C-1.11460938 3.20402344 -0.85421875 2.47054688 -0.5859375 1.71484375 C-0.39257812 1.14894531 -0.19921875 0.58304688 0 0 Z " fill="#3F612D" transform="translate(22,14)"/>
<path d="M0 0 C1 3 1 3 0.0625 5.1875 C-0.288125 5.785625 -0.63875 6.38375 -1 7 C-2.32 7 -3.64 7 -5 7 C-5.66 8.32 -6.32 9.64 -7 11 C-7.66 10.67 -8.32 10.34 -9 10 C-7.35 7.36 -5.7 4.72 -4 2 C-3.34 2.33 -2.68 2.66 -2 3 C-1.34 2.01 -0.68 1.02 0 0 Z " fill="#78BB23" transform="translate(13,27)"/>
<path d="M0 0 C0.33 1.98 0.66 3.96 1 6 C-2.04386724 6.08226668 -4.07175348 5.97608217 -7 5 C-7 4.34 -7 3.68 -7 3 C-2.61538462 0 -2.61538462 0 0 0 Z " fill="#385528" transform="translate(37,10)"/>
<path d="M0 0 C-0.33 1.32 -0.66 2.64 -1 4 C-1.66 4 -2.32 4 -3 4 C-3.33 4.66 -3.66 5.32 -4 6 C-5.98 5.34 -7.96 4.68 -10 4 C-9.67 3.01 -9.34 2.02 -9 1 C-9 1.66 -9 2.32 -9 3 C-8.01 3 -7.02 3 -6 3 C-5.34 2.34 -4.68 1.68 -4 1 C-2 0 -2 0 0 0 Z " fill="#507736" transform="translate(28,2)"/>
<path d="M0 0 C0.66 0.33 1.32 0.66 2 1 C1.67 2.32 1.34 3.64 1 5 C0.34 4.34 -0.32 3.68 -1 3 C-2.98821313 2.60235737 -4.98944339 2.26224651 -7 2 C-7 1.34 -7 0.68 -7 0 C-4.30919898 -1.34540051 -2.86443593 -0.71610898 0 0 Z " fill="#344F25" transform="translate(37,26)"/>
<path d="M0 0 C1.65 0 3.3 0 5 0 C4.01 0.33 3.02 0.66 2 1 C1.67 2.65 1.34 4.3 1 6 C-0.98 5.01 -2.96 4.02 -5 3 C-5 2.34 -5 1.68 -5 1 C-3.35 1 -1.7 1 0 1 C0 0.67 0 0.34 0 0 Z " fill="#608C41" transform="translate(16,2)"/>
<path d="M0 0 C-0.33 1.32 -0.66 2.64 -1 4 C-1.556875 3.649375 -2.11375 3.29875 -2.6875 2.9375 C-5.53886783 1.78154007 -7.08517222 2.19032562 -10 3 C-10 2.34 -10 1.68 -10 1 C-6.42181037 -1.33958553 -4.07775191 -0.9267618 0 0 Z " fill="#3D5E29" transform="translate(24,7)"/>
<path d="M0 0 C0.66 1.32 1.32 2.64 2 4 C2.66 4 3.32 4 4 4 C3.67 4.99 3.34 5.98 3 7 C2.67 6.67 2.34 6.34 2 6 C1.01 6.99 0.02 7.98 -1 9 C-0.67 6.03 -0.34 3.06 0 0 Z " fill="#5EA521" transform="translate(11,22)"/>
<path d="M0 0 C1.32 0 2.64 0 4 0 C3.67 1.32 3.34 2.64 3 4 C1.125 4.625 1.125 4.625 -1 5 C-1.66 4.34 -2.32 3.68 -3 3 C-2.34 3 -1.68 3 -1 3 C-0.67 2.01 -0.34 1.02 0 0 Z " fill="#497032" transform="translate(16,19)"/>
<path d="M0 0 C4.42857143 5.14285714 4.42857143 5.14285714 5 9 C2.03 8.505 2.03 8.505 -1 8 C-0.34 7.67 0.32 7.34 1 7 C0.67 4.69 0.34 2.38 0 0 Z " fill="#708D5D" transform="translate(37,9)"/>
<path d="M0 0 C2.625 -0.1875 2.625 -0.1875 5 0 C5.33 0.66 5.66 1.32 6 2 C5.34 2 4.68 2 4 2 C3.67 3.65 3.34 5.3 3 7 C2.67 6.01 2.34 5.02 2 4 C2.33 3.34 2.66 2.68 3 2 C2.34 2 1.68 2 1 2 C1 2.66 1 3.32 1 4 C0.01 3.67 -0.98 3.34 -2 3 C-1.34 2.01 -0.68 1.02 0 0 Z " fill="#466834" transform="translate(35,20)"/>
<path d="M0 0 C1.32 0.33 2.64 0.66 4 1 C3.01 1 2.02 1 1 1 C0.67 1.99 0.34 2.98 0 4 C-1.9375 5.25 -1.9375 5.25 -4 6 C-4.66 5.67 -5.32 5.34 -6 5 C-6 4.34 -6 3.68 -6 3 C-4.02 2.67 -2.04 2.34 0 2 C0 1.34 0 0.68 0 0 Z " fill="#6B964C" transform="translate(25,0)"/>
<path d="M0 0 C-0.33 1.32 -0.66 2.64 -1 4 C-2.65 4 -4.3 4 -6 4 C-5.67 3.01 -5.34 2.02 -5 1 C-3 0 -3 0 0 0 Z " fill="#639241" transform="translate(34,17)"/>
<path d="M0 0 C0.99 0 1.98 0 3 0 C3 0.66 3 1.32 3 2 C4.65 1.67 6.3 1.34 8 1 C7.01 1.495 7.01 1.495 6 2 C6 2.66 6 3.32 6 4 C3.03 3.505 3.03 3.505 0 3 C0 2.01 0 1.02 0 0 Z " fill="#4C7335" transform="translate(24,11)"/>
<path d="M0 0 C1.65 0 3.3 0 5 0 C5.33 1.98 5.66 3.96 6 6 C5.01 6.33 4.02 6.66 3 7 C2.814375 5.824375 2.814375 5.824375 2.625 4.625 C2.20882007 1.85942178 2.20882007 1.85942178 0 0 Z " fill="#628A47" transform="translate(5,3)"/>
<path d="M0 0 C0.66 0 1.32 0 2 0 C2.33 1.98 2.66 3.96 3 6 C0.525 5.01 0.525 5.01 -2 4 C-1.34 2.68 -0.68 1.36 0 0 Z " fill="#4DA013" transform="translate(7,35)"/>
<path d="M0 0 C0.99 0 1.98 0 3 0 C2.67 1.65 2.34 3.3 2 5 C1.34 5 0.68 5 0 5 C0 4.34 0 3.68 0 3 C-0.66 3 -1.32 3 -2 3 C-1 1 -1 1 0 0 Z " fill="#639042" transform="translate(27,8)"/>
</svg>
