<?xml version="1.0" encoding="UTF-8"?>
<svg version="1.1" xmlns="http://www.w3.org/2000/svg" width="42" height="42">
<path d="M0 0 C1.32 0 2.64 0 4 0 C4 0.66 4 1.32 4 2 C4.86625 1.67 5.7325 1.34 6.625 1 C9.95718275 0.01268659 12.55159538 -0.16420974 16 0 C16.88221975 3.74943393 17.49020326 7.16007442 17 11 C14.9375 13.375 14.9375 13.375 12 15 C8.1875 15.25 8.1875 15.25 5 15 C5.3403125 16.0828125 5.3403125 16.0828125 5.6875 17.1875 C6.10966678 20.98700103 5.36359148 21.99179266 3 25 C1.04247747 26.83491313 -0.96902609 28.57898192 -3.0234375 30.3046875 C-5.15927772 32.07905827 -5.15927772 32.07905827 -7.5 34.625 C-10.6274588 37.59608586 -13.99210801 40.32672501 -18 42 C-20.24609375 41.6328125 -20.24609375 41.6328125 -22 41 C-20.31431823 34.83287157 -18.3148238 30.84102183 -14 26 C-13.30442578 24.85033393 -12.63782231 23.68268266 -12 22.5 C-9.97680892 18.86634882 -7.99580245 15.92447382 -5 13 C-1.6875 12.625 -1.6875 12.625 1 13 C0.76023437 12.48050781 0.52046875 11.96101562 0.2734375 11.42578125 C-2.17838765 5.65866209 -2.17838765 5.65866209 -1.1875 2 C-0.795625 1.34 -0.40375 0.68 0 0 Z " fill="#F88835" transform="translate(23,0)"/>
<path d="M0 0 C1.32 0 2.64 0 4 0 C4 0.66 4 1.32 4 2 C4.86625 1.67 5.7325 1.34 6.625 1 C9.95718275 0.01268659 12.55159538 -0.16420974 16 0 C16.88221975 3.74943393 17.49020326 7.16007442 17 11 C14.9375 13.375 14.9375 13.375 12 15 C8.375 15.25 8.375 15.25 5 15 C4.01 15 3.02 15 2 15 C1.27039138 13.4473205 0.56707359 11.88226957 -0.125 10.3125 C-0.51945312 9.44238281 -0.91390625 8.57226562 -1.3203125 7.67578125 C-2.15356957 4.39543015 -1.52307559 2.95561872 0 0 Z " fill="#3A7B2A" transform="translate(23,0)"/>
<path d="M0 0 C0.95267647 2.52715973 1.17716742 3.59896411 0.06640625 6.11328125 C-5.12920766 13.71102315 -12.24820391 21.46986376 -21 25 C-23.234375 24.625 -23.234375 24.625 -25 24 C-23.55746343 20.63408134 -21.66735273 18.48952921 -19 16 C-19 16.66 -19 17.32 -19 18 C-15.47618313 15.45395403 -15.47618313 15.45395403 -13 12 C-12.34 12 -11.68 12 -11 12 C-11 11.34 -11 10.68 -11 10 C-9.3203125 8.2734375 -9.3203125 8.2734375 -7.125 6.375 C-6.04605469 5.42753906 -6.04605469 5.42753906 -4.9453125 4.4609375 C-3 3 -3 3 -1 3 C-0.67 2.01 -0.34 1.02 0 0 Z " fill="#D66332" transform="translate(26,17)"/>
<path d="M0 0 C0.3125 2.75 0.3125 2.75 0 6 C-2.0625 8.375 -2.0625 8.375 -5 10 C-8.625 10.25 -8.625 10.25 -12 10 C-12.99 10 -13.98 10 -15 10 C-14.34 8.68 -13.68 7.36 -13 6 C-12.34 6 -11.68 6 -11 6 C-11 5.34 -11 4.68 -11 4 C-9.35546875 2.67578125 -9.35546875 2.67578125 -7.1875 1.3125 C-6.47980469 0.85488281 -5.77210937 0.39726563 -5.04296875 -0.07421875 C-3 -1 -3 -1 0 0 Z " fill="#47901B" transform="translate(40,5)"/>
<path d="M0 0 C-0.598125 0.226875 -1.19625 0.45375 -1.8125 0.6875 C-4.61553535 2.36932121 -5.39034476 4.16700677 -7 7 C-8.66666667 9 -10.33333333 11 -12 13 C-12.556875 13.94875 -13.11375 14.8975 -13.6875 15.875 C-14.120625 16.57625 -14.55375 17.2775 -15 18 C-15.66 18 -16.32 18 -17 18 C-17.99 20.475 -17.99 20.475 -19 23 C-19.66796875 21.23828125 -19.66796875 21.23828125 -20 19 C-18.92578125 17.10546875 -18.92578125 17.10546875 -17.3125 15.1875 C-15.24606059 12.61880101 -13.40317527 10.1393125 -11.8125 7.25 C-6.62295082 -2.05539853 -6.62295082 -2.05539853 0 0 Z " fill="#F16C17" transform="translate(23,15)"/>
<path d="M0 0 C0.79124055 2.27857248 1.1800767 3.51876056 0.3203125 5.81640625 C-3.24491118 11.02442907 -6.92414929 12.61009951 -13 14 C-13 13.34 -13 12.68 -13 12 C-12.34 12 -11.68 12 -11 12 C-11 11.34 -11 10.68 -11 10 C-9.3203125 8.2734375 -9.3203125 8.2734375 -7.125 6.375 C-6.04605469 5.42753906 -6.04605469 5.42753906 -4.9453125 4.4609375 C-3 3 -3 3 -1 3 C-0.67 2.01 -0.34 1.02 0 0 Z " fill="#E45618" transform="translate(26,17)"/>
<path d="M0 0 C-1 3 -1 3 -2.671875 4.02734375 C-3.35765625 4.32769531 -4.0434375 4.62804687 -4.75 4.9375 C-8.2525517 6.56908434 -11.07513084 8.44073949 -14 11 C-14 8 -14 8 -13 6 C-12.34 6 -11.68 6 -11 6 C-11 5.34 -11 4.68 -11 4 C-9.35546875 2.67578125 -9.35546875 2.67578125 -7.1875 1.3125 C-6.47980469 0.85488281 -5.77210937 0.39726563 -5.04296875 -0.07421875 C-3 -1 -3 -1 0 0 Z " fill="#225C15" transform="translate(40,5)"/>
<path d="M0 0 C2.42716947 0.93954947 3.71970832 1.45810276 4.9375 3.8125 C5.02525652 6.88397835 3.71778904 8.52638378 2 11 C1.34 10.67 0.68 10.34 0 10 C0.66 9.01 1.32 8.02 2 7 C2 6.01 2 5.02 2 4 C1.2575 4.763125 0.515 5.52625 -0.25 6.3125 C-2.4263323 8.4393702 -4.52167796 10.2559956 -7 12 C-5.71480435 9.13302508 -4.42870746 7.02392288 -2 5 C-1.34 5 -0.68 5 0 5 C0 3.35 0 1.7 0 0 Z " fill="#E57742" transform="translate(24,14)"/>
<path d="M0 0 C0.33 1.32 0.66 2.64 1 4 C-0.98 4.33 -2.96 4.66 -5 5 C-5 4.67 -5 4.34 -5 4 C-6.98 4 -8.96 4 -11 4 C-10.67 3.01 -10.34 2.02 -10 1 C-6.76421296 -0.31828361 -3.44785988 -0.07836045 0 0 Z " fill="#70B42D" transform="translate(39,0)"/>
<path d="M0 0 C1.32 0 2.64 0 4 0 C4.66 2.64 5.32 5.28 6 8 C5.01 8.66 4.02 9.32 3 10 C0 3.375 0 3.375 0 0 Z " fill="#2C7621" transform="translate(23,0)"/>
<path d="M0 0 C0.99 0.33 1.98 0.66 3 1 C-2.58924205 6.8997555 -2.58924205 6.8997555 -6 8 C-8.25 7.625 -8.25 7.625 -10 7 C-9.67 6.34 -9.34 5.68 -9 5 C-7.02 5.495 -7.02 5.495 -5 6 C-5 5.34 -5 4.68 -5 4 C-4.01 4 -3.02 4 -2 4 C-2 3.34 -2 2.68 -2 2 C-1.34 2 -0.68 2 0 2 C0 1.34 0 0.68 0 0 Z " fill="#CE6E44" transform="translate(11,34)"/>
<path d="M0 0 C0.640625 1.76953125 0.640625 1.76953125 1 4 C0.109375 5.88671875 0.109375 5.88671875 -1.25 7.6875 C-1.68828125 8.28949219 -2.1265625 8.89148438 -2.578125 9.51171875 C-4 11 -4 11 -7 12 C-7 11.01 -7 10.02 -7 9 C-6.01 9 -5.02 9 -4 9 C-3.896875 8.443125 -3.79375 7.88625 -3.6875 7.3125 C-2.86866423 4.55823422 -1.54146219 2.41272343 0 0 Z " fill="#C85226" transform="translate(26,17)"/>
<path d="M0 0 C1.4540625 0.0309375 1.4540625 0.0309375 2.9375 0.0625 C3.2675 1.0525 3.5975 2.0425 3.9375 3.0625 C1.9575 4.0525 -0.0225 5.0425 -2.0625 6.0625 C-2.0625 5.0725 -2.0625 4.0825 -2.0625 3.0625 C-2.7225 2.4025 -3.3825 1.7425 -4.0625 1.0625 C-3.0625 0.0625 -3.0625 0.0625 0 0 Z " fill="#41981D" transform="translate(32.0625,2.9375)"/>
<path d="M0 0 C0.66 1.32 1.32 2.64 2 4 C1.01 5.485 1.01 5.485 0 7 C-1.32 7 -2.64 7 -4 7 C-3.02391783 4.07175348 -1.89213369 2.38573379 0 0 Z " fill="#E96F2E" transform="translate(6,33)"/>
<path d="M0 0 C0.99 0.33 1.98 0.66 3 1 C0.03 3.475 0.03 3.475 -3 6 C-3 3 -3 3 -1.5 1.3125 C-0.7575 0.6628125 -0.7575 0.6628125 0 0 Z " fill="#325E2A" transform="translate(29,10)"/>
<path d="M0 0 C2 2 2 2 2.125 5.625 C2.08375 6.73875 2.0425 7.8525 2 9 C1.34 8.67 0.68 8.34 0 8 C-1.27536232 2.55072464 -1.27536232 2.55072464 0 0 Z " fill="#6DB257" transform="translate(22,1)"/>
</svg>
