<svg width="16" height="14" viewBox="0 0 16 14" fill="none" xmlns="http://www.w3.org/2000/svg">
<path d="M4.41804 6.14029C3.37538 6.64878 2.53553 7.50954 2.05326 8.564C1.98513 8.71296 2.05065 8.88896 2.19963 8.95709C2.23961 8.97539 2.28155 8.98405 2.32281 8.98405C2.43528 8.98405 2.54289 8.91971 2.59271 8.81074C3.01798 7.88091 3.75858 7.12188 4.67807 6.67349C4.8253 6.60168 4.88646 6.42414 4.81465 6.27688C4.74285 6.12964 4.56527 6.06846 4.41804 6.14029Z" fill="white"/>
<path d="M15.1858 9.69384C15.1858 8.98595 14.9265 8.30501 14.4556 7.77648L14.1225 7.4025C14.0479 7.31877 13.9707 7.2359 13.8927 7.15406C13.8764 6.86886 13.8297 6.58465 13.7513 6.30722L13.5068 5.44198C13.4605 5.27808 13.4583 5.10421 13.5005 4.93922L13.5938 4.57473C13.6791 4.24117 13.5949 3.89347 13.3855 3.63679L13.8973 2.75029C13.929 2.69539 13.9885 2.66265 14.0455 2.66846C14.4786 2.71366 14.8967 2.47962 15.0855 2.08594C15.3089 1.62004 15.1502 1.05642 14.7165 0.774857C14.5128 0.642693 14.2768 0.587941 14.0448 0.612826C13.9504 0.399453 13.7849 0.222413 13.5686 0.112168C13.1079 -0.122708 12.5405 0.0216756 12.2487 0.448095C12.0021 0.808403 12.0084 1.28741 12.2642 1.64006C12.2978 1.68639 12.2991 1.75437 12.2674 1.80927L11.7556 2.69578C11.4286 2.6428 11.0854 2.74368 10.8392 2.98434L10.5701 3.24733C10.4483 3.36639 10.2967 3.45145 10.1316 3.49327L9.25998 3.71415C8.88262 3.80977 8.52341 3.96133 8.19329 4.15993C7.67125 4.07686 7.13963 4.03421 6.61103 4.03421C4.84514 4.03421 3.18493 4.7219 1.93628 5.97055C0.687634 7.2192 0 8.87953 0 10.6454C0 11.1644 0.206166 11.6358 0.540432 11.9831H0.296598C0.176713 11.9831 0.0686032 12.0553 0.0226601 12.166C-0.023283 12.2768 0.00192789 12.4043 0.0866067 12.4892L1.50657 13.9129C1.56221 13.9686 1.63776 14 1.71656 14H13.4705C13.5494 14 13.625 13.9686 13.6806 13.9128L15.0993 12.4891C15.1839 12.4042 15.2091 12.2767 15.1631 12.166C15.1172 12.0553 15.0091 11.9831 14.8892 11.9831H14.0527C14.7411 11.4559 15.1858 10.6259 15.1858 9.69384ZM12.7444 1.29174C12.6354 1.14148 12.6329 0.937067 12.7383 0.783103C12.8601 0.604996 13.1066 0.542443 13.2992 0.640647C13.4374 0.711089 13.527 0.845329 13.5389 0.999768C13.5464 1.09732 13.6016 1.18485 13.6864 1.23375C13.7711 1.28263 13.8744 1.28667 13.9627 1.2444C14.1024 1.17755 14.2634 1.18802 14.3935 1.27243C14.5749 1.39015 14.6439 1.63484 14.5506 1.82944C14.4699 1.99767 14.2917 2.09777 14.1071 2.07847C13.8165 2.04807 13.5327 2.19542 13.3836 2.45366L12.9063 3.28031L12.3038 2.93249L12.7811 2.10581C12.9303 1.84765 12.9159 1.52807 12.7444 1.29174ZM9.40576 4.28922L10.2774 4.06834C10.5437 4.00084 10.7884 3.86363 10.9848 3.67156L11.2539 3.40853C11.3439 3.32047 11.4633 3.27465 11.5838 3.27465C11.6645 3.27465 11.7457 3.2952 11.8187 3.33741L12.7984 3.90302C12.9805 4.00822 13.0712 4.22394 13.0191 4.4277L12.9259 4.79219C12.8578 5.05839 12.8612 5.33888 12.936 5.60333L13.1805 6.46857C13.427 7.34098 13.3085 8.29158 12.8552 9.0767C12.4276 9.81731 11.7372 10.3471 10.9111 10.5684C10.0851 10.7897 9.22225 10.6762 8.48165 10.2486C6.95277 9.36589 6.42705 7.40392 7.30976 5.87504C7.76305 5.08989 8.527 4.51191 9.40576 4.28922ZM8.92764 11.9831C8.76383 11.9831 8.63104 12.1159 8.63104 12.2797C8.63104 12.4435 8.76383 12.5763 8.92764 12.5763H14.175L13.3474 13.4068H1.83965L1.01134 12.5763H6.25823C6.42204 12.5763 6.55482 12.4435 6.55482 12.2797C6.55482 12.1159 6.42204 11.9831 6.25823 11.9831H1.93091C1.1933 11.9831 0.593197 11.383 0.593197 10.6454C0.593197 7.3271 3.29283 4.62749 6.61112 4.62749C6.91285 4.62749 7.21565 4.64259 7.51687 4.67151C7.23525 4.93557 6.99109 5.24059 6.79602 5.57845C6.28919 6.45629 6.15456 7.47896 6.41691 8.45803C6.67925 9.43713 7.30721 10.2555 8.18502 10.7623C8.78118 11.1064 9.4326 11.2699 10.0761 11.2699C11.3885 11.2699 12.6668 10.5892 13.3689 9.37324C13.6161 8.94501 13.7785 8.47485 13.8528 7.99148L14.0127 8.17104C14.3867 8.59082 14.5926 9.13163 14.5926 9.69384C14.5926 10.9562 13.5657 11.9831 12.3033 11.9831H8.92764Z" fill="white"/>
<path d="M7.59293 11.9831C7.51492 11.9831 7.4384 12.0149 7.38323 12.07C7.32806 12.1252 7.29632 12.2017 7.29632 12.2797C7.29632 12.3577 7.32806 12.4343 7.38323 12.4894C7.4384 12.5446 7.51492 12.5763 7.59293 12.5763C7.67094 12.5763 7.74746 12.5446 7.80263 12.4894C7.8578 12.4343 7.88954 12.3577 7.88954 12.2797C7.88954 12.2017 7.8578 12.1252 7.80263 12.07C7.74746 12.0148 7.67094 11.9831 7.59293 11.9831Z" fill="white"/>
</svg>
