<svg width="16" height="16" viewBox="0 0 16 16" fill="none" xmlns="http://www.w3.org/2000/svg">
<path d="M5.33333 11.1053L5.55113 10.9334C6.00157 10.5779 6.53177 10.5779 6.9822 10.9334L7.15113 11.0667C7.6016 11.4223 8.13173 11.4223 8.5822 11.0667L8.75113 10.9334C9.2016 10.5779 9.73173 10.5779 10.1822 10.9334L10.3511 11.0667C10.4528 11.147 10.5585 11.2091 10.6665 11.2531M9.33333 13.7334L9.51287 13.6001C9.99167 13.2445 10.5552 13.2445 11.0339 13.6001L11.2135 13.7334C11.6923 14.0889 12.2558 14.0889 12.7345 13.7334L12.9141 13.6001C13.3929 13.2445 13.9564 13.2445 14.4352 13.6001L14.6667 13.772M6.66667 13.7334L6.48713 13.6001C6.00836 13.2445 5.44482 13.2445 4.96605 13.6001L4.78651 13.7334C4.30774 14.0889 3.74421 14.0889 3.26543 13.7334L3.0859 13.6001C2.60713 13.2445 2.04359 13.2445 1.56482 13.6001L1.33333 13.772" stroke="#00C3D0" stroke-linecap="round" stroke-linejoin="round"/>
<path d="M11.6517 5.93201L11.6667 5.93197C13.3235 5.93197 14.6667 7.25227 14.6667 8.88093C14.6667 9.9034 14.1373 10.8043 13.3333 11.3333M11.6517 5.93201C11.6616 5.82407 11.6667 5.71477 11.6667 5.60431C11.6667 3.6137 10.0251 2 8 2C6.08216 2 4.50822 3.44737 4.34695 5.29152M11.6517 5.93201C11.5835 6.67547 11.2857 7.3538 10.8285 7.89793M4.34695 5.29152C2.65599 5.44969 1.33333 6.84967 1.33333 8.55327C1.33333 9.6252 1.8571 10.5768 2.66667 11.1746M4.34695 5.29152C4.45217 5.28167 4.55882 5.27664 4.66667 5.27664C5.41721 5.27664 6.10983 5.52048 6.667 5.93197" stroke="#00C3D0" stroke-linecap="round" stroke-linejoin="round"/>
</svg>
