<svg width="22" height="21" viewBox="0 0 22 21" fill="none" xmlns="http://www.w3.org/2000/svg">
<path d="M8.67188 0.125977C9.97236 0.160322 11.2646 0.337266 12.5254 0.65332L13.0645 0.796875V0.797852C13.6308 0.960674 14.128 1.30393 14.4814 1.77539H14.4824C16.8933 4.93894 18.832 8.43414 20.2393 12.1514L20.5137 12.8984L20.5156 12.9023C20.5802 13.1038 20.6678 13.297 20.7764 13.4785H20.7754C21.1045 13.9905 21.2713 14.5898 21.2539 15.1982C21.2364 15.808 21.0351 16.3987 20.6758 16.8916C20.1979 17.5862 19.5312 17.8247 18.8447 17.9814C18.1476 18.1406 17.4506 18.2157 16.8223 18.5625L16.8184 18.5635C12.9391 20.5602 6.99679 21.4697 2.6416 18.2881L2.56836 18.2236C2.50243 18.1531 2.458 18.0643 2.44141 17.9678C2.41933 17.8392 2.44813 17.7069 2.52246 17.5996C2.59682 17.4924 2.71074 17.419 2.83887 17.3945C2.93501 17.3763 3.03396 17.3868 3.12305 17.4238L3.20898 17.4697L3.21387 17.4727C5.33151 19.05 7.88405 19.4945 10.2812 19.3457C12.6791 19.1968 14.9108 18.4545 16.373 17.6729C16.9925 17.2888 17.6986 17.211 18.3154 17.0928C18.9447 16.9722 19.4908 16.8108 19.8789 16.2939C20.117 15.964 20.2495 15.5698 20.2598 15.1631C20.27 14.7556 20.1565 14.3546 19.9346 14.0127L19.9326 14.0098L20.04 13.9443L19.9326 14.0088C19.7838 13.7644 19.6637 13.5036 19.5752 13.2314L19.3076 12.5029C17.9343 8.87618 16.0426 5.46561 13.6904 2.37891L13.6895 2.37793C13.466 2.07819 13.151 1.85917 12.792 1.75488V1.75391C11.4425 1.37018 10.0499 1.15819 8.64746 1.12109C8.45339 1.11874 8.32038 1.17717 8.22168 1.26758C8.11926 1.36148 8.04424 1.49927 7.98633 1.66895C7.92858 1.83826 7.89137 2.02923 7.85645 2.22266C7.82329 2.40634 7.79048 2.596 7.74512 2.75684C7.73367 2.91836 7.69849 3.09152 7.66113 3.26074C7.6221 3.43754 7.5811 3.61143 7.55762 3.78125C7.51051 4.12232 7.53914 4.40688 7.75879 4.61426C7.83426 4.67884 7.92461 4.72394 8.02148 4.74609C8.11979 4.76853 8.22204 4.76671 8.31934 4.74023H8.32031L11.2217 3.96387C11.2854 3.94725 11.3527 3.94401 11.418 3.95312C11.483 3.96228 11.5459 3.98421 11.6025 4.01758C11.6591 4.05096 11.7086 4.09499 11.748 4.14746C11.7876 4.20013 11.8167 4.26041 11.833 4.32422V4.3252L13.1719 9.68262V9.68555C13.2009 9.81249 13.1794 9.94561 13.1113 10.0566C13.0432 10.1677 12.934 10.2477 12.8076 10.2793C12.6811 10.3109 12.547 10.2916 12.4346 10.2256C12.3223 10.1596 12.2401 10.0524 12.2061 9.92676L12.2051 9.92383L10.9893 5.05664L8.57812 5.70215H8.57617C8.32412 5.76701 8.06029 5.77025 7.80664 5.71191C7.55282 5.6535 7.31662 5.53489 7.11816 5.36621C6.91981 5.1976 6.76456 4.98413 6.66602 4.74316C6.5675 4.50216 6.52834 4.24075 6.55176 3.98145V3.97852C6.65128 3.08027 6.82143 2.19114 7.05957 1.31934C7.15465 0.967856 7.36552 0.658986 7.6582 0.442383C7.95063 0.226027 8.30736 0.115369 8.6709 0.126953L8.67188 0.125977ZM13.3477 16.9297C13.4126 16.9359 13.4756 16.9548 13.5332 16.9854C13.5909 17.016 13.643 17.058 13.6846 17.1084C13.726 17.1587 13.7573 17.217 13.7764 17.2793C13.7955 17.3417 13.8021 17.4077 13.7959 17.4727C13.7897 17.5375 13.7708 17.6006 13.7402 17.6582C13.7096 17.7159 13.6675 17.767 13.6172 17.8086C13.5668 17.8502 13.5088 17.8822 13.4463 17.9014L13.4453 17.9004C12.1583 18.3087 10.8179 18.5235 9.46777 18.5371H9.4668C8.23966 18.5446 7.02138 18.3286 5.87207 17.8984L5.87109 17.8975C5.74808 17.8504 5.6487 17.7569 5.59473 17.6367C5.54077 17.5166 5.53648 17.38 5.58301 17.2568C5.62967 17.1336 5.72366 17.0338 5.84375 16.9795C5.93371 16.9388 6.03287 16.9257 6.12891 16.9414L6.22363 16.9668C8.25775 17.7362 10.588 17.7346 13.1543 16.9492C13.2168 16.9301 13.2826 16.9235 13.3477 16.9297ZM1.51953 10.0078C1.87981 10.0166 2.2585 10.0596 2.57715 10.1133C2.88368 10.1649 3.14617 10.2289 3.2832 10.2852C4.04 10.5349 4.73213 10.9484 5.3125 11.4932C6.05875 10.7823 6.9915 10.2972 8.00488 10.1006H8.00684C10.5367 9.64945 13.2238 11.2106 14.707 13.9434L14.708 13.9453C14.7677 14.061 14.7804 14.1959 14.7422 14.3203C14.7039 14.4448 14.6184 14.5501 14.5039 14.6123C14.3894 14.6745 14.2542 14.689 14.1289 14.6533C14.0038 14.6175 13.8975 14.534 13.833 14.4209L13.8311 14.417C12.9218 12.6871 11.4581 11.543 9.9375 11.1689C8.42083 10.7959 6.84295 11.1867 5.67969 12.5342L5.67676 12.5371C5.62947 12.5882 5.57172 12.6296 5.50781 12.6572C5.44405 12.6848 5.37511 12.6988 5.30566 12.6982C5.23603 12.6977 5.16698 12.682 5.10352 12.6533C5.04011 12.6247 4.98295 12.5831 4.93652 12.5312L4.92969 12.5234C4.5616 12.0335 3.87593 11.5768 3.08984 11.292C2.30458 11.0075 1.44021 10.9018 0.722656 11.0889L0.714844 11.0908C0.650654 11.1029 0.584447 11.1022 0.520508 11.0889C0.45659 11.0755 0.395725 11.0495 0.341797 11.0127C0.287809 10.9758 0.240809 10.9288 0.205078 10.874C0.169347 10.8192 0.144826 10.7577 0.132812 10.6934V10.6914C0.108484 10.5485 0.141878 10.4221 0.225586 10.3203C0.305426 10.2234 0.423489 10.1581 0.552734 10.1133C0.810626 10.0239 1.16256 9.99911 1.51953 10.0078Z" fill="white" stroke="white" stroke-width="0.25"/>
</svg>
