<svg width="16" height="21" viewBox="0 0 16 21" fill="none" xmlns="http://www.w3.org/2000/svg">
<path d="M14.1538 2.46154H12.2018C11.9478 1.74527 11.2638 1.23077 10.4615 1.23077H9.74072C9.48673 0.514421 8.80234 0 8 0C7.19766 0 6.51327 0.514421 6.25928 1.23077H5.53846C4.73621 1.23077 4.05218 1.74527 3.79815 2.46154H1.84615C0.828185 2.46154 0 3.28972 0 4.30769V19.159C0 20.1769 0.828185 21.0051 1.84615 21.0051H14.1538C15.1718 21.0051 16 20.1769 16 19.159V4.30769C16 3.28972 15.1718 2.46154 14.1538 2.46154ZM4.92308 3.07692C4.92308 2.7376 5.19914 2.46154 5.53846 2.46154H6.76923C7.10909 2.46154 7.38462 2.18601 7.38462 1.84615C7.38462 1.50683 7.66068 1.23077 8 1.23077C8.33932 1.23077 8.61539 1.50683 8.61539 1.84615C8.61539 2.18601 8.89091 2.46154 9.23077 2.46154H10.4615C10.8009 2.46154 11.0769 2.7376 11.0769 3.07692V3.69231H4.92308V3.07692ZM14.7692 19.159C14.7692 19.4983 14.4932 19.7744 14.1538 19.7744H1.84615C1.50683 19.7744 1.23077 19.4983 1.23077 19.159V4.30769C1.23077 3.96837 1.50683 3.69231 1.84615 3.69231H3.69231V4.30769C3.69231 4.64755 3.96784 4.92308 4.30769 4.92308H11.6923C12.0322 4.92308 12.3077 4.64755 12.3077 4.30769V3.69231H14.1538C14.4932 3.69231 14.7692 3.96837 14.7692 4.30769V19.159Z" fill="white"/>
<path d="M7.20435 10.7239C6.96406 10.4835 6.5744 10.4835 6.33407 10.7239L4.30769 12.7502L3.51204 11.9546C3.27175 11.7143 2.88209 11.7143 2.64176 11.9546C2.40144 12.1949 2.40144 12.5845 2.64176 12.8249L3.87257 14.0557C3.9927 14.1758 4.1502 14.2359 4.30769 14.2359C4.46519 14.2359 4.62269 14.1758 4.74281 14.0557L7.20435 11.5941C7.44468 11.3538 7.44468 10.9642 7.20435 10.7239Z" fill="white"/>
<path d="M7.20435 6.41616C6.96406 6.17584 6.5744 6.17584 6.33407 6.41616L4.30769 8.44254L3.51204 7.64689C3.27175 7.40656 2.88209 7.40656 2.64176 7.64689C2.40144 7.88722 2.40144 8.27684 2.64176 8.51717L3.87257 9.74798C3.9927 9.86814 4.1502 9.92821 4.30769 9.92821C4.46519 9.92821 4.62269 9.86814 4.74281 9.74798L7.20435 7.28644C7.44468 7.04611 7.44468 6.65649 7.20435 6.41616Z" fill="white"/>
<path d="M7.20435 15.0315C6.96406 14.7912 6.5744 14.7912 6.33407 15.0315L4.30769 17.0579L3.51204 16.2623C3.27175 16.022 2.88209 16.022 2.64176 16.2623C2.40144 16.5026 2.40144 16.8923 2.64176 17.1326L3.87257 18.3633C3.9927 18.4835 4.1502 18.5436 4.30769 18.5436C4.46519 18.5436 4.62269 18.4835 4.74281 18.3633L7.20435 15.9018C7.44468 15.6615 7.44468 15.2718 7.20435 15.0315Z" fill="white"/>
<path d="M12.9231 7.46667H9.23077C8.89091 7.46667 8.61539 7.7422 8.61539 8.08205C8.61539 8.42191 8.89091 8.69744 9.23077 8.69744H12.9231C13.2629 8.69744 13.5385 8.42191 13.5385 8.08205C13.5385 7.7422 13.2629 7.46667 12.9231 7.46667Z" fill="white"/>
<path d="M12.9231 16.0821H9.23077C8.89091 16.0821 8.61539 16.3576 8.61539 16.6974C8.61539 17.0373 8.89091 17.3128 9.23077 17.3128H12.9231C13.2629 17.3128 13.5385 17.0373 13.5385 16.6974C13.5385 16.3576 13.2629 16.0821 12.9231 16.0821Z" fill="white"/>
<path d="M12.9231 11.7744H9.23077C8.89091 11.7744 8.61539 12.0499 8.61539 12.3897C8.61539 12.7296 8.89091 13.0051 9.23077 13.0051H12.9231C13.2629 13.0051 13.5385 12.7296 13.5385 12.3897C13.5385 12.0499 13.2629 11.7744 12.9231 11.7744Z" fill="white"/>
</svg>
