<svg width="20" height="20" viewBox="0 0 20 20" fill="none" xmlns="http://www.w3.org/2000/svg">
<path fill-rule="evenodd" clip-rule="evenodd" d="M10.4255 12.3404C9.838 12.3404 9.3617 11.8641 9.3617 11.2766V10.4255H7.23404V11.2766C7.23404 11.8641 6.75774 12.3404 6.17021 12.3404H5.31915C4.4966 12.3404 3.82979 11.6736 3.82979 10.8511V10.4255C3.47726 10.4255 3.19149 10.1398 3.19149 9.78723C3.19149 9.4347 3.47726 9.14894 3.82979 9.14894V8.7234C3.82979 7.90085 4.4966 7.23404 5.31915 7.23404H6.17021C6.75774 7.23404 7.23404 7.71034 7.23404 8.29787V9.14894H9.3617V8.29787C9.3617 7.71034 9.838 7.23404 10.4255 7.23404H11.2766C12.0991 7.23404 12.766 7.90085 12.766 8.7234V9.14894C13.1185 9.14894 13.4043 9.4347 13.4043 9.78723C13.4043 10.1398 13.1185 10.4255 12.766 10.4255V10.8511C12.766 11.6736 12.0991 12.3404 11.2766 12.3404H10.4255ZM10.6383 8.51064V11.0638H11.2766C11.3941 11.0638 11.4894 10.9686 11.4894 10.8511V8.7234C11.4894 8.60589 11.3941 8.51064 11.2766 8.51064H10.6383ZM5.95745 11.0638V8.51064H5.31915C5.20164 8.51064 5.10638 8.60589 5.10638 8.7234V10.8511C5.10638 10.9686 5.20164 11.0638 5.31915 11.0638H5.95745Z" fill="white"/>
<path d="M5.53192 15.5319C5.53192 15.1794 5.81768 14.8936 6.17021 14.8936H10.5319C10.8844 14.8936 11.1702 15.1794 11.1702 15.5319C11.1702 15.8844 10.8844 16.1702 10.5319 16.1702H6.17021C5.81768 16.1702 5.53192 15.8844 5.53192 15.5319Z" fill="white"/>
<path d="M4.04255 3.82979C3.69002 3.82979 3.40426 4.11555 3.40426 4.46809C3.40426 4.82062 3.69002 5.10638 4.04255 5.10638H12.766C13.1185 5.10638 13.4043 4.82062 13.4043 4.46809C13.4043 4.11555 13.1185 3.82979 12.766 3.82979H4.04255Z" fill="white"/>
<path fill-rule="evenodd" clip-rule="evenodd" d="M2.34043 20C1.04785 20 0 18.9521 0 17.6596V2.34043C0 1.8557 0.147362 1.4054 0.399702 1.03187C0.525723 0.84534 0.677936 0.677936 0.851064 0.534957C1.25572 0.200766 1.77462 0 2.34043 0H17.6596C18.9521 0 20 1.04785 20 2.34043V17.6596C20 18.9521 18.9521 20 17.6596 20H2.34043ZM2.34043 1.2766H15.5319V18.7234H2.34043C1.75289 18.7234 1.2766 18.247 1.2766 17.6596V2.34043C1.2766 1.75289 1.75289 1.2766 2.34043 1.2766ZM16.8085 1.2766V18.7234H17.6596C18.247 18.7234 18.7234 18.247 18.7234 17.6596V2.34043C18.7234 1.75289 18.247 1.2766 17.6596 1.2766H16.8085Z" fill="white"/>
</svg>
