<svg width="14" height="14" viewBox="0 0 14 14" fill="none" xmlns="http://www.w3.org/2000/svg">
<path d="M1.36922 10.7734C1.25596 10.7734 1.16414 10.6816 1.16414 10.5684V10.2402C1.16414 10.1269 1.25596 10.0352 1.36922 10.0352C1.48248 10.0352 1.5743 10.1269 1.5743 10.2402V10.5684C1.5743 10.6816 1.48248 10.7734 1.36922 10.7734Z" fill="white"/>
<path d="M4.78437 10.7734C4.67112 10.7734 4.5793 10.6816 4.5793 10.5684V10.2402C4.5793 10.1269 4.67112 10.0352 4.78437 10.0352C4.89763 10.0352 4.98945 10.1269 4.98945 10.2402V10.5684C4.98945 10.6816 4.89763 10.7734 4.78437 10.7734Z" fill="white"/>
<path d="M3.07681 10.9688C2.84499 10.9688 2.62455 10.8684 2.47199 10.6933C2.39759 10.608 2.40648 10.4784 2.49187 10.404C2.57724 10.3296 2.7068 10.3385 2.78123 10.4239C2.85585 10.5095 2.96358 10.5587 3.07681 10.5587C3.19004 10.5587 3.29775 10.5095 3.3724 10.4239C3.4468 10.3385 3.57633 10.3296 3.66175 10.404C3.74714 10.4784 3.75603 10.608 3.68163 10.6933C3.52905 10.8684 3.30863 10.9688 3.07681 10.9688Z" fill="white"/>
<path d="M13.3164 11.1453H11.9006C11.8359 11.0253 11.7305 10.9301 11.5992 10.8778C11.5427 10.8554 11.502 10.8066 11.49 10.7469C11.4898 10.7459 11.4896 10.7448 11.4894 10.7438C11.4452 10.5052 11.2554 10.3155 11.0172 10.2718C11.0162 10.2716 11.0152 10.2714 11.0142 10.2713C10.9561 10.2595 10.9082 10.2205 10.8851 10.166C10.8845 10.1644 10.8839 10.1629 10.8833 10.1613C10.7937 9.93645 10.5714 9.78843 10.3297 9.79016H10.3255C10.2645 9.79016 10.2086 9.75983 10.1755 9.7084C10.0444 9.50622 9.799 9.40335 9.56357 9.45148C9.5616 9.45183 9.5596 9.45221 9.55766 9.45265C9.49838 9.46542 9.43489 9.44612 9.39218 9.4024C9.39169 9.40188 9.39119 9.40138 9.39067 9.40086C9.28067 9.28851 9.12763 9.22411 8.97037 9.22411C8.88829 9.22411 8.80918 9.24066 8.73686 9.27259C8.68146 9.29652 8.61879 9.29113 8.56826 9.25829C8.56689 9.25731 8.56547 9.25632 8.56407 9.25537C8.36474 9.1181 8.0966 9.11807 7.89691 9.25523C7.89546 9.25624 7.89401 9.25725 7.89254 9.25832C7.84318 9.29048 7.77655 9.29518 7.72448 9.27281C7.50232 9.17634 7.23981 9.22775 7.07034 9.4007C7.06971 9.4013 7.06908 9.40196 7.06848 9.40259C7.02601 9.44617 6.96263 9.46539 6.90313 9.4526C6.90141 9.45221 6.89966 9.45189 6.89794 9.45156C6.85862 9.44341 6.8188 9.43931 6.77956 9.43931C6.5793 9.43931 6.39462 9.53996 6.28552 9.70859C6.25249 9.75964 6.19646 9.79013 6.13562 9.79013H6.13146C6.07494 9.78947 6.01938 9.79718 5.96628 9.81228L6.07511 8.65159C6.37332 8.71601 6.68274 8.74997 6.99996 8.74997C8.71222 8.74997 10.2764 7.74225 10.985 6.18272C11.0318 6.07961 10.9862 5.95801 10.8831 5.91117C10.78 5.8643 10.6584 5.90991 10.6116 6.01305C9.96943 7.42656 8.55179 8.33984 6.99998 8.33984C4.81377 8.33984 3.03511 6.56121 3.03511 4.375C3.03511 2.18879 4.81374 0.410156 6.99998 0.410156C9.18622 0.410156 10.9649 2.18879 10.9649 4.375C10.9649 4.63523 10.9396 4.89489 10.8897 5.14675C10.8677 5.25785 10.94 5.36575 11.0511 5.38773C11.1622 5.40988 11.2701 5.33747 11.2921 5.22638C11.3471 4.94834 11.375 4.66189 11.375 4.375C11.375 1.9626 9.41236 0 6.99998 0C4.58761 0 2.62496 1.9626 2.62496 4.375C2.62496 5.37138 2.95978 6.291 3.52279 7.02734H2.50872C2.39546 7.02734 2.30364 7.11914 2.30364 7.23242C2.30364 7.34571 2.39546 7.4375 2.50872 7.4375H3.87848C4.37214 7.94057 4.98609 8.32524 5.67321 8.5444L5.64491 8.84628C4.53743 9.27935 3.69142 9.08411 2.87242 8.89509C2.14543 8.72725 1.39583 8.55427 0.506936 8.82788L0.411616 7.81132C0.402511 7.71433 0.433655 7.62125 0.49928 7.5492C0.56485 7.47718 0.654538 7.43753 0.751854 7.43753H1.55166C1.66492 7.43753 1.75674 7.34573 1.75674 7.23245C1.75674 7.11916 1.66492 7.02737 1.55166 7.02737H0.751854C0.540788 7.02737 0.338171 7.11689 0.196011 7.27303C0.0537957 7.42919 -0.0164504 7.63932 0.00326443 7.8496L0.492718 13.0704C0.542565 13.6003 0.98146 14 1.51368 14H4.63992C4.70426 14 4.76726 13.9941 4.82834 13.9829C4.88973 13.9943 4.95235 14 5.0151 14H11.4458C11.813 14 12.1542 13.802 12.3362 13.4833L12.891 12.5125H13.3164C13.4986 12.5125 13.6702 12.4415 13.7997 12.3125C13.9289 12.1832 14 12.0115 14 11.8289C14 11.4519 13.6933 11.1453 13.3164 11.1453ZM5.95854 10.3137C5.95917 10.3121 5.9598 10.3105 5.9604 10.3089C5.98862 10.2425 6.05249 10.2003 6.12479 10.2003C6.12654 10.2003 6.12835 10.2003 6.13015 10.2003H6.13562C6.33621 10.2003 6.52103 10.0997 6.62991 9.93136C6.66308 9.88009 6.71903 9.84949 6.77956 9.84949C6.79151 9.84949 6.80396 9.85089 6.81656 9.85359C6.81858 9.85406 6.82064 9.85444 6.82271 9.85482C7.0194 9.89507 7.21994 9.83382 7.36065 9.69049C7.36136 9.68978 7.3621 9.68904 7.36281 9.6883C7.41408 9.63555 7.49376 9.61978 7.56181 9.64934C7.63564 9.68105 7.71415 9.69716 7.79511 9.69716C7.91504 9.69716 8.03038 9.6614 8.12871 9.5938C8.1301 9.59284 8.13149 9.59186 8.13286 9.59085C8.19179 9.55257 8.26895 9.55248 8.32774 9.59068C8.32927 9.59178 8.3308 9.59287 8.33236 9.59394C8.50034 9.70922 8.71228 9.72986 8.90089 9.64854C8.92233 9.63908 8.94571 9.6343 8.97037 9.6343C9.0182 9.6343 9.06471 9.65398 9.09807 9.68833C9.09872 9.68901 9.09946 9.68975 9.1002 9.69049C9.24119 9.83382 9.44175 9.8951 9.63814 9.85485C9.64005 9.8545 9.64196 9.85414 9.64388 9.85373C9.71576 9.8382 9.79115 9.86956 9.83096 9.93095C9.93949 10.0996 10.1244 10.2003 10.3255 10.2003H10.331C10.3319 10.2003 10.3329 10.2003 10.3338 10.2003C10.4058 10.1995 10.4723 10.2429 10.5006 10.3091C10.5011 10.3104 10.5016 10.3118 10.5021 10.3131C10.5773 10.5028 10.742 10.6381 10.9426 10.6752C10.9437 10.6754 10.9449 10.6756 10.946 10.6758C11.0158 10.6898 11.0714 10.7455 11.0856 10.8156C11.0857 10.8166 11.0859 10.8177 11.0861 10.8187C11.1099 10.947 11.1737 11.0605 11.266 11.1453H5.84132L5.91042 10.4083C5.92917 10.3785 5.94531 10.3468 5.95854 10.3137ZM4.63989 13.5898H1.51368C1.19436 13.5898 0.931011 13.35 0.901124 13.032L0.546202 9.24623C1.36597 8.96829 2.05405 9.1271 2.78021 9.29471C3.24519 9.40204 3.74334 9.51705 4.30345 9.51705C4.70174 9.51702 5.13139 9.45886 5.60258 9.29841L5.25255 13.032C5.22258 13.35 4.95921 13.5898 4.63989 13.5898ZM13.5099 12.0222C13.4581 12.0739 13.3893 12.1023 13.3164 12.1023H8.52276C8.4095 12.1023 8.31768 12.1941 8.31768 12.3074C8.31768 12.4207 8.4095 12.5125 8.52276 12.5125H12.4186L11.98 13.2798C11.8708 13.4711 11.6661 13.5899 11.4458 13.5899H5.4619C5.57122 13.4434 5.64247 13.2657 5.66085 13.0703L5.71316 12.5125H7.56573C7.67898 12.5125 7.7708 12.4207 7.7708 12.3074C7.7708 12.1942 7.67898 12.1024 7.56573 12.1024H5.7516L5.80287 11.5555H13.3164C13.4672 11.5555 13.5899 11.6782 13.5899 11.8289C13.5899 11.9019 13.5614 11.9707 13.5099 12.0222Z" fill="white"/>
<path d="M6.99998 0.967996C5.12136 0.967996 3.59298 2.49637 3.59298 4.375C3.59298 6.25363 5.12136 7.782 6.99998 7.782C8.87861 7.782 10.407 6.25363 10.407 4.375C10.407 2.49637 8.87861 0.967996 6.99998 0.967996ZM9.71276 4.58008H9.98986C9.94422 5.25235 9.67584 5.8645 9.25817 6.34315L9.06345 6.14843C8.98336 6.06837 8.85351 6.06837 8.77344 6.14843C8.69335 6.22855 8.69335 6.35838 8.77344 6.43847L8.96816 6.63318C8.48953 7.05089 7.87739 7.31924 7.20509 7.3649V7.08777C7.20509 6.97449 7.11327 6.8827 7.00001 6.8827C6.88675 6.8827 6.79493 6.97449 6.79493 7.08777V7.36487C6.12266 7.31924 5.51049 7.05086 5.03186 6.63316L5.22658 6.43844C5.30667 6.35832 5.30667 6.2285 5.22658 6.14841C5.14649 6.06834 5.01663 6.06834 4.93657 6.14841L4.74185 6.34312C4.32415 5.8645 4.0558 5.25235 4.01016 4.58005H4.28726C4.40052 4.58005 4.49234 4.48826 4.49234 4.37497C4.49234 4.26169 4.40052 4.16989 4.28726 4.16989H4.01016C4.0558 3.49762 4.32418 2.88548 4.74185 2.40682L4.93657 2.60154C4.9766 2.64157 5.0291 2.66159 5.08157 2.66159C5.13405 2.66159 5.18655 2.64157 5.22658 2.60154C5.30667 2.52142 5.30667 2.39159 5.22658 2.3115L5.03186 2.11679C5.51049 1.69909 6.12263 1.43073 6.79493 1.38507V1.66223C6.79493 1.77551 6.88675 1.8673 7.00001 1.8673C7.11327 1.8673 7.20509 1.77551 7.20509 1.66223V1.38512C7.87736 1.43076 8.48953 1.69914 8.96816 2.11684L8.77344 2.31156C8.69335 2.39168 8.69335 2.5215 8.77344 2.60159C8.81347 2.64162 8.86598 2.66164 8.91845 2.66164C8.97092 2.66164 9.02342 2.64162 9.06345 2.60159L9.25817 2.40688C9.67587 2.8855 9.94422 3.49765 9.98986 4.16995H9.71276C9.5995 4.16995 9.50768 4.26174 9.50768 4.37503C9.50768 4.48831 9.5995 4.58008 9.71276 4.58008Z" fill="white"/>
<path d="M7.96899 3.11596L7.20506 3.87989V2.48243C7.20506 2.36914 7.11324 2.27735 6.99998 2.27735C6.88672 2.27735 6.7949 2.36914 6.7949 2.48243V4.375C6.7949 4.48829 6.88672 4.58008 6.99998 4.58008C7.05661 4.58008 7.10788 4.55714 7.14499 4.52003L8.259 3.40602C8.33909 3.3259 8.33909 3.19607 8.259 3.11598C8.17894 3.03589 8.04908 3.03589 7.96899 3.11596Z" fill="white"/>
</svg>
