<svg width="16" height="20" viewBox="0 0 16 20" fill="none" xmlns="http://www.w3.org/2000/svg">
<path d="M2.89194 20H12.7984C14.7296 20 15.6903 19.0205 15.6903 17.0802V8.61015H8.93652C7.74249 8.61015 7.18289 8.04099 7.18289 6.84696V0H2.89194C0.970348 0 0 0.988657 0 2.92935V17.0802C0 19.0297 0.970348 20 2.89194 20ZM8.96478 7.33214H15.5877C15.5224 6.94965 15.2517 6.57632 14.8135 6.1194L9.66408 0.886368C9.23502 0.438607 8.84338 0.16796 8.45134 0.102289V6.82866C8.45134 7.16418 8.62886 7.33214 8.96478 7.33214ZM4.25393 12.6496C3.87144 12.6496 3.6008 12.3789 3.6008 12.0151C3.6008 11.6509 3.87144 11.3807 4.25353 11.3807H11.4456C11.8189 11.3807 12.1083 11.6513 12.1083 12.0147C12.1083 12.3789 11.8189 12.6492 11.446 12.6492L4.25393 12.6496ZM4.25393 16.2034C3.87144 16.2034 3.6008 15.9327 3.6008 15.569C3.6008 15.2052 3.87144 14.9345 4.25353 14.9345H11.4456C11.8189 14.9345 12.1083 15.2052 12.1083 15.569C12.1083 15.9327 11.8189 16.2034 11.446 16.2034H4.25393Z" fill="white"/>
</svg>
