<svg width="25" height="23" viewBox="0 0 25 23" fill="none" xmlns="http://www.w3.org/2000/svg">
<path d="M4.84697 10.6732C5.21878 10.3842 5.53401 10.2586 5.73714 10.2064L5.73791 10.2058C5.85909 10.1746 5.93186 10.1888 5.96951 10.2015C5.98996 10.2084 6.00658 10.2169 6.01935 10.2258L6.04752 10.2509C6.308 10.5676 7.16857 11.6234 8.73853 13.6436C10.308 15.6631 11.1188 16.7579 11.3617 17.0889C11.3725 17.1037 11.3876 17.134 11.3909 17.1775C11.3939 17.217 11.3891 17.2905 11.3289 17.4001L11.3282 17.4007C11.2274 17.5846 11.0279 17.8591 10.6561 18.1481C10.2843 18.437 9.96906 18.5626 9.76593 18.6148L9.76516 18.6154C9.64431 18.6465 9.57185 18.6332 9.53416 18.6205C9.49269 18.6065 9.46705 18.5842 9.45555 18.5703C9.19472 18.2532 8.33403 17.1972 6.76455 15.1776C5.97928 14.1672 5.38413 13.3881 4.95491 12.8204L4.1414 11.7323C4.1306 11.7175 4.11608 11.6877 4.11274 11.6445C4.10973 11.605 4.11384 11.531 4.17415 11.4211L4.17492 11.4205C4.27564 11.2366 4.47515 10.9621 4.84697 10.6732ZM13.5325 3.92319C13.8113 3.7065 14.0584 3.58223 14.2501 3.5114L14.4226 3.45648C14.544 3.42518 14.6172 3.43878 14.655 3.45152C14.6759 3.45858 14.6926 3.46755 14.7055 3.47663L14.733 3.50097C14.9935 3.81762 15.8541 4.87345 17.424 6.89359C18.9935 8.91312 19.8043 10.0079 20.0472 10.339C20.0576 10.3532 20.0731 10.3836 20.0764 10.4275C20.0787 10.4574 20.0761 10.5061 20.0497 10.5745L20.0137 10.6507C19.9129 10.8347 19.7134 11.1091 19.3416 11.3981C19.0629 11.6147 18.8163 11.7398 18.6246 11.8106L18.4514 11.8648C18.3304 11.896 18.2575 11.8832 18.2197 11.8705C18.1781 11.8565 18.1525 11.8342 18.1411 11.8203C17.8805 11.5035 17.0195 10.4472 15.4501 8.42768C14.6647 7.41717 14.0696 6.63809 13.6404 6.07048L12.8269 4.98232C12.8162 4.96773 12.8016 4.93795 12.7982 4.89452C12.7952 4.8549 12.7994 4.78086 12.8597 4.67116L12.8604 4.67057C12.9611 4.48661 13.1607 4.21214 13.5325 3.92319ZM2.59862 14.7061L2.60247 14.7031C2.77965 14.5627 2.97277 14.4476 3.17115 14.3638L3.17175 14.3645C3.32621 14.3013 3.42324 14.3088 3.4736 14.3217C3.50182 14.3289 3.524 14.3397 3.54031 14.3502L3.57242 14.3772C3.7756 14.6226 4.29709 15.2619 5.18536 16.4049C6.0732 17.5473 6.56331 18.2113 6.75127 18.4692C6.76102 18.4826 6.78057 18.5207 6.7807 18.5786C6.78073 18.6175 6.7721 18.6813 6.72572 18.7673L6.66599 18.8607C6.56886 18.9919 6.41867 19.1556 6.19293 19.331C6.02374 19.4625 5.8715 19.5545 5.74212 19.6183L5.62039 19.6733C5.46594 19.7365 5.36831 19.7283 5.31795 19.7154C5.26172 19.701 5.2295 19.6724 5.21913 19.6599C5.01574 19.4142 4.49412 18.7747 3.60618 17.6322C2.71802 16.4893 2.22803 15.8255 2.04027 15.5679C2.03053 15.5545 2.0109 15.5164 2.01085 15.4584C2.01086 15.4066 2.0263 15.3105 2.12556 15.1763C2.22269 15.0452 2.37293 14.8815 2.59862 14.7061ZM17.9918 2.74321L17.9956 2.74021C18.1648 2.60876 18.3171 2.51669 18.4465 2.45294L18.5682 2.39792C18.7224 2.33499 18.8194 2.34357 18.8699 2.35641C18.9263 2.37081 18.9582 2.39942 18.9687 2.41195C19.172 2.65751 19.6942 3.29622 20.5824 4.43906C21.4703 5.58162 21.9612 6.24497 22.1491 6.50273C22.1586 6.51586 22.1784 6.55415 22.1785 6.6122C22.1785 6.65123 22.1692 6.71534 22.1227 6.80147L22.063 6.89489C21.9328 7.06646 21.7736 7.22512 21.5938 7.36218L21.5861 7.36818C21.4086 7.50872 21.2154 7.62417 21.0167 7.70807L21.0174 7.70747C20.8632 7.77051 20.7661 7.76185 20.7157 7.74898C20.6874 7.74171 20.6654 7.73096 20.649 7.72043L20.6169 7.69344C20.4134 7.44762 19.891 6.80874 19.0032 5.66633C18.1149 4.52335 17.6242 3.86015 17.4365 3.60266C17.427 3.58944 17.4072 3.55134 17.4071 3.49319C17.4071 3.44125 17.4227 3.34501 17.5218 3.2111C17.6194 3.08247 17.7335 2.96114 17.86 2.85056L17.9918 2.74321Z" stroke="white"/>
<path fill-rule="evenodd" clip-rule="evenodd" d="M9.2902 11.9099L10.5558 13.5383C10.7657 13.8085 11.1824 13.7123 11.5246 13.4788C11.5955 13.431 11.7 13.3577 11.8382 13.2589C12.115 13.0611 12.5285 12.7563 13.091 12.3191C13.6536 11.8819 14.0515 11.5562 14.3112 11.337C14.441 11.2276 14.5378 11.1444 14.6017 11.0875C14.9126 10.8138 15.1087 10.4338 14.8985 10.1633L13.633 8.53487C13.423 8.2647 13.0063 8.36086 12.6641 8.59436C12.5589 8.6665 12.4543 8.73981 12.3506 8.81426C11.927 9.11924 11.5093 9.43264 11.0977 9.75412C10.5351 10.1913 10.1372 10.517 9.87757 10.7362C9.748 10.8454 9.65117 10.9286 9.58707 10.9857C9.27608 11.2594 9.08002 11.6394 9.2902 11.9099Z" fill="white"/>
</svg>
