<svg width="10" height="10" viewBox="0 0 10 10" fill="none" xmlns="http://www.w3.org/2000/svg">
<path d="M6.14419 0.78487L6.55349 0.368794C7.03721 -0.122931 7.87907 -0.122931 8.36279 0.368794L8.69302 0.704492C8.93488 0.950355 9.06977 1.2766 9.06977 1.62175C9.06977 1.9669 8.93488 2.29787 8.69302 2.53901L8.28372 2.95508L6.14419 0.780142V0.78487ZM5.65116 1.28605L1.41395 5.59338C1.27907 5.7305 1.19535 5.91017 1.1814 6.10402L1.05581 7.48936C1.04186 7.6643 1.10233 7.83452 1.22326 7.96218C1.33488 8.07565 1.47907 8.13712 1.63256 8.13712H1.68372L3.04651 8.00946C3.23721 7.99054 3.41395 7.90544 3.54884 7.76832L7.78605 3.46099L5.64651 1.28605H5.65116ZM10 9.64539C10 9.45154 9.84186 9.29078 9.65116 9.29078H0.348837C0.15814 9.29078 0 9.45154 0 9.64539C0 9.83924 0.15814 10 0.348837 10H9.65116C9.84186 10 10 9.83924 10 9.64539Z" fill="white"/>
</svg>
