<svg width="24" height="24" viewBox="0 0 24 24" fill="none" xmlns="http://www.w3.org/2000/svg">
<path d="M20.04 6.82189L14.28 2.79189C12.71 1.69189 10.3 1.75189 8.79 2.92189L3.78 6.83189C2.78 7.61189 1.99 9.21189 1.99 10.4719V17.3719C1.99 19.9219 4.06 22.0019 6.61 22.0019H17.39C19.94 22.0019 22.01 19.9319 22.01 17.3819V10.6019C22.01 9.25189 21.14 7.59189 20.04 6.82189ZM12.75 18.0019C12.75 18.4119 12.41 18.7519 12 18.7519C11.59 18.7519 11.25 18.4119 11.25 18.0019V15.0019C11.25 14.5919 11.59 14.2519 12 14.2519C12.41 14.2519 12.75 14.5919 12.75 15.0019V18.0019Z" fill="white"/>
</svg>
