<svg width="10" height="13" viewBox="0 0 10 13" fill="none" xmlns="http://www.w3.org/2000/svg">
<path d="M6.65198 0.0732422C6.68406 0.0732422 6.71949 0.0807516 6.75061 0.0927734C6.78177 0.104813 6.81489 0.12368 6.84143 0.149414L9.14514 2.38379C9.19537 2.43253 9.22512 2.50917 9.22522 2.57031V11.3984C9.22522 11.8556 8.84224 12.2236 8.37659 12.2236H0.923462C0.457813 12.2236 0.0748291 11.8556 0.0748291 11.3984V0.898438C0.0748291 0.441322 0.457813 0.0732422 0.923462 0.0732422H6.65198ZM0.923462 0.598633C0.749447 0.598633 0.611938 0.735189 0.611938 0.898438V11.3984C0.611948 11.5617 0.749453 11.6982 0.923462 11.6982H8.37659C8.5506 11.6982 8.68813 11.5617 8.68811 11.3984V2.83301H7.23206C6.76658 2.8328 6.3844 2.4648 6.3844 2.00781V0.598633H3.2887V2.47363C3.2887 2.69871 3.02357 2.81339 2.85217 2.67773L2.41174 2.3291L1.97229 2.67773C1.80049 2.81365 1.53577 2.69822 1.53577 2.47363V0.598633H0.923462ZM5.10803 10.2363C5.25379 10.2366 5.37551 10.3521 5.37561 10.499C5.37561 10.646 5.25385 10.7615 5.10803 10.7617H1.49573C1.34972 10.7617 1.22717 10.6461 1.22717 10.499C1.22727 10.352 1.34977 10.2363 1.49573 10.2363H5.10803ZM7.80432 9.28418C7.95033 9.28418 8.07287 9.39976 8.07288 9.54688C8.07288 9.694 7.95033 9.80957 7.80432 9.80957H1.49573C1.34972 9.80957 1.22717 9.694 1.22717 9.54688C1.22718 9.39976 1.34972 9.28418 1.49573 9.28418H7.80432ZM5.10803 7.42578C5.25372 7.42601 5.37539 7.54071 5.37561 7.6875C5.37561 7.83447 5.25385 7.94996 5.10803 7.9502H1.49573C1.34972 7.9502 1.22717 7.83462 1.22717 7.6875C1.22739 7.54057 1.34985 7.42578 1.49573 7.42578H5.10803ZM7.80432 6.47266C7.95024 6.47266 8.07271 6.58837 8.07288 6.73535C8.07288 6.88247 7.95033 6.99805 7.80432 6.99805H1.49573C1.34972 6.99805 1.22717 6.88247 1.22717 6.73535C1.22734 6.58837 1.34981 6.47266 1.49573 6.47266H7.80432ZM5.10803 4.61426C5.25385 4.61449 5.37561 4.72998 5.37561 4.87695C5.37545 5.02378 5.25375 5.13844 5.10803 5.13867H1.49573C1.34981 5.13867 1.22734 5.02393 1.22717 4.87695C1.22717 4.72983 1.34972 4.61426 1.49573 4.61426H5.10803ZM7.80432 3.66211C7.95033 3.66211 8.07288 3.77768 8.07288 3.9248C8.07262 4.0717 7.95018 4.18652 7.80432 4.18652H1.49573C1.34987 4.18652 1.22743 4.0717 1.22717 3.9248C1.22717 3.77768 1.34972 3.66211 1.49573 3.66211H7.80432ZM6.92053 2.00781C6.92053 2.17093 7.05824 2.30838 7.23206 2.30859H8.30627L6.92053 0.964844V2.00781ZM2.0719 1.92383L2.24377 1.78809C2.34252 1.71009 2.48294 1.71088 2.58069 1.78809L2.75256 1.92383V0.598633H2.0719V1.92383Z" fill="white" stroke="white" stroke-width="0.15"/>
</svg>
