<svg width="14" height="14" viewBox="0 0 14 14" fill="none" xmlns="http://www.w3.org/2000/svg">
<path d="M7.00016 0.332031C3.32683 0.332031 0.333496 3.32536 0.333496 6.9987C0.333496 10.672 3.32683 13.6654 7.00016 13.6654C10.6735 13.6654 13.6668 10.672 13.6668 6.9987C13.6668 3.32536 10.6735 0.332031 7.00016 0.332031ZM10.1868 5.46536L6.40683 9.24537C6.31308 9.339 6.186 9.39159 6.0535 9.39159C5.921 9.39159 5.79391 9.339 5.70016 9.24537L3.8135 7.3587C3.72051 7.26461 3.66836 7.13765 3.66836 7.00536C3.66836 6.87308 3.72051 6.74612 3.8135 6.65203C4.00683 6.4587 4.32683 6.4587 4.52016 6.65203L6.0535 8.18536L9.48016 4.7587C9.6735 4.56537 9.9935 4.56537 10.1868 4.7587C10.3802 4.95203 10.3802 5.26536 10.1868 5.46536Z" fill="#34C759"/>
</svg>
