<svg width="17" height="17" viewBox="0 0 17 17" fill="none" xmlns="http://www.w3.org/2000/svg">
<g clip-path="url(#clip0_1346_4234)">
<path d="M9.03786 7.23734C10.1847 8.34003 11.628 5.43614 12.7748 5.26359C13.2983 5.1783 14.3353 5.78305 15.169 4.94152C15.7326 4.35535 15.7139 3.40553 15.1277 2.84193C14.72 2.44986 14.1426 2.33617 13.6207 2.49645C13.7608 1.9936 13.6491 1.39568 13.2163 1.0041C12.6301 0.4405 11.6803 0.459151 11.1167 1.04533C10.3081 1.88637 10.9285 2.92439 10.8889 3.45027C10.761 4.57799 7.89099 6.13464 9.03786 7.23734Z" fill="#DDDDDD"/>
<path opacity="0.15" d="M10.357 4.38729L10.1125 4.66714L9.67045 6.35115L11.5657 6.08889L11.8597 5.78306L11.1314 5.62232C11.57 5.0386 11.8602 4.53281 11.8602 4.53281C11.8602 4.53281 11.0348 4.52401 10.4624 4.66027L10.357 4.38729Z" fill="black"/>
<path opacity="0.4" d="M13.1488 1.38062C13.3135 2.12753 13.0278 2.85828 12.4863 3.294L12.5363 3.29302C13.1587 3.15577 13.5463 2.52304 13.4086 1.87562C13.3542 1.65164 13.2508 1.47864 13.1224 1.30613C13.1229 1.33112 13.1234 1.35612 13.1488 1.38062ZM15.1172 3.5674C15.2279 4.11533 15.0378 4.61916 14.6442 4.95195L14.6692 4.95146C15.1177 4.86764 15.4083 4.38684 15.2995 3.93889C15.271 3.76442 15.1931 3.61592 15.0912 3.5179C15.0912 3.5179 15.0917 3.5429 15.1172 3.5674Z" fill="white"/>
<path d="M2.51496 7.41542C-2.50844 12.64 4.09243 18.9867 9.11583 13.7621C11.1252 11.6722 10.7012 9.18004 11.0628 7.22257C11.199 6.51976 11.7891 6.00807 11.7891 6.00807C11.7891 6.00807 11.3613 5.86645 10.8844 5.77579C11.2745 5.26803 11.5411 4.83772 11.5411 4.83772C11.5411 4.83772 10.9402 4.79951 10.3178 4.93675C10.2369 4.63828 10.158 4.43979 10.158 4.43979C10.158 4.43979 9.64538 5.07498 8.97297 5.21321C7.0312 5.65141 4.54882 5.30008 2.51496 7.41542Z" fill="#A8693F"/>
<path d="M6.11966 11.5654L5.85966 11.8355L5.58951 11.5758L5.84925 11.3054L6.11966 11.5654ZM5.07157 12.8064L4.81183 13.0766L4.54167 12.8166L4.80142 12.5464L5.07157 12.8064ZM7.13294 10.4107L6.8732 10.6811L6.6028 10.4214L6.86254 10.151L7.13294 10.4107ZM8.3271 9.15931L8.06736 9.42971L7.79721 9.16997L8.05695 8.89957L8.3271 9.15931ZM7.9943 13.7315L7.7343 14.0016L7.46415 13.7419L7.7239 13.4717L7.9943 13.7315ZM9.05348 12.5335L8.79374 12.8039L8.52334 12.5441L8.78308 12.2737L9.05348 12.5335ZM9.84421 11.0601L9.58447 11.3308L9.31432 11.071L9.57406 10.8006L9.84421 11.0601ZM6.71196 14.6948L6.45222 14.965L6.18182 14.7052L6.44156 14.4348L6.71196 14.6948ZM7.60798 12.089L7.34798 12.3592L7.07783 12.0994L7.33757 11.829L7.60798 12.089ZM6.27662 13.4339L5.91273 13.8121L5.53451 13.4482L5.8984 13.0697L6.27662 13.4339ZM9.89192 9.4659L9.63217 9.73605L9.36202 9.47606L9.62176 9.2059L9.89192 9.4659ZM8.6686 10.5824L8.30471 10.9606L7.92624 10.5967L8.29038 10.2182L8.6686 10.5824ZM4.96295 14.5969L4.70296 14.8671L4.4328 14.6071L4.6928 14.3369L4.96295 14.5969Z" fill="#C28D69"/>
</g>
<defs>
<clipPath id="clip0_1346_4234">
<rect width="16" height="16" fill="white" transform="translate(16.311 15.9969) rotate(178.875)"/>
</clipPath>
</defs>
</svg>
