<svg width="94" height="40" viewBox="0 0 94 40" fill="none" xmlns="http://www.w3.org/2000/svg">
<path d="M52.0316 5.84308H64.2753L65.2189 0.40296H52.7505C46.1011 0.40296 41.9688 3.26399 41.1008 8.18055C40.19 13.3387 43.11 15.5144 48.6142 16.5224L53.649 17.449C56.304 17.933 57.9348 18.7389 57.5864 20.7133C57.2661 22.5265 55.8623 23.1718 53.0819 23.1718H39.2105L36.2455 6.04436C35.4068 1.20927 32.5173 3.8147e-06 29.0516 3.8147e-06C25.5859 3.8147e-06 22.3907 1.20927 19.8441 6.04436L17.6454 10.2112L18.8883 20.4172L25.3146 7.69692C25.9386 6.44771 26.9577 5.92375 28.0056 5.92375C29.0536 5.92375 29.8875 6.44771 30.0702 7.69692L33.2994 28.6119H38.9547H40.1521H52.363C59.012 28.6119 63.1586 25.6702 64.0551 20.5923C64.9943 15.2736 62.3491 13.137 56.7315 12.0895L51.5424 11.1223C48.8878 10.6386 47.2428 9.91338 47.5698 8.05994C47.8545 6.44771 49.2508 5.84308 52.0316 5.84308Z" fill="white"/>
<path d="M16.2179 12.9241L17.4683 23.1918H28.2647L2.02309 39.8052L7.44502 29.5375L0 23.1918H10.796L16.2179 12.9241Z" fill="white"/>
<path d="M68.1427 0.403234L67.1822 5.84335H77.2276L73.2072 28.6118H79.4935L83.5144 5.84335H93.0391L94 0.403234H68.1427Z" fill="white"/>
</svg>
