<svg width="17" height="10" viewBox="0 0 17 10" fill="none" xmlns="http://www.w3.org/2000/svg">
<path d="M15.2155 0.541642C15.124 0.420783 14.9518 0.396885 14.8306 0.488628C14.7098 0.580097 14.6862 0.752597 14.7776 0.873181L15.1671 1.38738L13.8778 2.25098C13.3015 1.70904 12.1879 1.95899 11.3548 2.26417C9.94489 0.795447 5.42556 -1.24186 1.99205 0.988822C0.174492 2.16775 -0.0839827 3.60433 0.019572 4.60197C0.21954 6.53023 1.92915 8.43432 4.2741 9.34077C5.4989 9.81267 6.7075 10 7.81584 10C10.1276 10 11.9995 9.18365 12.656 8.4324C13.4935 7.46964 12.984 5.99323 12.7727 5.49139C13.188 5.04174 13.6094 4.51243 13.8404 4.10947C14.1544 3.56176 14.2587 3.09837 14.1599 2.72398L15.5003 1.82632L15.9126 2.37047C15.9664 2.44188 16.0486 2.47924 16.1318 2.47924C16.1895 2.47924 16.2477 2.46111 16.2974 2.42348C16.4183 2.33201 16.4419 2.15951 16.3504 2.03893L15.2163 0.541917L15.2155 0.541642ZM11.565 5.87924C11.465 5.92017 11.3947 6.0185 11.3947 6.13332C11.3947 6.28522 11.5177 6.408 11.6693 6.408C11.7866 6.408 12.0454 6.21243 12.3492 5.92346C12.5376 6.45525 12.7807 7.45179 12.2415 8.07147C11.3859 9.05043 7.96307 10.173 4.4716 8.82821C2.34832 8.00774 0.742257 6.24649 0.565912 4.54539C0.440108 3.33377 1.03699 2.26334 2.29146 1.44974C5.30525 -0.509287 9.36916 1.18137 10.7997 2.4894C10.5668 2.59323 10.3948 2.68086 10.3314 2.71437C10.1973 2.78523 10.146 2.95114 10.2168 3.08574C10.2877 3.2195 10.4539 3.27087 10.5879 3.20055C10.7934 3.09233 11.0623 2.96845 11.3556 2.85445C11.3603 2.85308 11.3647 2.85088 11.3691 2.84951C12.233 2.51522 13.302 2.26911 13.588 2.75612C14.0475 3.54033 11.9341 5.63615 11.5655 5.87951L11.565 5.87924Z" fill="white"/>
<path d="M6.37788 8.03548C2.95756 7.53666 1.74759 4.53248 1.73578 4.50226C1.68057 4.3608 1.52153 4.29103 1.38034 4.34597C1.23915 4.40091 1.16884 4.55967 1.2235 4.70086C1.27596 4.83683 2.55323 8.03274 6.2985 8.57908C6.31196 8.58127 6.32542 8.5821 6.3386 8.5821C6.47265 8.5821 6.59021 8.48376 6.60999 8.34725C6.63196 8.197 6.52786 8.05718 6.37788 8.03548Z" fill="white"/>
</svg>
