<svg width="19" height="14" viewBox="0 0 19 14" fill="none" xmlns="http://www.w3.org/2000/svg">
<path d="M17.2966 14H16.6972C16.1264 14 15.6983 13.5719 15.6983 13.001L15.6697 10.2039C15.6697 9.63303 16.0979 9.20489 16.6687 9.20489H17.2681C17.8389 9.20489 18.2671 9.63303 18.2671 10.2039L18.2956 13.001C18.2956 13.5719 17.8675 14 17.2966 14ZM16.6687 9.77574C16.4404 9.77574 16.2406 9.97554 16.2406 10.2039L16.2691 13.001C16.2691 13.2579 16.4689 13.4292 16.6972 13.4292H17.2966C17.525 13.4292 17.7248 13.2294 17.7248 13.001L17.6962 10.2039C17.6962 9.94699 17.4964 9.77574 17.2681 9.77574H16.6687Z" fill="white"/>
<path d="M16.526 9.60448C16.3547 9.60448 16.2406 9.49032 16.2406 9.31906V8.83384H15.6412C15.4699 8.83384 15.3558 8.71967 15.3558 8.54842C15.3558 8.37717 15.4699 8.263 15.6412 8.263H16.526C16.6972 8.263 16.8114 8.37717 16.8114 8.54842V9.31906C16.8114 9.49032 16.6972 9.60448 16.526 9.60448Z" fill="white"/>
<path d="M15.6412 7.83486H15.6126C15.4699 7.80632 15.3558 7.66361 15.3558 7.5209L15.9837 2.69725C16.1549 1.5841 16.7543 0.61366 17.6677 0.0428135C17.7533 -0.0142712 17.8675 -0.0142712 17.9531 0.0428135C18.0387 0.0998981 18.0958 0.185525 18.0958 0.299694L17.9531 7.57798C17.9531 7.72069 17.8104 7.8634 17.6677 7.8634C17.4964 7.8634 17.3823 7.72069 17.3823 7.57798L17.4108 6.49337L17.525 0.899083C17.0112 1.3843 16.6687 2.04077 16.5545 2.81142L15.9266 7.57798C15.8981 7.72069 15.7839 7.83486 15.6412 7.83486Z" fill="white"/>
<path d="M17.6391 9.77574C17.4679 9.77574 17.3537 9.63303 17.3537 9.49032L17.4108 7.54944C17.4108 7.40673 17.5535 7.26402 17.6962 7.26402C17.8675 7.26402 17.9817 7.40673 17.9817 7.54944L17.9246 9.49032C17.9246 9.66157 17.7819 9.77574 17.6391 9.77574Z" fill="white"/>
<path d="M15.4985 8.83384H15.4699C15.3272 8.8053 15.213 8.66259 15.2416 8.51988L15.3843 7.5209C15.4128 7.37819 15.5556 7.26402 15.6983 7.29256C15.841 7.3211 15.9551 7.46381 15.9266 7.60652L15.7839 8.6055C15.7554 8.71967 15.6412 8.83384 15.4985 8.83384Z" fill="white"/>
<path d="M1.91233 13.5719H1.34149C0.770642 13.5719 0.342508 13.1437 0.342508 12.5729V9.86137C0.342508 9.29052 0.770642 8.86238 1.34149 8.86238H1.91233C2.48318 8.86238 2.91131 9.29052 2.91131 9.86137V12.5729C2.88277 13.1437 2.4261 13.5719 1.91233 13.5719ZM1.34149 9.43323C1.11315 9.43323 0.913354 9.63303 0.913354 9.86137V12.5729C0.913354 12.8012 1.11315 13.001 1.34149 13.001H1.91233C2.14067 13.001 2.31193 12.8012 2.34047 12.5443V9.86137C2.34047 9.63303 2.14067 9.43323 1.91233 9.43323H1.34149Z" fill="white"/>
<path d="M2.19776 8.32008C2.0265 8.32008 1.91233 8.20591 1.91233 8.03466V5.15189C1.91233 4.98063 2.0265 4.86646 2.19776 4.86646C2.36901 4.86646 2.48318 4.98063 2.48318 5.15189V8.03466C2.48318 8.20591 2.36901 8.32008 2.19776 8.32008Z" fill="white"/>
<path d="M2.16921 9.43323C1.99796 9.43323 1.88379 9.29052 1.88379 9.14781L1.91233 8.03466C1.91233 7.8634 2.05505 7.74923 2.19776 7.74923C2.36901 7.74923 2.48318 7.89195 2.48318 8.03466L2.45464 9.14781C2.45464 9.31906 2.31193 9.43323 2.16921 9.43323Z" fill="white"/>
<path d="M1.11315 8.17737C0.941896 8.17737 0.827727 8.0632 0.827727 7.89195V5.12334C0.827727 4.95209 0.941896 4.83792 1.11315 4.83792C1.2844 4.83792 1.39857 4.95209 1.39857 5.12334V7.89195C1.39857 8.0632 1.2844 8.17737 1.11315 8.17737Z" fill="white"/>
<path d="M1.11315 9.43323C0.941896 9.43323 0.827727 9.31906 0.827727 9.14781V7.89195C0.827727 7.72069 0.941896 7.60652 1.11315 7.60652C1.2844 7.60652 1.39857 7.72069 1.39857 7.89195V9.14781C1.39857 9.31906 1.2844 9.43323 1.11315 9.43323Z" fill="white"/>
<path d="M1.62691 5.43731C0.713558 5.43731 0 4.72375 0 3.78186L0.0570846 0.585117C0.0570846 0.413863 0.171254 0.299694 0.342508 0.299694C0.513762 0.299694 0.627931 0.442406 0.627931 0.585117L0.570846 3.78186C0.570846 4.38124 1.02752 4.86646 1.62691 4.86646C2.2263 4.86646 2.71152 4.40979 2.71152 3.8104L2.74006 0.61366C2.74006 0.470948 2.88277 0.328237 3.02548 0.328237C3.19674 0.328237 3.31091 0.470948 3.31091 0.61366L3.28236 3.8104C3.28236 4.72375 2.56881 5.43731 1.62691 5.43731Z" fill="white"/>
<path d="M1.19878 4.52395C1.02752 4.52395 0.913354 4.40979 0.913354 4.23853V0.585117C0.913354 0.413863 1.02752 0.299694 1.19878 0.299694C1.37003 0.299694 1.4842 0.413863 1.4842 0.585117V4.23853C1.4842 4.40979 1.37003 4.52395 1.19878 4.52395Z" fill="white"/>
<path d="M2.14067 4.52395C1.96942 4.52395 1.85525 4.38124 1.85525 4.23853L1.88379 0.585117C1.88379 0.442406 2.0265 0.299694 2.16921 0.299694C2.34047 0.299694 2.45464 0.442406 2.45464 0.585117L2.4261 4.23853C2.4261 4.40979 2.28338 4.52395 2.14067 4.52395Z" fill="white"/>
<path d="M9.10499 12.5443C6.02243 12.5443 3.5107 10.0326 3.5107 6.95005C3.5107 3.86748 6.02243 1.35576 9.10499 1.35576C12.1876 1.35576 14.6993 3.86748 14.6993 6.95005C14.6993 10.0326 12.1876 12.5443 9.10499 12.5443ZM9.10499 1.92661C6.33639 1.92661 4.08155 4.18145 4.08155 6.95005C4.08155 9.71865 6.33639 11.9735 9.10499 11.9735C11.8736 11.9735 14.1284 9.71865 14.1284 6.95005C14.1284 4.18145 11.8736 1.92661 9.10499 1.92661Z" fill="white"/>
<path d="M9.10499 11.1172C6.79307 11.1172 4.93782 9.26198 4.93782 6.95005C4.93782 4.63812 6.79307 2.78287 9.10499 2.78287C11.4169 2.78287 13.2722 4.63812 13.2722 6.95005C13.2722 9.26198 11.4169 11.1172 9.10499 11.1172ZM9.10499 3.35372C7.13558 3.35372 5.50867 4.98063 5.50867 6.95005C5.50867 8.91947 7.13558 10.5464 9.10499 10.5464C11.0744 10.5464 12.7013 8.91947 12.7013 6.95005C12.7013 4.98063 11.0744 3.35372 9.10499 3.35372Z" fill="white"/>
<path d="M6.45056 7.23547C6.27931 7.23547 6.16514 7.1213 6.16514 6.95005C6.16514 5.32314 7.50663 3.98165 9.13354 3.98165C9.30479 3.98165 9.41896 4.09582 9.41896 4.26707C9.41896 4.43833 9.30479 4.5525 9.13354 4.5525C7.82059 4.5525 6.73598 5.6371 6.73598 6.95005C6.73598 7.1213 6.62181 7.23547 6.45056 7.23547Z" fill="white"/>
</svg>
