<svg width="16" height="18" viewBox="0 0 16 18" fill="none" xmlns="http://www.w3.org/2000/svg">
<g clip-path="url(#clip0_801_5673)">
<path d="M13.5728 1.40103C12.7019 0.454418 11.1276 0.048584 9.11371 0.048584H3.26871C3.06944 0.0485547 2.87669 0.116335 2.72515 0.239733C2.57361 0.363131 2.47321 0.534046 2.44202 0.721736L0.00826875 15.4416C-0.0401063 15.7319 0.195581 15.9947 0.504081 15.9947H4.11258L5.01883 10.513L4.99071 10.6847C5.05527 10.2972 5.40277 10.0114 5.81427 10.0114H7.52902C10.8976 10.0114 13.5353 8.70658 14.3058 4.93201C14.3287 4.82037 14.3485 4.71172 14.3656 4.60556C14.2684 4.55645 14.2684 4.55645 14.3656 4.60556C14.5951 3.21044 14.3641 2.2608 13.5728 1.40103Z" fill="#27346A"/>
<path d="M6.39958 4.10299C6.49821 4.05813 6.60612 4.03491 6.71539 4.03505H11.2978C11.8404 4.03505 12.3465 4.06872 12.809 4.13971C12.9384 4.1594 13.0672 4.1829 13.1951 4.21016C13.3764 4.24831 13.5555 4.295 13.732 4.35005C13.9593 4.42246 14.1711 4.5068 14.3657 4.60556C14.5951 3.20991 14.3641 2.2608 13.5728 1.40103C12.7014 0.454418 11.1276 0.048584 9.11371 0.048584H3.26821C2.85664 0.048584 2.50652 0.334319 2.44202 0.721736L0.00826909 15.4411C-0.0401059 15.7318 0.195582 15.9943 0.503582 15.9943H4.11258L5.99277 4.62392C6.01127 4.51217 6.05796 4.40637 6.12883 4.31563C6.19969 4.22488 6.29261 4.15192 6.39958 4.10299Z" fill="#27346A"/>
<path d="M14.3054 4.93203C13.5349 8.70607 10.8973 10.0114 7.52859 10.0114H5.81334C5.40184 10.0114 5.05428 10.2972 4.99034 10.6847L3.8629 17.5006C3.82078 17.7546 4.02678 17.9848 4.29628 17.9848H7.33815C7.5124 17.9847 7.68092 17.9254 7.81339 17.8175C7.94587 17.7095 8.03361 17.56 8.06084 17.3959L8.09047 17.2481L8.66378 13.783L8.70072 13.5915C8.72795 13.4274 8.81568 13.2779 8.94814 13.17C9.0806 13.062 9.2491 13.0027 9.42334 13.0027H9.87859C12.8253 13.0027 15.1326 11.861 15.8068 8.55927C16.0883 7.17947 15.9427 6.02747 15.1982 5.21831C14.9723 4.97322 14.6919 4.77081 14.3652 4.60559C14.3475 4.71228 14.3283 4.8204 14.3054 4.93203Z" fill="#2790C3"/>
<path d="M13.5593 4.29902C13.4391 4.26556 13.3179 4.23594 13.1956 4.21021C13.0677 4.18338 12.9389 4.16005 12.8096 4.14023C12.3466 4.06877 11.8408 4.03504 11.2977 4.03504H6.7159C6.60656 4.03486 6.49859 4.05827 6.40009 4.10352C6.29297 4.15226 6.19993 4.22518 6.12903 4.31595C6.05814 4.40673 6.01151 4.51261 5.99321 4.62445L5.01934 10.5131L4.99121 10.6847C5.05527 10.2972 5.40277 10.0115 5.81434 10.0115H7.52959C10.8982 10.0115 13.5358 8.70663 14.3063 4.93206C14.3293 4.82042 14.3485 4.71224 14.3662 4.60561C14.1711 4.50747 13.9599 4.42245 13.7325 4.35057C13.6751 4.33243 13.6174 4.31524 13.5593 4.29902" fill="#1F264F"/>
</g>
<defs>
<clipPath id="clip0_801_5673">
<rect width="16" height="18" fill="white"/>
</clipPath>
</defs>
</svg>
