<svg width="18" height="20" viewBox="0 0 18 20" fill="none" xmlns="http://www.w3.org/2000/svg">
<path d="M16.924 7.154H16.41L16.437 5.264C16.4341 5.15347 16.3915 5.04768 16.317 4.966L11.901 0.134C11.8653 0.0937799 11.8218 0.0611823 11.7732 0.0381578C11.7245 0.0151333 11.6718 0.00215516 11.618 0H2.37801C2.17084 0.00332606 1.97304 0.0869012 1.82625 0.233132C1.67946 0.379363 1.59513 0.576843 1.59101 0.784V7.154H1.07601C0.791012 7.154 0.516012 7.272 0.316012 7.482C0.111951 7.69543 -0.00133268 7.97972 1.18325e-05 8.275V14.105C1.18325e-05 14.723 0.482012 15.225 1.07601 15.225H1.59101V19.215C1.59489 19.4227 1.67938 19.6207 1.82663 19.7672C1.97387 19.9137 2.17232 19.9972 2.38001 20H15.658C16.073 20 16.438 19.648 16.438 19.216V15.226H16.925C17.519 15.226 18.001 14.723 18.001 14.104V8.274C18.001 7.978 17.888 7.692 17.686 7.482C17.5882 7.37868 17.4703 7.29633 17.3397 7.23995C17.209 7.18356 17.0683 7.15432 16.926 7.154M2.95001 1.378H9.90601V5.955C9.90563 6.05806 9.94503 6.15728 10.016 6.232C10.0504 6.2682 10.0919 6.29706 10.1377 6.31682C10.1836 6.33659 10.233 6.34685 10.283 6.347H15.042V7.154H2.95001V1.378ZM2.95001 18.622V15.225H15.042V18.622H2.95001ZM11.291 1.52L11.676 1.954L14.256 4.807L14.399 4.98H11.762C11.562 4.98 11.436 4.94667 11.384 4.88C11.3307 4.81467 11.2997 4.71033 11.291 4.567V1.52ZM2.00001 14.232V8.232H3.91801C4.64468 8.232 5.11801 8.262 5.33801 8.322C5.67801 8.412 5.96235 8.608 6.19101 8.91C6.41968 9.21067 6.53401 9.6 6.53401 10.078C6.53401 10.446 6.46801 10.756 6.33601 11.008C6.20401 11.258 6.03635 11.4547 5.83301 11.598C5.64773 11.7339 5.43682 11.8309 5.21301 11.883C4.92768 11.9403 4.51468 11.969 3.97401 11.969H3.19501V14.232H2.00001ZM3.19501 9.247V10.95H3.84901C4.32035 10.95 4.63535 10.9187 4.79401 10.856C4.94735 10.7975 5.07866 10.6927 5.16969 10.5561C5.26073 10.4196 5.30698 10.258 5.30201 10.094C5.30941 9.89643 5.2415 9.70341 5.11201 9.554C4.98731 9.41284 4.81781 9.31891 4.63201 9.288C4.49001 9.26133 4.20335 9.248 3.77201 9.248L3.19501 9.247ZM7.23501 8.232H9.41901C9.91168 8.232 10.2873 8.27033 10.546 8.347C10.8927 8.45033 11.19 8.63433 11.438 8.899C11.6853 9.16433 11.8737 9.48833 12.003 9.871C12.133 10.255 12.1977 10.7277 12.197 11.289C12.197 11.783 12.1363 12.2087 12.015 12.566C11.8663 13.0027 11.655 13.356 11.381 13.626C11.1743 13.8313 10.8943 13.9913 10.541 14.106C10.2777 14.19 9.92535 14.232 9.48401 14.232H7.23501V8.232ZM8.43001 9.247V13.221H9.32201C9.65601 13.221 9.89701 13.202 10.045 13.164C10.239 13.1147 10.3997 13.0313 10.527 12.914C10.6557 12.7967 10.76 12.6037 10.84 12.335C10.9207 12.0663 10.961 11.7 10.961 11.236C10.961 10.772 10.921 10.416 10.841 10.168C10.7766 9.94956 10.6599 9.75013 10.501 9.587C10.3467 9.44286 10.1552 9.34482 9.94801 9.304C9.78134 9.266 9.45468 9.247 8.96801 9.247H8.43001ZM12.943 14.232V8.232H17V9.247H14.138V10.667H16.608V11.682H14.138V14.232H12.943Z" fill="white"/>
</svg>
