<svg width="46" height="46" viewBox="0 0 46 46" fill="none" xmlns="http://www.w3.org/2000/svg">
<rect x="3" y="3" width="40" height="40" rx="20" fill="#252525"/>
<path d="M23 16.334C21.2533 16.334 19.8333 17.754 19.8333 19.5007C19.8333 21.214 21.1733 22.6007 22.92 22.6607C22.9733 22.654 23.0266 22.654 23.0666 22.6607H23.1133C23.9329 22.6333 24.7097 22.2883 25.2795 21.6986C25.8493 21.1089 26.1674 20.3207 26.1666 19.5007C26.1666 17.754 24.7466 16.334 23 16.334ZM26.3866 24.4333C24.5266 23.1933 21.4933 23.1933 19.62 24.4333C18.7733 25 18.3066 25.7667 18.3066 26.5867C18.3066 27.4067 18.7733 28.1667 19.6133 28.7267C20.5466 29.3533 21.7733 29.6667 23 29.6667C24.2266 29.6667 25.4533 29.3533 26.3866 28.7267C27.2266 28.16 27.6933 27.4 27.6933 26.5733C27.6866 25.7533 27.2266 24.9933 26.3866 24.4333Z" fill="white"/>
<circle cx="23" cy="23" r="22.5" stroke="#252525"/>
</svg>
