<svg width="12" height="12" viewBox="0 0 12 12" fill="none" xmlns="http://www.w3.org/2000/svg">
<path d="M11.5304 5.99991C11.8153 5.78595 11.9999 5.44538 11.9999 5.06246V1.17187C11.9999 0.525699 11.4742 0 10.828 0H6.93745C6.5545 0 6.21394 0.184639 5.99995 0.469567C5.78597 0.184663 5.4454 0 5.06246 0H1.17187C0.525699 0 0 0.525699 0 1.17187V5.06246C0 5.4454 0.184639 5.78597 0.469567 5.99995C0.184639 6.21394 0 6.55453 0 6.93745V10.828C0 11.4742 0.525699 11.9999 1.17187 11.9999H5.06246C5.44543 11.9999 5.78604 11.8152 6 11.5303C6.21398 11.8152 6.55457 11.9999 6.93754 11.9999H10.8281C11.4743 11.9999 12 11.4742 12 10.828V6.93745C12 6.5545 11.8153 6.21389 11.5304 5.99991ZM6.93745 0.468746H10.828C11.2157 0.468746 11.5312 0.784166 11.5312 1.17187V5.06246C11.5312 5.45016 11.2157 5.76558 10.828 5.76558H6.93745C6.54975 5.76558 6.23433 5.45016 6.23433 5.06246V1.17187C6.23433 0.784166 6.54975 0.468746 6.93745 0.468746ZM6 6.23522C5.93311 6.14613 5.85384 6.06687 5.76476 5.99995C5.85382 5.93306 5.93306 5.85382 5.99995 5.76476C6.06684 5.85384 6.14611 5.93311 6.23519 6C6.14613 6.06689 6.06689 6.14615 6 6.23522ZM0.468746 5.06246V1.17187C0.468746 0.784166 0.784166 0.468746 1.17187 0.468746H5.06246C5.45016 0.468746 5.76558 0.784166 5.76558 1.17187V5.06246C5.76558 5.45016 5.45016 5.76558 5.06246 5.76558H1.17187C0.784166 5.76558 0.468746 5.45016 0.468746 5.06246ZM5.76558 10.828C5.76558 11.2157 5.45016 11.5312 5.06246 11.5312H1.17187C0.784166 11.5312 0.468746 11.2157 0.468746 10.828V6.93745C0.468746 6.54975 0.784166 6.23433 1.17187 6.23433H5.06246C5.45016 6.23433 5.76558 6.54975 5.76558 6.93745V10.828ZM11.5313 10.828C11.5313 11.2157 11.2159 11.5312 10.8282 11.5312H6.93756C6.54986 11.5312 6.23444 11.2157 6.23444 10.828V6.93745C6.23444 6.54975 6.54986 6.23433 6.93756 6.23433H10.8282C11.2159 6.23433 11.5313 6.54975 11.5313 6.93745V10.828Z" fill="white"/>
<path d="M3.11717 7.71238C2.98772 7.71238 2.88279 7.81733 2.88279 7.94675V9.82176C2.88279 9.95118 2.98772 10.0561 3.11717 10.0561C3.24661 10.0561 3.35154 9.95118 3.35154 9.82176V7.94675C3.35154 7.81731 3.24661 7.71238 3.11717 7.71238Z" fill="white"/>
<path d="M8.43697 4.15182C8.57757 4.24168 8.7362 4.28734 8.90849 4.28758H8.90982C9.0582 4.28758 9.19752 4.2553 9.32394 4.19165C9.72259 3.99093 9.80628 3.6868 9.80628 3.46705V2.1782C9.80628 2.04877 9.70135 1.94382 9.57191 1.94382C9.44246 1.94382 9.33753 2.04877 9.33753 2.1782V3.46705C9.33753 3.55689 9.31203 3.67281 9.11312 3.77298C9.05188 3.80382 8.98536 3.81882 8.90984 3.81882C8.90959 3.81882 8.90935 3.81882 8.90909 3.81882C8.82634 3.81871 8.75445 3.79846 8.68937 3.75683C8.53503 3.65823 8.50341 3.57022 8.50341 3.46839V2.1782C8.50341 2.04877 8.39848 1.94382 8.26904 1.94382C8.13959 1.94382 8.03466 2.04877 8.03466 2.1782V3.46841C8.03466 3.75135 8.17004 3.98132 8.43697 4.15182Z" fill="white"/>
<path d="M4.21541 3.75245C4.33466 3.56896 4.40427 3.35038 4.40427 3.1157C4.40427 2.46952 3.87857 1.94382 3.23239 1.94382C2.58622 1.94382 2.06052 2.46952 2.06052 3.1157C2.06052 3.76187 2.58622 4.28758 3.23239 4.28758C3.47474 4.28758 3.70011 4.21363 3.88719 4.08714L4.01141 4.21136C4.05718 4.25711 4.11716 4.28 4.17714 4.28C4.23711 4.28 4.29711 4.25711 4.34286 4.21136C4.43439 4.11983 4.43439 3.97143 4.34286 3.87988L4.21541 3.75245ZM3.23239 3.81882C2.84469 3.81882 2.52927 3.5034 2.52927 3.1157C2.52927 2.72799 2.84469 2.41257 3.23239 2.41257C3.6201 2.41257 3.93552 2.72799 3.93552 3.1157C3.93552 3.22016 3.91246 3.31925 3.87142 3.40846L3.743 3.28004C3.65148 3.18854 3.50307 3.18854 3.41155 3.28004C3.32003 3.37157 3.32003 3.51997 3.41155 3.61152L3.54519 3.74514C3.45092 3.7922 3.34473 3.81882 3.23239 3.81882Z" fill="white"/>
<path d="M9.50828 9.58738H8.68988L9.67553 8.0747C9.72247 8.00265 9.7262 7.91068 9.68523 7.83507C9.64424 7.75946 9.56516 7.71238 9.47917 7.71238H8.2959C8.16645 7.71238 8.06152 7.81733 8.06152 7.94675C8.06152 8.07617 8.16645 8.18113 8.2959 8.18113H9.04672L8.06108 9.69381C8.01413 9.76586 8.01041 9.85783 8.05137 9.93344C8.09237 10.009 8.17144 10.0561 8.25744 10.0561H9.50828C9.63772 10.0561 9.74265 9.95118 9.74265 9.82176C9.74265 9.69233 9.63772 9.58738 9.50828 9.58738Z" fill="white"/>
</svg>
