<svg width="14" height="14" viewBox="0 0 14 14" fill="none" xmlns="http://www.w3.org/2000/svg">
<path d="M13.5898 5.74219H13.1379C13.0543 5.3358 12.8483 4.96251 12.5465 4.67348C12.7018 4.1402 12.6363 3.56262 12.3554 3.07617C12.0746 2.58973 11.6071 2.24421 11.0677 2.11203C10.9354 1.57259 10.5899 1.10512 10.1035 0.82425C9.6171 0.54343 9.03949 0.477914 8.5062 0.633172C8.12205 0.232094 7.58907 0 7.02734 0C6.45682 0 5.88716 0.241828 5.49743 0.634238C4.96316 0.477641 4.38397 0.542801 3.89648 0.82425C3.41004 1.1051 3.06452 1.57259 2.93232 2.112C2.39288 2.24418 1.92541 2.5897 1.64456 3.07614C1.36371 3.56256 1.29823 4.14017 1.45348 4.67346C1.15172 4.96251 0.945711 5.3358 0.862148 5.74219H0.410156C0.183641 5.74219 0 5.92583 0 6.15234C0 8.56021 1.24827 10.7932 3.28125 12.0657V12.7695C3.28125 13.448 3.83324 14 4.51172 14H9.48828C10.1668 14 10.7188 13.448 10.7188 12.7695V12.0657C12.7517 10.7932 14 8.56021 14 6.15234C14 5.92583 13.8164 5.74219 13.5898 5.74219ZM2.17372 5.14114C2.33871 5.02693 2.39682 4.81009 2.31107 4.62864C2.13754 4.26152 2.15395 3.8345 2.35498 3.48633C2.55601 3.13813 2.91763 2.91039 3.32227 2.87711C3.52226 2.86068 3.68099 2.70195 3.69745 2.50195C3.73073 2.09729 3.95845 1.7357 4.30664 1.53464C4.65481 1.33361 5.08186 1.31723 5.44895 1.49073C5.63038 1.5765 5.84722 1.51837 5.96143 1.35338C6.1822 1.03455 6.61054 0.820312 7.02734 0.820312C7.42943 0.820312 7.80743 1.01959 8.03854 1.35341C8.15278 1.5184 8.36962 1.57653 8.55105 1.49075C8.91814 1.31723 9.34514 1.33364 9.69333 1.53467C10.0415 1.7357 10.2693 2.09729 10.3025 2.50195C10.319 2.70195 10.4777 2.86068 10.6777 2.87714C11.0823 2.91041 11.444 3.13816 11.645 3.48636C11.8461 3.83452 11.8624 4.26155 11.6889 4.62867C11.6032 4.81009 11.6613 5.02696 11.8263 5.14117C12.0425 5.29091 12.2019 5.50252 12.2876 5.74222H1.71238C1.7981 5.50249 1.9574 5.29088 2.17372 5.14114ZM9.89844 12.7695C9.89844 12.9957 9.71444 13.1797 9.48828 13.1797H4.51172C4.28556 13.1797 4.10156 12.9957 4.10156 12.7695V12.3047H9.89844V12.7695ZM10.0925 11.4844H3.90748C2.11996 10.4528 0.970621 8.59616 0.834039 6.55703H13.166C13.0294 8.59616 11.88 10.4528 10.0925 11.4844Z" fill="white"/>
<path d="M8.66797 4.10156C8.89449 4.10156 9.07812 3.91793 9.07812 3.69141C9.07812 3.46488 8.89449 3.28125 8.66797 3.28125C8.44145 3.28125 8.25781 3.46488 8.25781 3.69141C8.25781 3.91793 8.44145 4.10156 8.66797 4.10156Z" fill="white"/>
<path d="M10.3086 4.92188C10.5351 4.92188 10.7188 4.73824 10.7188 4.51172C10.7188 4.2852 10.5351 4.10156 10.3086 4.10156C10.0821 4.10156 9.89844 4.2852 9.89844 4.51172C9.89844 4.73824 10.0821 4.92188 10.3086 4.92188Z" fill="white"/>
<path d="M3.69141 4.10156C3.91793 4.10156 4.10156 3.91793 4.10156 3.69141C4.10156 3.46488 3.91793 3.28125 3.69141 3.28125C3.46488 3.28125 3.28125 3.46488 3.28125 3.69141C3.28125 3.91793 3.46488 4.10156 3.69141 4.10156Z" fill="white"/>
</svg>
