<?xml version="1.0" encoding="UTF-8"?>
<svg version="1.1" xmlns="http://www.w3.org/2000/svg" width="48" height="48">
<path d="M0 0 C1.22589844 -0.01417969 2.45179687 -0.02835937 3.71484375 -0.04296875 C9.24295447 0.33761297 11.36960101 2.38879482 15.0625 6.3125 C16.8487684 8.41548038 16.8487684 8.41548038 19.0625 8.1875 C20.73215451 8.50552943 22.39928518 8.83734951 24.0625 9.1875 C24.0625 12.1575 24.0625 15.1275 24.0625 18.1875 C23.0725 18.5175 22.0825 18.8475 21.0625 19.1875 C20.7325 25.1275 20.4025 31.0675 20.0625 37.1875 C18.4125 37.1875 16.7625 37.1875 15.0625 37.1875 C11.78476496 37.93900023 11.78476496 37.93900023 10.0625 41.1875 C2.54307019 43.15687447 -4.6410375 42.49804646 -11.9375 40.1875 C-13.30115283 39.22925747 -14.64544169 38.24028825 -15.9375 37.1875 C-16.9275 37.1875 -17.9175 37.1875 -18.9375 37.1875 C-19.05810791 36.29442139 -19.05810791 36.29442139 -19.18115234 35.38330078 C-19.54958984 32.69176239 -19.93087827 30.00219931 -20.3125 27.3125 C-20.43882813 26.37535156 -20.56515625 25.43820313 -20.6953125 24.47265625 C-20.88867188 23.12880859 -20.88867188 23.12880859 -21.0859375 21.7578125 C-21.20114746 20.93039551 -21.31635742 20.10297852 -21.43505859 19.25048828 C-21.79881764 16.97971615 -21.79881764 16.97971615 -23.9375 15.1875 C-23.5625 12.5625 -23.5625 12.5625 -22.9375 10.1875 C-22.15375 10.105 -21.37 10.0225 -20.5625 9.9375 C-19.69625 9.69 -18.83 9.4425 -17.9375 9.1875 C-17.25263275 7.86342331 -16.58879797 6.52840759 -15.9375 5.1875 C-10.45610864 1.10561282 -6.77036216 0.03552131 0 0 Z M19.0625 10.1875 C20.0625 12.1875 20.0625 12.1875 20.0625 12.1875 Z M16.0625 33.1875 C17.0625 36.1875 17.0625 36.1875 17.0625 36.1875 Z " fill="#86C47F" transform="translate(23.9375,2.8125)"/>
<path d="M0 0 C6.75 0.875 6.75 0.875 9 2 C9 5.3 9 8.6 9 12 C7.35 12.33 5.7 12.66 4 13 C3.34 10.69 2.68 8.38 2 6 C2 9.3 2 12.6 2 16 C6.95 16 11.9 16 17 16 C17 14.35 17 12.7 17 11 C18.5078125 12.10546875 18.5078125 12.10546875 20 14 C20.39742768 20.47115946 19.87953774 27.62833236 16 33 C15.01 33.33 14.02 33.66 13 34 C12.34 34.99 11.68 35.98 11 37 C3.61398124 38.93443348 -3.85925604 38.49926039 -11 36 C-16.73949017 30.71362748 -17.45149406 23.09807561 -18.03515625 15.6640625 C-17.98266797 11.68661759 -17.06374352 9.39043579 -15 6 C-14.01 5.67 -13.02 5.34 -12 5 C-12.30679687 5.70511719 -12.61359375 6.41023437 -12.9296875 7.13671875 C-14.01594498 10.04265573 -14.6097058 12.75754152 -15.125 15.8125 C-15.41375 17.524375 -15.7025 19.23625 -16 21 C-10.72 21 -5.44 21 0 21 C-0.4640625 18.586875 -0.4640625 18.586875 -0.9375 16.125 C-1.11152344 15.22007813 -1.28554688 14.31515625 -1.46484375 13.3828125 C-1.89963701 11.00043683 -1.89963701 11.00043683 -3 9 C-2.34 9 -1.68 9 -1 9 C-0.67 6.03 -0.34 3.06 0 0 Z " fill="#E5E2C0" transform="translate(23,7)"/>
<path d="M0 0 C0.92941406 -0.00515625 1.85882812 -0.0103125 2.81640625 -0.015625 C7.81280231 0.49071618 10.0957953 2.82443876 13.4375 6.375 C15.2237684 8.47798038 15.2237684 8.47798038 17.4375 8.25 C19.10715451 8.56802943 20.77428518 8.89984951 22.4375 9.25 C22.4375 12.22 22.4375 15.19 22.4375 18.25 C21.4475 18.58 20.4575 18.91 19.4375 19.25 C19.1075 25.19 18.7775 31.13 18.4375 37.25 C17.1175 36.92 15.7975 36.59 14.4375 36.25 C14.581875 35.36957031 14.72625 34.48914062 14.875 33.58203125 C15.060625 32.42058594 15.24625 31.25914063 15.4375 30.0625 C15.623125 28.91394531 15.80875 27.76539062 16 26.58203125 C16.37358948 23.73674706 16.6048778 21.11111427 16.4375 18.25 C16.1075 17.92 15.7775 17.59 15.4375 17.25 C15.1075 18.24 14.7775 19.23 14.4375 20.25 C9.4875 20.25 4.5375 20.25 -0.5625 20.25 C-0.5625 16.95 -0.5625 13.65 -0.5625 10.25 C0.0975 10.58 0.7575 10.91 1.4375 11.25 C1.4375 13.23 1.4375 15.21 1.4375 17.25 C2.7575 16.92 4.0775 16.59 5.4375 16.25 C5.7675 14.27 6.0975 12.29 6.4375 10.25 C5.1175 9.92 3.7975 9.59 2.4375 9.25 C3.7575 9.25 5.0775 9.25 6.4375 9.25 C6.4375 8.26 6.4375 7.27 6.4375 6.25 C-0.49419721 4.56958855 -5.27916768 4.82272783 -11.5625 8.25 C-12.5525 8.25 -13.5425 8.25 -14.5625 8.25 C-10.72743844 1.71619142 -7.51929515 -0.04183196 0 0 Z M17.4375 10.25 C18.4375 12.25 18.4375 12.25 18.4375 12.25 Z " fill="#D5D9D8" transform="translate(25.5625,2.75)"/>
<path d="M0 0 C4.95 0 9.9 0 15 0 C15.22786458 3.05989583 15.45572917 6.11979167 15.68359375 9.1796875 C15.83001703 11.94728971 15.83001703 11.94728971 17 14 C7.20465472 15.57823427 7.20465472 15.57823427 2.875 13.5 C-0.2870787 9.28389507 0 5.11301773 0 0 Z " fill="#D2D7D8" transform="translate(8,29)"/>
<path d="M0 0 C5.28 0 10.56 0 16 0 C15.00976564 6.93164051 14.76751958 8.43976388 10 13 C6.73478012 14.9047116 3.83285075 16 0 16 C0 10.72 0 5.44 0 0 Z " fill="#F4A857" transform="translate(24,25)"/>
<path d="M0 0 C4.22174141 1.50776479 5.88717524 4.15164062 8 8 C8 9.65 8 11.3 8 13 C3.05 13 -1.9 13 -7 13 C-7 9.7 -7 6.4 -7 3 C-6.01 3.495 -6.01 3.495 -5 4 C-5 5.98 -5 7.96 -5 10 C-3.68 9.67 -2.36 9.34 -1 9 C-0.67 7.02 -0.34 5.04 0 3 C-1.32 2.67 -2.64 2.34 -4 2 C-2.68 2 -1.36 2 0 2 C0 1.34 0 0.68 0 0 Z " fill="#E0C58C" transform="translate(32,10)"/>
<path d="M0 0 C2.31 0 4.62 0 7 0 C7.6875 1.75 7.6875 1.75 8 4 C6.5625 6.25 6.5625 6.25 5 8 C8.81413002 6.8321734 8.81413002 6.8321734 11.3125 3.875 C11.539375 3.25625 11.76625 2.6375 12 2 C12.66 2 13.32 2 14 2 C14 4.64 14 7.28 14 10 C8.72 10 3.44 10 -2 10 C-2 7.36 -2 4.72 -2 2 C-1.34 2 -0.68 2 0 2 C0 1.34 0 0.68 0 0 Z " fill="#94CB8C" transform="translate(9,18)"/>
<path d="M0 0 C1.67542976 0.28604898 3.34385343 0.61781233 5 1 C5 3.97 5 6.94 5 10 C4.01 10.33 3.02 10.66 2 11 C1.67 16.94 1.34 22.88 1 29 C-0.32 28.67 -1.64 28.34 -3 28 C-2.855625 27.11957031 -2.71125 26.23914063 -2.5625 25.33203125 C-2.376875 24.17058594 -2.19125 23.00914063 -2 21.8125 C-1.814375 20.66394531 -1.62875 19.51539062 -1.4375 18.33203125 C-0.93492073 14.50435161 -0.7341844 11.21093774 -1.5625 7.4375 C-2.02178589 4.87862149 -1.86648553 3.42615948 -1 1 C-0.67 0.67 -0.34 0.34 0 0 Z M0 2 C1 4 1 4 1 4 Z " fill="#6B4622" transform="translate(43,11)"/>
<path d="M0 0 C2.0625 0.4375 2.0625 0.4375 4 1 C4.76328064 3.88350464 5.03101622 5.8357289 4.47265625 8.79296875 C3.9665463 12.22698748 4.24574042 14.78691225 4.875 18.1875 C5.05804687 19.21230469 5.24109375 20.23710938 5.4296875 21.29296875 C5.96284707 24.07831024 5.96284707 24.07831024 7 27 C5.68 27.33 4.36 27.66 3 28 C2.91959473 27.40461426 2.83918945 26.80922852 2.75634766 26.19580078 C2.38791016 23.50426239 2.00662173 20.81469931 1.625 18.125 C1.49867187 17.18785156 1.37234375 16.25070313 1.2421875 15.28515625 C1.11328125 14.38925781 0.984375 13.49335938 0.8515625 12.5703125 C0.73635254 11.74289551 0.62114258 10.91547852 0.50244141 10.06298828 C0.13868236 7.79221615 0.13868236 7.79221615 -2 6 C-1.44444444 1.44444444 -1.44444444 1.44444444 0 0 Z " fill="#794B20" transform="translate(2,12)"/>
<path d="M0 0 C0.6875 1.6875 0.6875 1.6875 1 4 C-0.3125 6.75 -0.3125 6.75 -2 9 C-2.66 9 -3.32 9 -4 9 C-4.99 10.485 -4.99 10.485 -6 12 C-10.64636861 13.21690606 -15.23295736 13.08219039 -20 13 C-20.33 12.34 -20.66 11.68 -21 11 C-20.236875 10.87625 -19.47375 10.7525 -18.6875 10.625 C-15.79732864 10.11897208 -15.79732864 10.11897208 -13 8 C-11.71548534 7.36042994 -10.42323815 6.73623275 -9.125 6.125 C-5.71048676 4.44924258 -2.8753625 2.51594218 0 0 Z " fill="#CFD3D2" transform="translate(40,32)"/>
<path d="M0 0 C6 1 6 1 8 2 C8 5.3 8 8.6 8 12 C6.35 12.33 4.7 12.66 3 13 C2.34 10.69 1.68 8.38 1 6 C1 9.3 1 12.6 1 16 C0.67 16 0.34 16 0 16 C0 10.72 0 5.44 0 0 Z " fill="#F2D68B" transform="translate(24,7)"/>
<path d="M0 0 C0.66 0 1.32 0 2 0 C1.69320313 0.70511719 1.38640625 1.41023437 1.0703125 2.13671875 C-0.01594498 5.04265573 -0.6097058 7.75754152 -1.125 10.8125 C-1.41375 12.524375 -1.7025 14.23625 -2 16 C3.61 16 9.22 16 15 16 C15 20.29 15 24.58 15 29 C14.67 29 14.34 29 14 29 C14 25.04 14 21.08 14 17 C9.05 17 4.1 17 -1 17 C-0.67 18.32 -0.34 19.64 0 21 C-0.66 21.99 -1.32 22.98 -2 24 C-2.42031413 21.48113903 -2.81145182 18.96303068 -3.1875 16.4375 C-3.30802734 15.73302734 -3.42855469 15.02855469 -3.55273438 14.30273438 C-4.32189132 8.91863575 -3.55578804 5.80834699 -1 1 C-0.67 0.67 -0.34 0.34 0 0 Z " fill="#ECF2EE" transform="translate(9,12)"/>
<path d="M0 0 C3 0 6 0 9 0 C9 2.31 9 4.62 9 7 C5.68989426 8.10336858 3.3186024 8.13531135 0 7 C-1.3125 4.9375 -1.3125 4.9375 -2 3 C-1.34 2.01 -0.68 1.02 0 0 Z " fill="#F7C9D4" transform="translate(14,30)"/>
<path d="M0 0 C0.99 0.495 0.99 0.495 2 1 C2 2.98 2 4.96 2 7 C5.54518884 5.60240095 5.54518884 5.60240095 9 4 C9.33 4.66 9.66 5.32 10 6 C10.66 5.67 11.32 5.34 12 5 C11.125 8.875 11.125 8.875 10 10 C6.66381769 10.14257189 3.34024394 10.04228157 0 10 C0 6.7 0 3.4 0 0 Z " fill="#E5C67B" transform="translate(25,13)"/>
<path d="M0 0 C4.56278027 -0.36995516 4.56278027 -0.36995516 6.625 1.375 C7.07875 1.91125 7.5325 2.4475 8 3 C8.99 3.66 9.98 4.32 11 5 C10.34 5 9.68 5 9 5 C8.67 5.66 8.34 6.32 8 7 C5.36 6.01 2.72 5.02 0 4 C0 2.68 0 1.36 0 0 Z " fill="#EA5445" transform="translate(28,26)"/>
<path d="M0 0 C0.66 0 1.32 0 2 0 C2 2.64 2 5.28 2 8 C-2.95 8 -7.9 8 -13 8 C-13 7.67 -13 7.34 -13 7 C-11.96939453 6.87044922 -11.96939453 6.87044922 -10.91796875 6.73828125 C-5.15040389 6.04676952 -5.15040389 6.04676952 -1 2.375 C-0.67 1.59125 -0.34 0.8075 0 0 Z " fill="#80C277" transform="translate(21,20)"/>
<path d="M0 0 C4.95 0 9.9 0 15 0 C15 0.33 15 0.66 15 1 C12.03 1.66 9.06 2.32 6 3 C6 4.32 6 5.64 6 7 C5.01 7 4.02 7 3 7 C0 2.77777778 0 2.77777778 0 0 Z " fill="#F7CED9" transform="translate(8,29)"/>
<path d="M0 0 C2.80178062 3.2334275 3.74124175 6.10448769 4.6875 10.25 C4.93886719 11.32765625 5.19023437 12.4053125 5.44921875 13.515625 C5.72185547 14.74539062 5.72185547 14.74539062 6 16 C4.68 16.33 3.36 16.66 2 17 C-0.29612756 5.47835991 -0.29612756 5.47835991 0 0 Z " fill="#6E5439" transform="translate(3,23)"/>
<path d="M0 0 C0.33 0.66 0.66 1.32 1 2 C0.01 2.33 -0.98 2.66 -2 3 C-3.51472274 5.27208411 -4.78009593 7.56019185 -6 10 C-7.64363134 10.72159424 -9.31050386 11.39351421 -11 12 C-10.6999825 8.49979578 -10.04266259 7.05095809 -7.75 4.3125 C-5.16437673 2.13822589 -3.19363318 1.00371328 0 0 Z " fill="#8D9292" transform="translate(17,3)"/>
<path d="M0 0 C0.66 0.33 1.32 0.66 2 1 C-1.89113459 6.64842118 -5.3991964 8.36058473 -12 10 C-12 8.68 -12 7.36 -12 6 C-9.36 6 -6.72 6 -4 6 C-4 5.01 -4 4.02 -4 3 C-2.68 2.67 -1.36 2.34 0 2 C0 1.34 0 0.68 0 0 Z " fill="#F6A942" transform="translate(37,31)"/>
<path d="M0 0 C1.2065625 0.0309375 1.2065625 0.0309375 2.4375 0.0625 C2.4375 2.0425 2.4375 4.0225 2.4375 6.0625 C0.7875 6.3925 -0.8625 6.7225 -2.5625 7.0625 C-2.94383299 5.0710944 -3.27575582 3.06970923 -3.5625 1.0625 C-2.5625 0.0625 -2.5625 0.0625 0 0 Z " fill="#FAF8F7" transform="translate(29.5625,12.9375)"/>
<path d="M0 0 C0.66 0.33 1.32 0.66 2 1 C1.12467243 4.28247841 0.49145848 6.50854152 -1.9375 8.9375 C-2.618125 9.288125 -3.29875 9.63875 -4 10 C-4.99 9.67 -5.98 9.34 -7 9 C-6.02180976 7.68677212 -5.0424189 6.37443848 -4.0625 5.0625 C-3.51722656 4.33160156 -2.97195312 3.60070312 -2.41015625 2.84765625 C-1 1 -1 1 0 0 Z " fill="#09834F" transform="translate(20,17)"/>
<path d="M0 0 C3.96 0 7.92 0 12 0 C12 1.65 12 3.3 12 5 C7.25 4.25 7.25 4.25 5 2 C2.42938689 1.35232207 2.42938689 1.35232207 0 1 C0 0.67 0 0.34 0 0 Z " fill="#F6AB3F" transform="translate(28,25)"/>
<path d="M0 0 C-2.55081829 2.97595467 -5.43434437 4.44002566 -9 6 C-9.99 6 -10.98 6 -12 6 C-8.43067205 0.21522712 -6.78837082 -1.65122534 0 0 Z " fill="#EEF5F4" transform="translate(23,5)"/>
<path d="M0 0 C1.51953125 1.08203125 1.51953125 1.08203125 3 3 C3.07421875 6.13671875 3.07421875 6.13671875 2.6875 9.6875 C2.56761719 10.86699219 2.44773437 12.04648437 2.32421875 13.26171875 C2.21722656 14.16535156 2.11023437 15.06898437 2 16 C0.68 15.34 -0.64 14.68 -2 14 C-1.505 13.0409375 -1.505 13.0409375 -1 12.0625 C0.33056928 7.98763159 0.16659199 4.24809575 0 0 Z " fill="#EEF0EB" transform="translate(40,18)"/>
<path d="M0 0 C1.4540625 0.0309375 1.4540625 0.0309375 2.9375 0.0625 C2.9375 1.0525 2.9375 2.0425 2.9375 3.0625 C0.03149739 4.31914978 -1.85854584 5.0625 -5.0625 5.0625 C-3.9375 0.08035714 -3.9375 0.08035714 0 0 Z " fill="#06804A" transform="translate(15.0625,13.9375)"/>
<path d="M0 0 C1.32 0.66 2.64 1.32 4 2 C3.67 3.98 3.34 5.96 3 8 C1.35 7.01 -0.3 6.02 -2 5 C-1.34 3.35 -0.68 1.7 0 0 Z " fill="#CA2A45" transform="translate(14,30)"/>
<path d="M0 0 C0.66 0.33 1.32 0.66 2 1 C2 4.3 2 7.6 2 11 C0.68 10.67 -0.64 10.34 -2 10 C-1.34 6.7 -0.68 3.4 0 0 Z " fill="#633C17" transform="translate(42,29)"/>
<path d="M0 0 C2.05078125 0.03255208 4.1015625 0.06510417 6.15234375 0.09765625 C6.15234375 0.75765625 6.15234375 1.41765625 6.15234375 2.09765625 C4.15234375 4.09765625 4.15234375 4.09765625 1.65234375 4.41015625 C0.82734375 4.30703125 0.00234375 4.20390625 -0.84765625 4.09765625 C-1.50765625 3.10765625 -2.16765625 2.11765625 -2.84765625 1.09765625 C-1.84765625 0.09765625 -1.84765625 0.09765625 0 0 Z " fill="#C6CBCD" transform="translate(21.84765625,2.90234375)"/>
<path d="M0 0 C2.00720923 0.28674418 4.0085944 0.61866701 6 1 C6 2.32 6 3.64 6 5 C0.25 4.125 0.25 4.125 -2 3 C-1 1 -1 1 0 0 Z " fill="#F7CCD8" transform="translate(17,36)"/>
<path d="M0 0 C0.66 0 1.32 0 2 0 C2 0.99 2 1.98 2 3 C2.45375 2.505 2.9075 2.01 3.375 1.5 C5 0 5 0 7 0 C7 1.32 7 2.64 7 4 C4.69 4 2.38 4 0 4 C0 2.68 0 1.36 0 0 Z " fill="#FEF8F4" transform="translate(26,33)"/>
<path d="M0 0 C0.99 0.33 1.98 0.66 3 1 C3.33 1.99 3.66 2.98 4 4 C1.36 4 -1.28 4 -4 4 C-4.33 3.34 -4.66 2.68 -5 2 C-3.35 1.67 -1.7 1.34 0 1 C0 0.67 0 0.34 0 0 Z " fill="#BDC2C3" transform="translate(24,41)"/>
<path d="M0 0 C0.66 0.66 1.32 1.32 2 2 C2.66 1.67 3.32 1.34 4 1 C3.67 2.32 3.34 3.64 3 5 C1.68 5 0.36 5 -1 5 C-0.67 3.35 -0.34 1.7 0 0 Z " fill="#774518" transform="translate(33,17)"/>
<path d="M0 0 C0.66 0.33 1.32 0.66 2 1 C2.625 3.0625 2.625 3.0625 3 5 C1.68 5.33 0.36 5.66 -1 6 C-1.33 5.34 -1.66 4.68 -2 4 C-1.0625 1.875 -1.0625 1.875 0 0 Z " fill="#C7203B" transform="translate(20,32)"/>
<path d="M0 0 C0.66 0.33 1.32 0.66 2 1 C2 2.65 2 4.3 2 6 C0.35 6 -1.3 6 -3 6 C-2.01 4.02 -1.02 2.04 0 0 Z " fill="#F1D37F" transform="translate(38,17)"/>
<path d="M0 0 C0.33 0 0.66 0 1 0 C1 1.98 1 3.96 1 6 C-0.65 6 -2.3 6 -4 6 C-2.69593116 3.98079663 -1.36176581 1.98075027 0 0 Z " fill="#90C983" transform="translate(21,21)"/>
<path d="" fill="#000000" transform="translate(0,0)"/>
<path d="" fill="#000000" transform="translate(0,0)"/>
<path d="" fill="#000000" transform="translate(0,0)"/>
<path d="" fill="#000000" transform="translate(0,0)"/>
<path d="" fill="#000000" transform="translate(0,0)"/>
<path d="" fill="#000000" transform="translate(0,0)"/>
</svg>
