<svg width="18" height="13" viewBox="0 0 18 13" fill="none" xmlns="http://www.w3.org/2000/svg">
<path d="M5.97656 4.21875C5.7825 4.21875 5.625 4.37625 5.625 4.57031C5.625 4.76438 5.7825 4.92188 5.97656 4.92188C6.17063 4.92188 6.32812 4.76438 6.32812 4.57031C6.32812 4.37625 6.17063 4.21875 5.97656 4.21875Z" fill="white"/>
<path d="M17.9597 7.93758C17.9461 7.85071 17.9292 7.76254 17.9085 7.67398C17.7004 6.78414 17.0741 6.00166 16.1719 5.49056V3.1867C16.1771 3.10479 16.154 3.02203 16.1032 2.95386C14.5751 0.905695 10.6479 0 8.08594 0C7.13225 0 6.1991 0.106312 5.31246 0.315949C2.69392 0.934734 0 2.66681 0 5.27344V8.64352C0 9.46986 0.389566 10.2223 1.042 10.6564C2.40071 11.5609 4.00398 12.0389 5.67844 12.0389C6.61047 12.0389 7.53349 11.8907 8.42193 11.5984C10.5054 10.9126 13.6877 10.5204 16.9323 10.5493C16.9356 10.5493 16.9389 10.5494 16.9421 10.5494C17.5278 10.5494 18 10.0807 18 9.49641V8.1007C18 8.04178 17.9853 7.98637 17.9597 7.93758ZM17.1995 7.73933C16.9986 7.73603 16.7961 7.73434 16.5938 7.73434C14.9786 7.73434 13.3311 7.83889 11.7791 8.0377L13.6172 5.62497H14.0579C15.3841 5.625 16.8398 6.4588 17.1995 7.73933ZM10.787 8.17966C9.53814 8.3783 8.44706 8.62938 7.54274 8.92688C7.40538 8.97202 7.26637 9.01164 7.12638 9.04672L9.73315 5.625H12.7333L10.787 8.17966ZM15.4688 5.16994C15.0092 5.00699 14.5289 4.92184 14.0579 4.92184H9.14062C8.75292 4.92184 8.4375 4.60642 8.4375 4.21872C8.4375 3.83101 8.75292 3.51559 9.14062 3.51559C9.90239 3.51559 14.8167 3.51559 15.4688 3.51559V5.16994ZM15.0069 2.8125H11.8761L12.8197 1.57409C13.7185 1.92185 14.4677 2.34724 15.0069 2.8125ZM5.58851 0.974145C6.38817 0.794426 7.22763 0.703125 8.08594 0.703125C8.18223 0.703125 8.27965 0.704707 8.37745 0.707062L6.48401 3.19257C6.36634 3.34702 6.39619 3.56762 6.55066 3.68529C6.70577 3.80348 6.92624 3.77241 7.04338 3.61863L9.22479 0.755086C10.2147 0.84266 11.2039 1.03911 12.1221 1.32957L10.9922 2.8125H9.14062C8.36522 2.8125 7.73438 3.44334 7.73438 4.21875C7.73438 4.90134 8.22336 5.47168 8.86936 5.59849L6.11824 9.20967C5.10061 9.28498 4.0835 9.09267 3.20122 8.66106L5.34213 5.85141C5.45984 5.69696 5.43002 5.47639 5.27555 5.35869C5.12104 5.24095 4.9005 5.2708 4.78283 5.42528L2.5869 8.30711C2.43278 8.20364 2.28414 8.09202 2.14277 7.97316C1.6245 7.53789 1.24063 7.05902 0.998508 6.54736L5.58851 0.974145ZM4.3913 1.3218L0.744363 5.75005C0.717469 5.59206 0.703125 5.43298 0.703125 5.27344C0.703125 3.35415 2.56025 1.98323 4.3913 1.3218ZM17.2969 9.49641C17.2969 9.69152 17.1397 9.84625 16.942 9.84625C16.9408 9.84625 16.9397 9.84625 16.9386 9.84621C13.6201 9.817 10.3544 10.222 8.20206 10.9305C7.38471 11.1994 6.53562 11.3358 5.6784 11.3358C4.14302 11.3358 2.67451 10.8985 1.43149 10.071C0.97541 9.7676 0.703125 9.23397 0.703125 8.64352V7.43822C1.69597 8.88831 3.54516 9.92897 5.68705 9.92897C7.52291 9.92897 7.68937 9.36605 11.0611 8.84827C12.8111 8.57953 14.7243 8.4375 16.5938 8.4375C16.829 8.4375 17.0643 8.43996 17.2969 8.44453V9.49641Z" fill="white"/>
</svg>
