<svg width="54" height="48" viewBox="0 0 54 48" fill="none" xmlns="http://www.w3.org/2000/svg">
<path fill-rule="evenodd" clip-rule="evenodd" d="M2.22028 19.7257C0.798698 18.9396 0 17.5632 0 16.124C0 14.6824 0.798698 13.306 2.22028 12.5223L23.102 0.981419C25.4729 -0.32714 28.5271 -0.32714 30.898 0.981419L51.7797 12.5223C53.2013 13.306 54 14.6824 54 16.124C54 17.5632 53.2013 18.9396 51.7797 19.7257L30.898 31.2641C28.5271 32.5752 25.4729 32.5752 23.102 31.2641L2.22028 19.7257ZM4.04121 16.4279L24.9229 27.9664C26.1862 28.6646 27.8138 28.6646 29.0771 27.9664L49.9588 16.4279C50.0969 16.3526 50.2326 16.2622 50.2326 16.124C50.2326 15.9834 50.0969 15.8955 49.9588 15.8176L29.0771 4.27919C27.8138 3.58095 26.1862 3.58095 24.9229 4.27919L4.04121 15.8176C3.90307 15.8955 3.76744 15.9834 3.76744 16.124C3.76744 16.2622 3.90307 16.3526 4.04121 16.4279Z" fill="#EA5824"/>
<path fill-rule="evenodd" clip-rule="evenodd" d="M42.6977 21.9711C42.6977 20.9313 43.5416 20.0874 44.5814 20.0874C45.6212 20.0874 46.4651 20.9313 46.4651 21.9711V33.2734C46.4651 38.475 42.2481 42.692 37.0465 42.692H16.9535C11.7519 42.692 7.53488 38.475 7.53488 33.2734V21.9711C7.53488 20.9313 8.37879 20.0874 9.4186 20.0874C10.4584 20.0874 11.3023 20.9313 11.3023 21.9711V33.2734C11.3023 36.3954 13.8315 38.9246 16.9535 38.9246H37.0465C40.1685 38.9246 42.6977 36.3954 42.6977 33.2734V21.9711Z" fill="#EA5824"/>
<path fill-rule="evenodd" clip-rule="evenodd" d="M25.6688 18.279C24.9329 17.5456 24.9329 16.3501 25.6688 15.6167C26.4022 14.8808 27.5978 14.8808 28.3312 15.6167L37.1219 24.4074C37.476 24.759 37.6744 25.2387 37.6744 25.7385V45.8316C37.6744 46.8714 36.8305 47.7153 35.7907 47.7153C34.7509 47.7153 33.907 46.8714 33.907 45.8316V26.5197L25.6688 18.279Z" fill="#EA5824"/>
</svg>
