<svg width="15" height="14" viewBox="0 0 15 14" fill="none" xmlns="http://www.w3.org/2000/svg">
<path d="M13.5672 11.7419H13.5175L13.4001 11.2726C13.3432 11.0444 13.2005 10.852 12.9991 10.7314L12.3103 10.3179C12.2225 10.2655 12.1563 10.1829 12.124 10.086C12.0823 9.96023 12.0129 9.85026 11.9258 9.75858C12.3322 9.20309 12.8758 8.76772 13.5117 8.49517L13.5873 8.46265C13.8495 8.35042 14.0188 8.09345 14.0188 7.80825C14.0188 7.48692 13.7576 7.22566 13.4362 7.22566C13.3348 7.22566 13.2348 7.2523 13.1472 7.30243L12.7983 7.50183C13.0451 7.13872 13.4159 6.87543 13.8477 6.76749L13.7384 6.32941C13.3545 6.42538 13.0094 6.62026 12.7301 6.88717C12.7134 6.76162 12.6766 6.639 12.6222 6.52248C12.6409 6.5008 12.6585 6.47777 12.6775 6.45609L12.9785 6.11241C13.067 6.01102 13.1156 5.8814 13.1156 5.7475C13.1156 5.44197 12.867 5.19336 12.5533 5.19336C12.428 5.19336 12.3051 5.23649 12.2071 5.31484L11.9192 5.54517C12.2855 4.8858 12.5359 4.17517 12.661 3.42412L12.2155 3.34983C12.12 3.92384 11.9454 4.47234 11.6982 4.99035L11.7255 4.68867C11.7399 4.52879 11.6862 4.36937 11.5783 4.25082C11.4699 4.13227 11.3159 4.0643 11.1553 4.0643C10.8739 4.0643 10.6317 4.27453 10.5917 4.55318C10.472 5.39072 10.2609 6.21673 9.96415 7.00775L9.89957 7.17982C9.7975 6.94181 9.56198 6.77404 9.28717 6.77404C9.06362 6.77404 8.8561 6.88513 8.73213 7.07098L8.59687 7.27376C8.51873 7.24395 8.43473 7.22566 8.34622 7.22566H7.47029C6.87009 7.22566 6.38233 7.69783 6.34778 8.28968L6.18791 8.35359L6.45685 5.79785C7.44613 5.54269 8.14773 4.65028 8.14773 3.61268C8.14773 2.36755 7.13474 1.35456 5.88961 1.35456C4.64449 1.35456 3.6315 2.36755 3.6315 3.61268C3.6315 3.92723 3.69992 4.23253 3.82412 4.51592H2.45254L1.39371 0.342702C1.33229 0.100858 1.08254 -0.0463709 0.840018 0.0132433L0.365814 0.130214C0.245231 0.159569 0.144519 0.234538 0.0815179 0.340896C0.019194 0.446124 0.00248392 0.568965 0.0338717 0.686839L1.05635 4.51592H0L0.630917 12.5083C0.676983 13.0916 1.17128 13.5484 1.75636 13.5484H2.89219C3.21059 13.8286 3.62676 14 4.08312 14H12.2123C13.2084 14 14.0188 13.1896 14.0188 12.1935C14.0188 11.9444 13.8163 11.7419 13.5672 11.7419ZM12.078 10.7052L12.7669 11.1186C12.8652 11.1774 12.9345 11.2711 12.9623 11.3822L13.0521 11.7419H3.22933L3.31627 11.3074C3.35082 11.1347 3.48359 10.9956 3.65431 10.9529L3.73989 10.9317C4.06641 10.8499 4.32 10.5961 4.40152 10.2698L4.42297 10.1845C4.46565 10.0135 4.6052 9.88075 4.77772 9.8462L5.09295 9.7832C5.41225 9.71929 5.67464 9.48761 5.77738 9.17893C5.82006 9.05067 5.91671 8.94837 6.04204 8.89824L6.39498 8.75711C6.57382 9.43409 7.18961 9.9354 7.92192 9.9354H8.79287C9.1842 9.9354 9.50259 9.617 9.50259 9.2259C9.50259 9.18706 9.4983 9.14912 9.49198 9.11186C9.6024 9.05518 9.69634 8.97547 9.77108 8.88063L10.059 8.95266C10.1805 8.98292 10.2825 9.06489 10.3385 9.17689L10.4745 9.449C10.6247 9.74887 10.9266 9.9354 11.2621 9.9354H11.2888C11.4737 9.9354 11.6374 10.0533 11.6957 10.2285C11.7623 10.4281 11.8978 10.5972 12.078 10.7052ZM12.2478 7.30853L12.0387 7.93584L11.6487 8.15871L11.8727 8.55072L13.3712 7.69444C13.4527 7.64793 13.5672 7.71319 13.5672 7.80848C13.5672 7.9128 13.5053 8.00651 13.4094 8.04784L13.3337 8.08035C12.612 8.38949 11.9969 8.88718 11.5403 9.52193C11.4599 9.498 11.3757 9.48377 11.2888 9.48377H11.2621C11.0984 9.48377 10.9516 9.393 10.8785 9.2469L10.7857 9.06083C11.2303 8.31791 11.7314 7.6057 12.2792 6.93368C12.2977 7.05766 12.2889 7.18546 12.2478 7.30853ZM11.039 4.61709C11.0471 4.55928 11.0973 4.51592 11.1553 4.51592C11.2016 4.51592 11.2312 4.54054 11.2445 4.55521C11.2581 4.56989 11.2797 4.6015 11.2757 4.64757L11.0842 6.75349L11.534 6.79436L11.5694 6.40325L12.489 5.66733C12.5072 5.65288 12.53 5.64475 12.5612 5.64475C12.6179 5.64498 12.664 5.69104 12.664 5.7475C12.664 5.77234 12.6549 5.7965 12.6389 5.81502L12.3379 6.15847C11.6537 6.94068 11.0372 7.78703 10.4944 8.67401C10.3988 8.59972 10.2886 8.54417 10.1685 8.51414L9.99916 8.47169L10.0791 8.43172C10.2805 8.33123 10.4058 8.12845 10.4058 7.90309C10.4058 7.75631 10.3485 7.62218 10.2557 7.51673L10.3871 7.16627C10.6951 6.34454 10.9146 5.48691 11.039 4.61709ZM9.28717 7.22566C9.40595 7.22566 9.50259 7.32231 9.50259 7.45147V7.59102L9.87699 7.77822C9.92464 7.80215 9.95422 7.8498 9.95422 7.90309C9.95422 7.95638 9.92464 8.00403 9.87699 8.02797L9.50259 8.21516V8.35472C9.50259 8.5094 9.41159 8.64398 9.27543 8.71059C9.17223 8.6135 9.04149 8.54462 8.89358 8.52362L8.7678 8.50556L8.84458 8.42878C8.97781 8.29578 9.05097 8.11874 9.05097 7.93042C9.05097 7.79606 9.01123 7.67164 8.94574 7.56483L9.10788 7.32163C9.14807 7.26156 9.21514 7.22566 9.28717 7.22566ZM7.31426 7.69715L7.48203 8.20026L7.91017 8.05732L7.78349 7.67728H8.34622C8.48577 7.67728 8.59935 7.79086 8.59935 7.93042C8.59935 7.99816 8.57316 8.06161 8.52528 8.10948L8.20915 8.42562L7.72817 8.35697L7.66426 8.80385L8.82968 8.97028C8.95591 8.98834 9.05097 9.09809 9.05097 9.22567C9.05097 9.36816 8.93513 9.48377 8.79287 9.48377H8.00931L8.13599 9.10351L7.70785 8.96057L7.55565 9.41738C7.29777 9.32819 7.08393 9.1498 6.94889 8.91699L7.31606 8.7946L7.17312 8.36623L6.80641 8.4884C6.80099 8.44414 6.79286 8.40056 6.79286 8.35472C6.79286 8.03497 7.01596 7.76806 7.31426 7.69715ZM4.08312 3.61268C4.08312 2.61662 4.89356 1.80619 5.88961 1.80619C6.88567 1.80619 7.6961 2.61662 7.6961 3.61268C7.6961 4.38405 7.21151 5.05539 6.50834 5.31033L6.56343 4.78644C6.96967 4.55228 7.24448 4.11443 7.24448 3.61268C7.24448 2.86547 6.63682 2.25781 5.88961 2.25781C5.1424 2.25781 4.53474 2.86547 4.53474 3.61268C4.53474 3.95997 4.66707 4.27588 4.88249 4.51592H4.33039C4.17141 4.24179 4.08312 3.93333 4.08312 3.61268ZM6.03233 3.96946L6.50698 4.26843C6.3462 4.41973 6.13146 4.51434 5.89413 4.51547L6.03233 3.96946ZM6.27281 3.58716L6.70366 3.22812C6.75921 3.34532 6.79286 3.47471 6.79286 3.61268C6.79286 3.70819 6.77389 3.79875 6.74634 3.88523L6.27281 3.58716ZM5.984 3.24031L5.77626 2.72095C5.81374 2.71621 5.85077 2.70943 5.88961 2.70943C6.08607 2.70943 6.26672 2.77424 6.41508 2.88105L5.984 3.24031ZM5.35625 2.8876L5.56444 3.40809L5.0033 3.44535C5.04643 3.21706 5.17605 3.0206 5.35625 2.8876ZM5.59448 3.85859L5.45718 4.40076C5.2596 4.29192 5.10853 4.11285 5.03605 3.89562L5.59448 3.85859ZM0.473978 0.568513L0.956086 0.454027L1.98624 4.51592H1.52378L0.473978 0.568513ZM6.09058 4.96755L5.85281 7.22566H5.43618C5.43618 7.22001 5.43799 7.21459 5.43799 7.20895C5.43799 7.01385 5.36212 6.83049 5.22415 6.69229L4.62823 6.0966C4.3629 5.83173 3.92099 5.8105 3.6236 6.02773L3.5213 5.82337C3.39688 5.57407 3.14668 5.41917 2.86803 5.41917C2.73548 5.41917 2.60541 5.4553 2.49228 5.52327L1.72791 5.98189C1.50932 6.11309 1.37338 6.35312 1.37338 6.62116C1.37338 6.76568 1.41584 6.90568 1.496 7.02627L1.62878 7.22566H0.666821L0.488656 4.96755H6.09058ZM2.17163 7.22566L1.87198 6.77607C1.84127 6.73 1.82501 6.67649 1.82501 6.60806C1.82501 6.51074 1.87672 6.41929 1.96049 6.36893L2.72509 5.91031C2.85877 5.82992 3.04755 5.88456 3.11733 6.02479L3.28149 6.3529L2.971 6.66316C2.82038 6.81423 2.73683 7.0134 2.73051 7.22543L2.17163 7.22566ZM3.18236 7.22566C3.18823 7.13398 3.22526 7.04817 3.29075 6.98246L3.85731 6.41613C3.91783 6.35561 3.99777 6.32241 4.08312 6.32241C4.16848 6.32241 4.24842 6.35561 4.30893 6.4159L4.90462 7.01159C4.95724 7.06443 4.98637 7.13443 4.98637 7.20895C4.98637 7.21459 4.98479 7.22001 4.98456 7.22566H3.18236ZM4.56839 7.67728L4.08741 8.06229C3.95915 8.16481 3.75186 8.13861 3.65295 8.00697L3.40569 7.67728H4.56839ZM1.08118 12.4726L0.702499 7.67728H2.84951C2.86397 7.70122 2.87729 7.7256 2.89422 7.74796L3.29143 8.27749C3.43346 8.4674 3.65973 8.58053 3.89705 8.58053C4.06844 8.58053 4.23622 8.52159 4.36968 8.41478L5.16386 7.77957C5.20202 7.74909 5.23499 7.71409 5.26592 7.67751H5.80561L5.71213 8.56562C5.54367 8.67672 5.41473 8.84066 5.3497 9.03599C5.29776 9.19157 5.16566 9.30832 5.00488 9.34038L4.68965 9.40338C4.34664 9.4718 4.07048 9.73533 3.98557 10.0747L3.96389 10.1603C3.92302 10.3247 3.79544 10.4523 3.63082 10.4934L3.54546 10.5146C3.20607 10.5993 2.94255 10.8757 2.8739 11.2187L2.7689 11.7419H2.72825C2.47918 11.7419 2.27663 11.9444 2.27663 12.1935C2.27663 12.5227 2.3665 12.8307 2.52096 13.0968H1.75636C1.40545 13.0968 1.10873 12.8226 1.08118 12.4726ZM12.2123 13.5484H4.08312C3.33591 13.5484 2.72825 12.9407 2.72825 12.1935H13.5672C13.5672 12.9407 12.9595 13.5484 12.2123 13.5484Z" fill="white"/>
<path d="M8.7669 10.079L8.53003 10.2371C8.23579 10.4333 7.83362 10.4333 7.53939 10.2371L7.30229 10.079C6.97373 9.8602 6.50247 9.90672 6.22246 10.1863L6.18114 10.2276L6.50088 10.5464L6.54198 10.5053C6.67386 10.3735 6.89718 10.3516 7.05209 10.4548L7.28897 10.6128C7.51026 10.7605 7.76836 10.8386 8.03482 10.8386C8.30128 10.8386 8.55916 10.7605 8.78068 10.6128L9.01733 10.455C9.17291 10.3518 9.39601 10.3737 9.52743 10.5051L9.56876 10.5464L9.88851 10.2276L9.84696 10.1858C9.5674 9.90717 9.09613 9.8602 8.7669 10.079Z" fill="white"/>
<path d="M9.95422 9.48377H10.4058V9.9354H9.95422V9.48377Z" fill="white"/>
<path d="M10.8575 10.387H11.3091V10.8386H10.8575V10.387Z" fill="white"/>
<path d="M5.88961 9.48377H6.34124V9.9354H5.88961V9.48377Z" fill="white"/>
<path d="M4.98637 10.387H5.43799V10.8386H4.98637V10.387Z" fill="white"/>
<path d="M9.05097 10.8386H9.50259V11.2903H9.05097V10.8386Z" fill="white"/>
<path d="M2.72825 8.80634C2.72825 8.43285 2.42431 8.1289 2.05082 8.1289C1.67733 8.1289 1.37338 8.43285 1.37338 8.80634C1.37338 9.17983 1.67733 9.48377 2.05082 9.48377C2.42431 9.48377 2.72825 9.17983 2.72825 8.80634ZM1.82501 8.80634C1.82501 8.68192 1.92617 8.58053 2.05082 8.58053C2.17547 8.58053 2.27663 8.68192 2.27663 8.80634C2.27663 8.93076 2.17547 9.03215 2.05082 9.03215C1.92617 9.03215 1.82501 8.93076 1.82501 8.80634Z" fill="white"/>
<path d="M2.72825 9.47655C2.72825 9.70642 2.85584 9.91304 3.06155 10.0158C3.14736 10.0587 3.23972 10.0797 3.33117 10.0797C3.48743 10.0797 3.64166 10.0187 3.75795 9.90265L3.79137 9.86901L3.47162 9.55016L3.43843 9.58335C3.39214 9.62965 3.32169 9.64071 3.26365 9.61158C3.21194 9.58607 3.17988 9.53413 3.17988 9.47655V9.41422C3.17988 9.3738 3.19546 9.33564 3.22413 9.30719L3.33952 9.1918L3.02023 8.8725L2.90484 8.98789C2.7908 9.1017 2.72825 9.25322 2.72825 9.41422V9.47655Z" fill="white"/>
<path d="M1.82501 9.9354H2.27663V10.387H1.82501V9.9354Z" fill="white"/>
</svg>
