<svg width="19" height="14" viewBox="0 0 19 14" fill="none" xmlns="http://www.w3.org/2000/svg">
<path d="M15.5638 10.9865H2.87636C2.72445 10.9865 2.6013 10.8633 2.6013 10.7114V3.23207C2.6013 2.83209 2.9265 2.50669 3.32628 2.50669H15.1139C15.5136 2.50669 15.8389 2.83209 15.8389 3.23207V10.7114C15.8389 10.8634 15.7157 10.9865 15.5638 10.9865ZM3.15142 10.4363H15.2887V3.23207C15.2887 3.1371 15.2086 3.05682 15.1139 3.05682H3.32628C3.23151 3.05682 3.15142 3.13706 3.15142 3.23207V10.4363Z" fill="white"/>
<path d="M15.5638 10.9865C15.4119 10.9865 15.2887 10.8633 15.2887 10.7114V3.23207C15.2887 3.1371 15.2086 3.05682 15.1139 3.05682H3.32628C3.23151 3.05682 3.15142 3.13706 3.15142 3.23207V10.7114C3.15142 10.8633 3.02827 10.9865 2.87636 10.9865C2.72445 10.9865 2.6013 10.8633 2.6013 10.7114V3.23207C2.6013 2.83209 2.9265 2.50669 3.32628 2.50669H15.1139C15.5136 2.50669 15.8389 2.83209 15.8389 3.23207V10.7114C15.8389 10.8634 15.7157 10.9865 15.5638 10.9865Z" fill="white"/>
<path d="M15.741 12.5928C15.5891 12.5928 15.4655 12.4697 15.4655 12.3178C15.4655 12.1873 15.5561 12.078 15.6779 12.0498C16.9218 11.701 17.5553 11.3076 17.7857 10.9865H0.654412C0.88511 11.308 1.51983 11.7019 2.76716 12.0512C2.88626 12.0814 2.9746 12.1893 2.9746 12.3178C2.9746 12.4697 2.85184 12.5928 2.69993 12.5928C2.6749 12.5928 2.6492 12.5894 2.62511 12.5827C0.907744 12.1028 0 11.4557 0 10.7114C0 10.5595 0.123149 10.4363 0.275062 10.4363H18.1651C18.317 10.4363 18.4402 10.5595 18.4402 10.7114C18.4402 11.4557 17.5324 12.1028 15.815 12.5827C15.791 12.5894 15.766 12.5928 15.741 12.5928Z" fill="white"/>
<path d="M15.7411 14H2.69903C2.54711 14 2.42396 13.8769 2.42396 13.7249V12.3178C2.42396 12.1658 2.54711 12.0427 2.69903 12.0427H15.7411C15.893 12.0427 16.0161 12.1658 16.0161 12.3178V13.7249C16.0161 13.8769 15.893 14 15.7411 14ZM2.97409 13.4499H15.466V12.5928H2.97409V13.4499Z" fill="white"/>
<path d="M4.71888 5.3976C4.64658 5.3976 4.57585 5.36812 4.52438 5.31704C4.47329 5.26596 4.44382 5.19484 4.44382 5.12253C4.44382 5.04984 4.47329 4.97911 4.52438 4.92803C4.57546 4.87694 4.64658 4.84747 4.71888 4.84747C4.79119 4.84747 4.86231 4.87694 4.91339 4.92803C4.96447 4.97911 4.99395 5.05023 4.99395 5.12253C4.99395 5.19484 4.96447 5.26596 4.91339 5.31704C4.86231 5.36812 4.79119 5.3976 4.71888 5.3976Z" fill="white"/>
<path d="M7.28443 6.4778C7.21212 6.4778 7.14139 6.44873 7.08992 6.39725C7.03883 6.34617 7.00936 6.27504 7.00936 6.20274C7.00936 6.13044 7.03883 6.05971 7.08992 6.00823C7.14139 5.95715 7.21212 5.92768 7.28443 5.92768C7.35712 5.92768 7.42785 5.95715 7.47893 6.00823C7.53041 6.05971 7.55949 6.13044 7.55949 6.20274C7.55949 6.27544 7.53041 6.34617 7.47893 6.39725C7.42785 6.44873 7.35712 6.4778 7.28443 6.4778Z" fill="white"/>
<path d="M5.43915 7.87315C5.36646 7.87315 5.29573 7.84407 5.24465 7.7926C5.19317 7.74148 5.16409 7.67075 5.16409 7.59809C5.16409 7.52579 5.19317 7.45502 5.24465 7.40358C5.29573 7.3525 5.36646 7.32303 5.43915 7.32303C5.51146 7.32303 5.58218 7.3525 5.63366 7.40358C5.68474 7.45506 5.71421 7.52579 5.71421 7.59809C5.71421 7.67078 5.68474 7.74148 5.63366 7.7926C5.58218 7.84407 5.51146 7.87315 5.43915 7.87315Z" fill="white"/>
<path d="M12.5595 3.05686C12.4992 3.05686 12.4385 3.03709 12.3878 2.99646C12.2087 2.85304 12.0415 2.66639 11.9041 2.45663C11.4244 1.72509 11.4146 0.942143 11.8813 0.635488C12.1224 0.477288 12.4495 0.484951 12.7789 0.656432C13.062 0.803787 13.3335 1.06124 13.5434 1.38142L13.5465 1.38621C13.5521 1.3947 13.5574 1.40311 13.5624 1.41187C13.6378 1.54378 13.5919 1.71181 13.46 1.78717C13.3295 1.86183 13.1634 1.81755 13.087 1.68866L13.0818 1.68068C12.9265 1.44382 12.723 1.2475 12.5249 1.14443C12.3796 1.06875 12.2518 1.0504 12.1833 1.09539C12.0404 1.18931 12.0395 1.65994 12.3642 2.15513C12.4703 2.3171 12.5974 2.45954 12.7317 2.56713C12.8503 2.6621 12.8694 2.8352 12.7744 2.95379C12.7201 3.02153 12.6402 3.05686 12.5595 3.05686Z" fill="white"/>
<path d="M13.2748 3.05686C13.1839 3.05686 13.0951 3.0119 13.0426 2.9297C12.8113 2.56705 12.8221 2.00954 13.0715 1.43824C13.133 1.29556 13.2106 1.15233 13.3014 1.01366C13.5542 0.628454 13.8835 0.321799 14.2289 0.150003C14.6225 -0.045762 14.9969 -0.0500451 15.2833 0.13794C15.8348 0.499529 15.8287 1.45113 15.2693 2.30425C15.0841 2.58627 14.8563 2.8286 14.6103 3.00519C14.4869 3.09376 14.315 3.06554 14.2264 2.94216C14.1378 2.81873 14.166 2.6469 14.2894 2.55829C14.4811 2.42068 14.6609 2.22845 14.8093 2.00243C15.2075 1.39509 15.2287 0.759934 14.9816 0.597883C14.8669 0.522634 14.682 0.53898 14.4739 0.642521C14.2182 0.769718 13.9586 1.01492 13.7615 1.31528C13.6881 1.42735 13.6257 1.54245 13.5762 1.65722C13.405 2.04935 13.3778 2.43223 13.5064 2.63385C13.5881 2.76195 13.5505 2.93198 13.4224 3.01367C13.3765 3.04291 13.3254 3.05686 13.2748 3.05686Z" fill="white"/>
</svg>
