<?xml version="1.0" encoding="UTF-8"?>
<svg version="1.1" xmlns="http://www.w3.org/2000/svg" width="42" height="42">
<path d="M0 0 C4.3177458 0.50797009 8.03302114 1.19682779 12 3 C12 2.34 12 1.68 12 1 C14.40084153 1.20233507 16.79176333 1.43566908 19.1875 1.6875 C20.19780273 1.76774414 20.19780273 1.76774414 21.22851562 1.84960938 C26.41720744 2.43175529 28.71943286 4.01990016 32 8 C35.88563817 13.49348844 35.88438246 19.52019773 35 26 C33.36511646 30.67758345 30.72842563 33.91994368 26.5 36.5 C20.01831899 39.21496827 12.6190165 39.41466241 6.08203125 36.859375 C1.18657826 34.11155796 -2.87024371 31.32439073 -5 26 C-5.6670545 20.44357795 -6.32169101 14.28687697 -3.3125 9.3125 C-0.93486071 6.93486071 0.7805178 5.89430061 4 5 C4 4.34 4 3.68 4 3 C3.01 3 2.02 3 1 3 C0.67 2.01 0.34 1.02 0 0 Z " fill="#B84214" transform="translate(6,2)"/>
<path d="M0 0 C3.25 -0.3125 3.25 -0.3125 7 0 C11.45765722 4.33718 13.30191786 8.59297557 13.4375 14.75 C13.31400131 20.7069954 12.211749 24.70566769 8 29 C2.61450759 33.47097483 -3.28720658 33.44160284 -10.046875 33.43359375 C-13 33 -13 33 -17 30 C-13.7 30 -10.4 30 -7 30 C-8.98 29.01 -10.96 28.02 -13 27 C-13 23 -13 23 -12 22 C-10.58776052 21.81617544 -9.16948956 21.67765727 -7.75 21.5625 C-3.41470114 21.11520726 0.12717517 20.48830766 3.6171875 17.71484375 C5.40535456 15.49731454 5.34271744 14.25147432 5.25 11.4375 C5.23453125 10.65246094 5.2190625 9.86742187 5.203125 9.05859375 C5.11758859 6.93749039 5.11758859 6.93749039 4 5 C3.01 4.67 2.02 4.34 1 4 C0.3125 1.9375 0.3125 1.9375 0 0 Z " fill="#BC3711" transform="translate(28,7)"/>
<path d="M0 0 C0.33 0.99 0.66 1.98 1 3 C-0.32 3 -1.64 3 -3 3 C-3 4.98 -3 6.96 -3 9 C-2.34 9.33 -1.68 9.66 -1 10 C-1.2604696 13.21245843 -1.57490372 14.6147565 -4 16.8125 C-8.06198818 18.42037032 -11.68656819 18.25373128 -16 18 C-16 17.01 -16 16.02 -16 15 C-18.31 15.33 -20.62 15.66 -23 16 C-23.25 8.375 -23.25 8.375 -21 5 C-16.61089629 3.36976148 -13.32348669 4.55883777 -9 6 C-9 5.34 -9 4.68 -9 4 C-9.99 3.67 -10.98 3.34 -12 3 C-8.04 2.01 -4.08 1.02 0 0 Z " fill="#E6633B" transform="translate(26,8)"/>
<path d="M0 0 C0.66 0 1.32 0 2 0 C2 0.99 2 1.98 2 3 C2.639375 3.12375 3.27875 3.2475 3.9375 3.375 C4.9584375 3.684375 4.9584375 3.684375 6 4 C7.73899832 7.47799665 7.58979036 11.205682 7 15 C4.30325052 18.59566597 2.33367339 20.15734129 -2 21 C-3.49653289 21.21341402 -4.9970466 21.40036633 -6.5 21.5625 C-7.62921875 21.68818359 -7.62921875 21.68818359 -8.78125 21.81640625 C-10.84800638 21.98742306 -12.92618017 22 -15 22 C-14.67 21.34 -14.34 20.68 -14 20 C-14.99 19.34 -15.98 18.68 -17 18 C-16.15695313 17.87882812 -15.31390625 17.75765625 -14.4453125 17.6328125 C-13.34960938 17.46523438 -12.25390625 17.29765625 -11.125 17.125 C-10.03445312 16.96257813 -8.94390625 16.80015625 -7.8203125 16.6328125 C-4.88067286 16.23743487 -4.88067286 16.23743487 -3 14 C-2.3574765 11.93125966 -2.3574765 11.93125966 -2 10 C-2.99 9.67 -3.98 9.34 -5 9 C-4.67 7.02 -4.34 5.04 -4 3 C-2.68 3 -1.36 3 0 3 C0 2.01 0 1.02 0 0 Z " fill="#D23818" transform="translate(27,8)"/>
<path d="M0 0 C4.3177458 0.50797009 8.03302114 1.19682779 12 3 C12 2.34 12 1.68 12 1 C14.45993028 1.2813059 16.91740248 1.57452731 19.375 1.875 C20.42300781 1.99294922 20.42300781 1.99294922 21.4921875 2.11328125 C26.7734375 2.7734375 26.7734375 2.7734375 29 5 C27.95199219 5.19335938 26.90398438 5.38671875 25.82421875 5.5859375 C24.44524407 5.84859934 23.06634151 6.11164 21.6875 6.375 C20.99720703 6.50132813 20.30691406 6.62765625 19.59570312 6.7578125 C16.16296686 7.42114318 13.94753542 8.03497639 11 10 C11 10.66 11 11.32 11 12 C7.37 11.67 3.74 11.34 0 11 C-0.33 11.66 -0.66 12.32 -1 13 C-0.4409112 9.75728494 0.4132178 8.06942576 3 6 C3.66 6 4.32 6 5 6 C4.67 5.34 4.34 4.68 4 4 C3.01 3.67 2.02 3.34 1 3 C0.67 2.01 0.34 1.02 0 0 Z " fill="#D35129" transform="translate(6,2)"/>
<path d="M0 0 C3.25 -0.3125 3.25 -0.3125 7 0 C11.45765722 4.33718 13.30191786 8.59297557 13.4375 14.75 C13.37142485 20.74081381 11.77104054 24.42087935 8 29 C7.34 28.67 6.68 28.34 6 28 C6.639375 27.030625 7.27875 26.06125 7.9375 25.0625 C10.38351528 20.8446362 10.78209489 16.80480758 11 12 C10.34 12 9.68 12 9 12 C9 13.98 9 15.96 9 18 C8.34 18 7.68 18 7 18 C6.86722656 17.22914062 6.73445313 16.45828125 6.59765625 15.6640625 C6.42105469 14.66117188 6.24445312 13.65828125 6.0625 12.625 C5.88847656 11.62726562 5.71445312 10.62953125 5.53515625 9.6015625 C5.12287938 7.03090344 5.12287938 7.03090344 4 5 C3.01 4.67 2.02 4.34 1 4 C0.3125 1.9375 0.3125 1.9375 0 0 Z " fill="#B22A15" transform="translate(28,7)"/>
<path d="M0 0 C0.33 0 0.66 0 1 0 C1.10826289 2.4178712 1.18739789 4.83087556 1.25 7.25 C1.30027344 8.27287109 1.30027344 8.27287109 1.3515625 9.31640625 C1.41701841 12.68738538 1.25318167 14.63880964 -0.703125 17.4296875 C-3.29482582 19.20156459 -4.8880647 19.63780981 -8 19.875 C-8.845625 19.95492188 -9.69125 20.03484375 -10.5625 20.1171875 C-13.21607482 19.98961179 -14.73896394 19.35034098 -17 18 C-16.15695313 17.87882812 -15.31390625 17.75765625 -14.4453125 17.6328125 C-13.34960938 17.46523438 -12.25390625 17.29765625 -11.125 17.125 C-10.03445312 16.96257813 -8.94390625 16.80015625 -7.8203125 16.6328125 C-4.88067286 16.23743487 -4.88067286 16.23743487 -3 14 C-2.3574765 11.93125966 -2.3574765 11.93125966 -2 10 C-2.99 9.67 -3.98 9.34 -5 9 C-4.67 7.02 -4.34 5.04 -4 3 C-2.68 3 -1.36 3 0 3 C0 2.01 0 1.02 0 0 Z " fill="#E25527" transform="translate(27,8)"/>
<path d="M0 0 C2.64 0.33 5.28 0.66 8 1 C8 1.66 8 2.32 8 3 C9.65 3.33 11.3 3.66 13 4 C13 5.32 13 6.64 13 8 C9.7 8 6.4 8 3 8 C3 7.01 3 6.02 3 5 C2.01 5 1.02 5 0 5 C0 3.35 0 1.7 0 0 Z " fill="#EB8D50" transform="translate(8,15)"/>
<path d="M0 0 C0.66 0 1.32 0 2 0 C2.53821917 6.59318487 2.0576014 10.66105079 -2 16 C-5.25 17.9375 -5.25 17.9375 -8 19 C-8.33 18.34 -8.66 17.68 -9 17 C-7.75 14.375 -7.75 14.375 -6 12 C-5.01 12 -4.02 12 -3 12 C-2.67 10.02 -2.34 8.04 -2 6 C-1.34 6 -0.68 6 0 6 C0 4.02 0 2.04 0 0 Z " fill="#A12612" transform="translate(37,19)"/>
<path d="M0 0 C2.45993028 0.2813059 4.91740248 0.57452731 7.375 0.875 C8.42300781 0.99294922 8.42300781 0.99294922 9.4921875 1.11328125 C14.7734375 1.7734375 14.7734375 1.7734375 17 4 C14.58525383 4.53160457 12.16891893 5.05054766 9.75 5.5625 C9.06808594 5.71396484 8.38617188 5.86542969 7.68359375 6.02148438 C4.18230962 6.75233495 1.39701827 7.32203546 -2 6 C-1.34 5.67 -0.68 5.34 0 5 C0 3.35 0 1.7 0 0 Z " fill="#517A22" transform="translate(18,3)"/>
<path d="M0 0 C0 0.99 0 1.98 0 3 C1.32 2.67 2.64 2.34 4 2 C1.21217763 5.05332927 -0.79724817 5.9184575 -4.99609375 6.203125 C-6.69958984 6.22632813 -6.69958984 6.22632813 -8.4375 6.25 C-9.57058594 6.27578125 -10.70367187 6.3015625 -11.87109375 6.328125 C-15 6 -15 6 -19 3 C-15.37 3 -11.74 3 -8 3 C-7.67 2.34 -7.34 1.68 -7 1 C-2.44155844 -1.22077922 -2.44155844 -1.22077922 0 0 Z " fill="#A52712" transform="translate(30,34)"/>
<path d="M0 0 C0.33 0.66 0.66 1.32 1 2 C-0.52994792 3.20442708 -2.05989583 4.40885417 -3.58984375 5.61328125 C-6.57724781 8.55103316 -6.226144 12.37193952 -6.3125 16.3125 C-6.29370066 21.92723721 -5.779217 24.86648141 -2 29 C-5.87640473 27.52963959 -7.18565525 25.67965424 -9 22 C-9.81276469 16.14955867 -9.8199032 10.76127354 -7.3125 5.375 C-5.02057868 3.02113486 -2.93186885 1.46593443 0 0 Z " fill="#DB450E" transform="translate(10,6)"/>
<path d="M0 0 C-0.33 0.66 -0.66 1.32 -1 2 C-2.65 2 -4.3 2 -6 2 C-6.66 3.65 -7.32 5.3 -8 7 C-7.01 7.33 -6.02 7.66 -5 8 C-8.75 10 -8.75 10 -11 10 C-11.25 2.375 -11.25 2.375 -9 -1 C-5.23375329 -2.25541557 -3.62811066 -1.37061958 0 0 Z " fill="#D8692A" transform="translate(14,14)"/>
<path d="M0 0 C3.65269596 1.17408084 5.47013323 3.38672835 7.23046875 6.74609375 C9.09062501 12.19436869 9.21242423 18.26050858 6.87109375 23.55078125 C5.67359922 25.47154882 4.43795645 27.25391002 3 29 C2.34 28.67 1.68 28.34 1 28 C2.00911458 26.2421875 3.01822917 24.484375 4.02734375 22.7265625 C6.22959558 18.81734439 6.58274769 15.43665244 6 11 C4.50055089 6.99910025 2.36319309 3.54478963 0 0 Z " fill="#D73B0B" transform="translate(33,7)"/>
<path d="M0 0 C0.33 1.32 0.66 2.64 1 4 C1.99 4 2.98 4 4 4 C4 4.99 4 5.98 4 7 C6.64 7.66 9.28 8.32 12 9 C12 9.33 12 9.66 12 10 C9.03 10 6.06 10 3 10 C2.34 8.68 1.68 7.36 1 6 C0.34 5.67 -0.32 5.34 -1 5 C-0.67 3.35 -0.34 1.7 0 0 Z " fill="#DE6B31" transform="translate(7,16)"/>
<path d="M0 0 C2.64 0.33 5.28 0.66 8 1 C8 2.32 8 3.64 8 5 C5.36 5 2.72 5 0 5 C0 3.35 0 1.7 0 0 Z " fill="#F78C60" transform="translate(13,18)"/>
<path d="M0 0 C2.375 -0.125 2.375 -0.125 5 0 C7 2 7 2 7.1875 4.5625 C7 7 7 7 6 8 C4.47480724 7.91062197 2.95318071 7.75462854 1.4375 7.5625 C0.19806641 7.40974609 0.19806641 7.40974609 -1.06640625 7.25390625 C-1.70449219 7.17011719 -2.34257812 7.08632813 -3 7 C-3 6.67 -3 6.34 -3 6 C-0.36 6 2.28 6 5 6 C5 4.68 5 3.36 5 2 C3.35 1.67 1.7 1.34 0 1 C0 0.67 0 0.34 0 0 Z " fill="#F27445" transform="translate(16,17)"/>
<path d="M0 0 C0.33 0 0.66 0 1 0 C1 4.95 1 9.9 1 15 C-0.90318884 12.14521674 -1.4619099 10.58058692 -2.125 7.3125 C-2.29257812 6.50425781 -2.46015625 5.69601563 -2.6328125 4.86328125 C-2.75398438 4.24839844 -2.87515625 3.63351563 -3 3 C-2.01 3 -1.02 3 0 3 C0 2.01 0 1.02 0 0 Z " fill="#DD4524" transform="translate(27,8)"/>
<path d="M0 0 C0.66 0.33 1.32 0.66 2 1 C-3.72347137 4.92466608 -10.25204604 4.88926525 -17 4 C-19.3984375 2.4765625 -19.3984375 2.4765625 -21 1 C-19.33388095 0.957279 -17.66617115 0.95936168 -16 1 C-15.67 1.33 -15.34 1.66 -15 2 C-9.57549176 2.43195158 -4.98322169 2.33588517 0 0 Z " fill="#C32A0E" transform="translate(32,36)"/>
<path d="M0 0 C1.45792884 -0.05399736 2.91642712 -0.09279177 4.375 -0.125 C5.18710937 -0.14820313 5.99921875 -0.17140625 6.8359375 -0.1953125 C9 0 9 0 11 2 C9.58461283 2.33872513 8.16762037 2.67074624 6.75 3 C5.96109375 3.185625 5.1721875 3.37125 4.359375 3.5625 C2 4 2 4 -2 4 C-1.34 2.68 -0.68 1.36 0 0 Z " fill="#75621F" transform="translate(24,5)"/>
<path d="M0 0 C1 3 1 3 0 6 C-1.77734375 7.203125 -1.77734375 7.203125 -3.9375 8.25 C-4.64777344 8.60578125 -5.35804687 8.9615625 -6.08984375 9.328125 C-6.72019531 9.54984375 -7.35054687 9.7715625 -8 10 C-8.66 9.67 -9.32 9.34 -10 9 C-6.7 6.03 -3.4 3.06 0 0 Z " fill="#B12F11" transform="translate(34,25)"/>
<path d="M0 0 C0.33 0.66 0.66 1.32 1 2 C-0.41633336 2.16947579 -1.83308533 2.33545507 -3.25 2.5 C-4.43335938 2.63921875 -4.43335938 2.63921875 -5.640625 2.78125 C-8 3 -8 3 -12 3 C-11.67 2.34 -11.34 1.68 -11 1 C-7.318488 -0.05186057 -3.80944893 -0.08859184 0 0 Z " fill="#CD4819" transform="translate(24,27)"/>
<path d="M0 0 C0.33 0 0.66 0 1 0 C1 2.64 1 5.28 1 8 C2.32 8.33 3.64 8.66 5 9 C1.25 11 1.25 11 -1 11 C-1.125 3.375 -1.125 3.375 0 0 Z " fill="#CF5E1D" transform="translate(4,13)"/>
<path d="M0 0 C3.375 0.25 3.375 0.25 7 1 C8.4375 3.0625 8.4375 3.0625 9 5 C7.68428397 4.7452486 6.37239624 4.47065859 5.0625 4.1875 C4.33160156 4.03667969 3.60070312 3.88585937 2.84765625 3.73046875 C2.23792969 3.48941406 1.62820312 3.24835937 1 3 C0.67 2.01 0.34 1.02 0 0 Z " fill="#598C1B" transform="translate(6,2)"/>
<path d="M0 0 C2.375 -0.1875 2.375 -0.1875 5 0 C5.66 0.99 6.32 1.98 7 3 C6.01 3.66 5.02 4.32 4 5 C3.01 4.67 2.02 4.34 1 4 C0.3125 1.9375 0.3125 1.9375 0 0 Z " fill="#BB2F22" transform="translate(28,7)"/>
<path d="M0 0 C0.33 0.66 0.66 1.32 1 2 C-0.49739583 3.20442708 -1.99479167 4.40885417 -3.4921875 5.61328125 C-5.25292107 7.12270545 -5.25292107 7.12270545 -7 10 C-7.33 9.01 -7.66 8.02 -8 7 C-5.77407001 3.61988409 -3.78717347 1.48781815 0 0 Z " fill="#E14D15" transform="translate(10,6)"/>
<path d="M0 0 C0.66 0.66 1.32 1.32 2 2 C0.35 4.64 -1.3 7.28 -3 10 C-3.66 9.67 -4.32 9.34 -5 9 C-3.99088542 7.2421875 -2.98177083 5.484375 -1.97265625 3.7265625 C-1.28280949 2.50201525 -0.62855462 1.25710923 0 0 Z " fill="#C83209" transform="translate(39,26)"/>
<path d="M0 0 C-0.33 1.65 -0.66 3.3 -1 5 C-2.9375 4.6875 -2.9375 4.6875 -5 4 C-5.33 3.01 -5.66 2.02 -6 1 C-3 0 -3 0 0 0 Z " fill="#874519" transform="translate(18,5)"/>
<path d="M0 0 C2.475 0.495 2.475 0.495 5 1 C5 1.99 5 2.98 5 4 C3.35 4 1.7 4 0 4 C0 2.68 0 1.36 0 0 Z " fill="#F7A67D" transform="translate(13,18)"/>
<path d="M0 0 C0.33 1.32 0.66 2.64 1 4 C1.99 4 2.98 4 4 4 C4 4.99 4 5.98 4 7 C1.525 6.01 1.525 6.01 -1 5 C-0.67 3.35 -0.34 1.7 0 0 Z " fill="#DE7C34" transform="translate(7,16)"/>
<path d="M0 0 C0.33 0.66 0.66 1.32 1 2 C-0.65 2 -2.3 2 -4 2 C-4 2.99 -4 3.98 -4 5 C-4.99 5 -5.98 5 -7 5 C-6.67 3.68 -6.34 2.36 -6 1 C-4.02 0.67 -2.04 0.34 0 0 Z " fill="#DA7656" transform="translate(26,8)"/>
</svg>
