<svg width="20" height="20" viewBox="0 0 20 20" fill="none" xmlns="http://www.w3.org/2000/svg">
<path d="M17.845 0H2.15496C0.966717 0 0 0.966717 0 2.15496V14.0794C0 15.2677 0.966717 16.2343 2.15496 16.2343H12.5521V19.414C12.5521 19.6301 12.671 19.8287 12.8615 19.9306C13.052 20.0326 13.2832 20.0214 13.463 19.9016L15.0208 18.8631L16.5786 19.9016C16.6766 19.967 16.79 20 16.9036 20C16.9984 20 17.0934 19.977 17.1801 19.9307C17.3706 19.8288 17.4895 19.6302 17.4895 19.4141V16.2344H17.845C19.0332 16.2344 20 15.2677 20 14.0795V2.15496C20 0.966717 19.0333 0 17.845 0ZM13.724 13.7656C13.724 13.0505 14.3058 12.4687 15.0208 12.4687C15.7359 12.4687 16.3177 13.0505 16.3177 13.7656C16.3177 14.4807 15.7359 15.0624 15.0208 15.0624C14.3058 15.0625 13.724 14.4807 13.724 13.7656ZM15.3459 17.6713C15.149 17.5402 14.8927 17.5401 14.6958 17.6713L13.724 18.3192V15.8651C14.1011 16.0989 14.5454 16.2343 15.0208 16.2343C15.4963 16.2343 15.9405 16.0989 16.3177 15.8651V18.3192L15.3459 17.6713ZM18.8281 14.0794C18.8281 14.6215 18.3871 15.0625 17.845 15.0625H17.4895V13.7656C17.4895 12.4043 16.3821 11.2969 15.0208 11.2969C13.6595 11.2969 12.5521 12.4044 12.5521 13.7656V15.0625H2.15496C1.61289 15.0625 1.17187 14.6215 1.17187 14.0794V2.15496C1.17187 1.61289 1.61289 1.17187 2.15496 1.17187H17.845C18.3871 1.17187 18.8281 1.61289 18.8281 2.15496V14.0794Z" fill="white"/>
<path d="M5.60679 4.30987H14.3932C14.7168 4.30987 14.9792 4.04753 14.9792 3.72394C14.9792 3.40035 14.7168 3.138 14.3932 3.138H5.60679C5.28319 3.138 5.02085 3.40035 5.02085 3.72394C5.02085 4.04753 5.28319 4.30987 5.60679 4.30987Z" fill="white"/>
<path d="M16.9036 5.64843H3.09636C2.77277 5.64843 2.51042 5.91077 2.51042 6.23436C2.51042 6.55796 2.77277 6.8203 3.09636 6.8203H16.9036C17.2272 6.8203 17.4896 6.55796 17.4896 6.23436C17.4896 5.91073 17.2272 5.64843 16.9036 5.64843Z" fill="white"/>
<path d="M16.9036 8.15885H3.09636C2.77277 8.15885 2.51042 8.4212 2.51042 8.74479C2.51042 9.06838 2.77277 9.33072 3.09636 9.33072H16.9036C17.2272 9.33072 17.4896 9.06838 17.4896 8.74479C17.4896 8.4212 17.2272 8.15885 16.9036 8.15885Z" fill="white"/>
<path d="M10.6276 11.9245H3.09636C2.77277 11.9245 2.51042 12.1868 2.51042 12.5104C2.51042 12.834 2.77277 13.0963 3.09636 13.0963H10.6276C10.9512 13.0963 11.2136 12.834 11.2136 12.5104C11.2136 12.1868 10.9512 11.9245 10.6276 11.9245Z" fill="white"/>
</svg>
