<svg width="18" height="20" viewBox="0 0 18 20" fill="none" xmlns="http://www.w3.org/2000/svg">
<path d="M15.043 20H2.26562C1.01562 19.9961 0.00390625 18.9844 0 17.7344V16.7344C0 14.2891 1.02734 11.957 2.83594 10.3125C3.58984 9.62891 4.71094 9.53516 5.56641 10.0859C6.46094 10.6602 7.52734 10.9648 8.65625 10.9648C9.78516 10.9648 10.8516 10.6602 11.7461 10.0859C12.6016 9.53516 13.7227 9.62891 14.4766 10.3125C16.2852 11.957 17.3164 14.2891 17.3125 16.7344V17.7344C17.3086 18.9883 16.293 20 15.043 20ZM4.34766 10.5078C3.98047 10.5078 3.62891 10.6445 3.35938 10.8906C1.71484 12.3867 0.777344 14.5117 0.777344 16.7344V17.7344C0.78125 18.5547 1.44141 19.2148 2.26172 19.2188H15.0391C15.8594 19.2188 16.5234 18.5547 16.5234 17.7344V16.7344C16.5234 14.5117 15.5859 12.3906 13.9414 10.8906C13.4492 10.4453 12.7188 10.3828 12.1602 10.7422C11.1406 11.3984 9.92578 11.7461 8.64844 11.7461C7.37109 11.7461 6.15625 11.3984 5.13672 10.7422C4.90625 10.5898 4.62891 10.5078 4.34766 10.5078Z" fill="white"/>
<path d="M8.65625 10.0781C5.875 10.0742 3.62109 7.82031 3.61719 5.03906C3.61719 2.26172 5.875 0 8.65625 0C11.4375 0.00390625 13.6914 2.25781 13.6953 5.03906C13.6914 7.81641 11.4336 10.0781 8.65625 10.0781ZM8.65625 0.785156C6.30469 0.785156 4.39844 2.69141 4.39844 5.04297C4.39844 7.39453 6.30469 9.30078 8.65625 9.30078C11.0078 9.30078 12.9141 7.39453 12.9141 5.04297C12.9102 2.69141 11.0078 0.785156 8.65625 0.785156Z" fill="white"/>
</svg>
