<svg width="17" height="20" viewBox="0 0 17 20" fill="none" xmlns="http://www.w3.org/2000/svg">
<path d="M12.6423 5.17463C12.6423 5.33706 12.5106 5.46875 12.3482 5.46875H6.1858C6.02337 5.46875 5.89169 5.33706 5.89169 5.17463C5.89169 5.0122 6.02337 4.88051 6.1858 4.88051H12.3482C12.5106 4.88051 12.6423 5.0122 12.6423 5.17463ZM12.3482 6.37882H6.1858C6.02337 6.37882 5.89169 6.51051 5.89169 6.67294C5.89169 6.83537 6.02337 6.96706 6.1858 6.96706H12.3482C12.5106 6.96706 12.6423 6.83537 12.6423 6.67294C12.6423 6.51051 12.5106 6.37882 12.3482 6.37882ZM4.71749 4.81875C4.59412 4.71302 4.40851 4.72729 4.30278 4.85063L3.00941 6.35957L2.38074 5.65941C2.2722 5.53855 2.08624 5.52855 1.96541 5.6371C1.84455 5.74561 1.83455 5.93157 1.94306 6.05243L2.79573 7.002C2.85157 7.06416 2.93114 7.09961 3.01459 7.09961H3.01796C3.10263 7.09863 3.18278 7.06122 3.23788 6.9969L4.74945 5.23345C4.85514 5.11016 4.84082 4.92447 4.71749 4.81875ZM12.3482 9.11722H6.1858C6.02337 9.11722 5.89169 9.2489 5.89169 9.41133C5.89169 9.57376 6.02337 9.70545 6.1858 9.70545H12.3482C12.5106 9.70545 12.6423 9.57376 12.6423 9.41133C12.6423 9.2489 12.5106 9.11722 12.3482 9.11722ZM12.3482 10.6155H6.1858C6.02337 10.6155 5.89169 10.7472 5.89169 10.9096C5.89169 11.0721 6.02337 11.2038 6.1858 11.2038H12.3482C12.5106 11.2038 12.6423 11.0721 12.6423 10.9096C12.6423 10.7472 12.5106 10.6155 12.3482 10.6155ZM4.71749 9.05545C4.59412 8.94973 4.40851 8.964 4.30278 9.08733L3.00941 10.5963L2.38071 9.89616C2.2722 9.77529 2.08624 9.7653 1.96537 9.87384C1.84451 9.98235 1.83451 10.1683 1.94306 10.2892L2.79573 11.2387C2.85153 11.3009 2.9311 11.3363 3.01455 11.3363H3.01792C3.10259 11.3353 3.18274 11.2979 3.23784 11.2336L4.74941 9.47016C4.85514 9.34686 4.84082 9.16118 4.71749 9.05545ZM12.3482 13.3539H6.1858C6.02337 13.3539 5.89169 13.4856 5.89169 13.648C5.89169 13.8105 6.02337 13.9422 6.1858 13.9422H12.3482C12.5106 13.9422 12.6423 13.8105 12.6423 13.648C12.6423 13.4856 12.5106 13.3539 12.3482 13.3539ZM12.3482 14.8522H6.1858C6.02337 14.8522 5.89169 14.9839 5.89169 15.1463C5.89169 15.3087 6.02337 15.4404 6.1858 15.4404H12.3482C12.5106 15.4404 12.6423 15.3087 12.6423 15.1463C12.6423 14.9839 12.5106 14.8522 12.3482 14.8522ZM4.71749 13.2922C4.59412 13.1864 4.40851 13.2007 4.30278 13.324L3.00941 14.833L2.38071 14.1329C2.2722 14.012 2.08624 14.002 1.96537 14.1105C1.84451 14.2191 1.83451 14.405 1.94306 14.5259L2.79573 15.4754C2.85153 15.5376 2.9311 15.573 3.01455 15.573H3.01792C3.10259 15.572 3.18274 15.5346 3.23784 15.4703L4.74941 13.7069C4.85514 13.5835 4.84082 13.3979 4.71749 13.2922ZM16.3075 2.09153V19.7059C16.3075 19.8683 16.1758 20 16.0133 20H2.09149C1.92906 20 1.79737 19.8683 1.79737 19.7059V18.2026H0.294118C0.131686 18.2026 0 18.0709 0 17.9085V3.65647C0 3.57847 0.0310195 3.50365 0.0861568 3.44851L3.44847 0.0861569C3.50361 0.0310196 3.57843 0 3.65643 0H14.216C14.3784 0 14.5101 0.131686 14.5101 0.294118V1.79741H16.0133C16.1758 1.79741 16.3075 1.9291 16.3075 2.09153ZM1.00416 3.36235H3.36231V1.0042L1.00416 3.36235ZM0.588235 17.6144H13.9218V0.588235H3.95055V3.65647C3.95055 3.8189 3.81886 3.95059 3.65643 3.95059H0.588235V17.6144ZM15.7192 2.38565H14.5101V17.9085C14.5101 18.0709 14.3784 18.2026 14.216 18.2026H2.38561V19.4118H15.7192V2.38565Z" fill="white"/>
</svg>
