<svg width="20" height="20" viewBox="0 0 20 20" fill="none" xmlns="http://www.w3.org/2000/svg">
<path d="M3.44828 1.37931C3.44828 1.01349 3.30296 0.662661 3.04429 0.403991C2.78562 0.14532 2.43478 0 2.06897 0C1.70315 0 1.35232 0.14532 1.09365 0.403991C0.834977 0.662661 0.689657 1.01349 0.689657 1.37931V2.75862H3.44828V1.37931Z" fill="white"/>
<path d="M14.8276 3.7931C15.2085 3.7931 15.5172 3.48433 15.5172 3.10345C15.5172 2.72256 15.2085 2.41379 14.8276 2.41379C14.4467 2.41379 14.1379 2.72256 14.1379 3.10345C14.1379 3.48433 14.4467 3.7931 14.8276 3.7931Z" fill="white"/>
<path d="M3.79311 10C4.74532 10 5.51724 9.22808 5.51724 8.27586C5.51724 7.32365 4.74532 6.55172 3.79311 6.55172C2.84089 6.55172 2.06897 7.32365 2.06897 8.27586C2.06897 9.22808 2.84089 10 3.79311 10Z" fill="white"/>
<path d="M7.58621 17.2414V18.6207C7.58608 19.1303 7.39686 19.6218 7.05517 20H17.931C18.2969 20 18.6477 19.8547 18.9064 19.596C19.165 19.3373 19.3103 18.9865 19.3103 18.6207V17.2414H7.58621Z" fill="white"/>
<path d="M5.86207 12.2486C5.22388 12.5836 4.51388 12.7586 3.79311 12.7586C3.07233 12.7586 2.36233 12.5836 1.72414 12.2486V15.6943L3.79311 13.6254L5.86207 15.6943V12.2486Z" fill="white"/>
<path d="M7.58621 8.27586C7.58621 7.52566 7.36375 6.7923 6.94696 6.16853C6.53016 5.54475 5.93776 5.05858 5.24466 4.77149C4.55156 4.4844 3.7889 4.40928 3.05311 4.55564C2.31732 4.702 1.64145 5.06326 1.11098 5.59373C0.580501 6.12421 0.219243 6.80007 0.0728851 7.53586C-0.0734726 8.27165 0.00164351 9.03432 0.288735 9.72742C0.575826 10.4205 1.062 11.0129 1.68577 11.4297C2.30954 11.8465 3.0429 12.069 3.79311 12.069C4.79875 12.0678 5.76288 11.6678 6.47397 10.9567C7.18507 10.2456 7.58507 9.28151 7.58621 8.27586ZM1.37931 8.27586C1.37931 7.79846 1.52088 7.33178 1.78611 6.93483C2.05134 6.53788 2.42832 6.2285 2.86939 6.04581C3.31045 5.86311 3.79578 5.81531 4.26401 5.90845C4.73224 6.00159 5.16234 6.23148 5.49991 6.56905C5.83749 6.90663 6.06738 7.33672 6.16052 7.80495C6.25366 8.27318 6.20585 8.75852 6.02316 9.19958C5.84047 9.64064 5.53108 10.0176 5.13414 10.2829C4.73719 10.5481 4.27051 10.6897 3.79311 10.6897C3.15317 10.6889 2.53966 10.4343 2.08715 9.98182C1.63465 9.52931 1.38009 8.9158 1.37931 8.27586Z" fill="white"/>
<path d="M17.931 1.72414C17.9305 1.26703 17.7487 0.828805 17.4255 0.505583C17.1022 0.182361 16.664 0.000538431 16.2069 0H3.6069C3.94858 0.378164 4.1378 0.86965 4.13793 1.37931V3.81059C5.03863 3.87831 5.89772 4.21711 6.60219 4.78241C7.30666 5.3477 7.82351 6.11301 8.08473 6.97765C8.34595 7.84229 8.33931 8.76575 8.06568 9.62654C7.79205 10.4873 7.26425 11.2451 6.55173 11.8002V17.3592L4.13793 14.9454V18.6207C4.13793 18.9865 4.28325 19.3373 4.54192 19.596C4.80059 19.8547 5.15143 20 5.51724 20C5.88306 20 6.23389 19.8547 6.49256 19.596C6.75123 19.3373 6.89655 18.9865 6.89655 18.6207V16.5517H17.931V1.72414ZM9.31035 7.93103V7.24138H14.1379V7.93103H9.31035ZM14.1379 9.31034V10H9.31035V9.31034H14.1379ZM11.7241 5.86207H9.31035V5.17241H11.7241V5.86207ZM5.86207 2.75862V2.06897H10.6897V2.75862H5.86207ZM9.31035 11.3793H14.1379V12.069H9.31035V11.3793ZM15.8621 15.1724H11.0345V14.4828H15.8621V15.1724ZM14.8276 4.48276C14.5548 4.48276 14.2881 4.40186 14.0613 4.2503C13.8345 4.09874 13.6577 3.88332 13.5533 3.63129C13.4489 3.37925 13.4216 3.10192 13.4748 2.83436C13.528 2.5668 13.6594 2.32103 13.8523 2.12813C14.0452 1.93523 14.2909 1.80386 14.5585 1.75064C14.8261 1.69742 15.1034 1.72473 15.3554 1.82913C15.6075 1.93353 15.8229 2.11032 15.9744 2.33714C16.126 2.56397 16.2069 2.83065 16.2069 3.10345C16.2065 3.46915 16.0611 3.81978 15.8025 4.07837C15.5439 4.33697 15.1933 4.4824 14.8276 4.48276Z" fill="white"/>
</svg>
