<svg width="12" height="12" viewBox="0 0 12 12" fill="none" xmlns="http://www.w3.org/2000/svg">
<path d="M9.76828 0H2.23172C0.999774 0.00142969 0.00142969 0.999774 0 2.23172V9.76828C0.00142969 11.0002 0.999774 11.9986 2.23172 12H9.76828C11.0002 11.9986 11.9986 11.0002 12 9.76828V2.23172C11.9986 0.999774 11.0002 0.00142969 9.76828 0ZM11.1716 2.23172V2.95526H9.07303L7.50352 0.828398H9.7683C10.543 0.829266 11.1707 1.45704 11.1716 2.23172ZM6.47395 0.828398L8.04347 2.95526H5.52605L3.95653 0.828398H6.47395ZM0.828398 2.23172C0.829266 1.45706 1.45704 0.829289 2.23172 0.828398H2.92699L4.49651 2.95526H0.828398V2.23172ZM9.76828 11.1716H2.23172C1.45706 11.1707 0.829289 10.543 0.828398 9.76828V3.78368H11.1716V9.76828C11.1707 10.5429 10.5429 11.1707 9.76828 11.1716Z" fill="white"/>
<path d="M8.2099 7.11891L4.93298 5.22698C4.73487 5.11261 4.48155 5.18048 4.36718 5.3786C4.33083 5.44158 4.31168 5.51299 4.31168 5.58572V9.36959C4.31168 9.59834 4.49712 9.7838 4.72587 9.7838C4.79857 9.7838 4.87001 9.76467 4.93298 9.7283L8.2099 7.83635C8.40802 7.72198 8.47589 7.46866 8.36152 7.27055C8.32514 7.20755 8.27285 7.15526 8.2099 7.11891ZM5.14008 8.65216V6.30312L7.17441 7.47762L5.14008 8.65216Z" fill="white"/>
</svg>
