<?xml version="1.0" encoding="UTF-8"?>
<svg version="1.1" xmlns="http://www.w3.org/2000/svg" width="42" height="42">
<path d="M0 0 C0.94875 0.04125 1.8975 0.0825 2.875 0.125 C6.875 6.625 6.875 6.625 6.875 11.125 C7.535 11.455 8.195 11.785 8.875 12.125 C7.885 12.455 6.895 12.785 5.875 13.125 C5.88660156 13.86105469 5.89820313 14.59710938 5.91015625 15.35546875 C5.91917969 16.33128906 5.92820312 17.30710937 5.9375 18.3125 C5.94910156 19.27542969 5.96070313 20.23835938 5.97265625 21.23046875 C5.87986622 23.98076513 5.49611685 26.44979591 4.875 29.125 C6.0196875 29.558125 6.0196875 29.558125 7.1875 30 C9.875 31.125 9.875 31.125 12.875 33.125 C12.215 35.105 11.555 37.085 10.875 39.125 C9.555 38.795 8.235 38.465 6.875 38.125 C6.875 37.465 6.875 36.805 6.875 36.125 C4.91352126 34.73561923 2.91333424 33.3989589 0.875 32.125 C0.545 34.765 0.215 37.405 -0.125 40.125 C-2.765 40.125 -5.405 40.125 -8.125 40.125 C-8.125 39.135 -8.125 38.145 -8.125 37.125 C-7.135 36.465 -6.145 35.805 -5.125 35.125 C-5.393125 33.97 -5.66125 32.815 -5.9375 31.625 C-6.84603002 24.17744469 -3.57561409 17.03590132 -1.125 10.125 C-1.785 10.125 -2.445 10.125 -3.125 10.125 C-3.51422918 8.83754964 -3.88598036 7.54480403 -4.25 6.25 C-4.45882813 5.53070312 -4.66765625 4.81140625 -4.8828125 4.0703125 C-4.96273438 3.42835937 -5.04265625 2.78640625 -5.125 2.125 C-3.125 0.125 -3.125 0.125 0 0 Z " fill="#C35BA0" transform="translate(19.125,1.875)"/>
<path d="M0 0 C1.30841635 0.56698042 2.59956434 1.17478217 3.875 1.8125 C3.875 1.1525 3.875 0.4925 3.875 -0.1875 C4.535 -0.1875 5.195 -0.1875 5.875 -0.1875 C5.545 2.1225 5.215 4.4325 4.875 6.8125 C5.638125 7.10125 6.40125 7.39 7.1875 7.6875 C9.875 8.8125 9.875 8.8125 12.875 10.8125 C12.215 12.7925 11.555 14.7725 10.875 16.8125 C9.555 16.4825 8.235 16.1525 6.875 15.8125 C6.875 15.1525 6.875 14.4925 6.875 13.8125 C4.91352126 12.42311923 2.91333424 11.0864589 0.875 9.8125 C0.545 12.4525 0.215 15.0925 -0.125 17.8125 C-2.765 17.8125 -5.405 17.8125 -8.125 17.8125 C-8.125 16.8225 -8.125 15.8325 -8.125 14.8125 C-7.135 14.1525 -6.145 13.4925 -5.125 12.8125 C-5.24359375 12.20921875 -5.3621875 11.6059375 -5.484375 10.984375 C-6.53760745 4.45433381 -6.53760745 4.45433381 -4.4375 1.1875 C-2.125 -0.1875 -2.125 -0.1875 0 0 Z " fill="#363C74" transform="translate(19.125,24.1875)"/>
<path d="M0 0 C0.66 0 1.32 0 2 0 C1.67 2.31 1.34 4.62 1 7 C1.763125 7.28875 2.52625 7.5775 3.3125 7.875 C6 9 6 9 9 11 C8.34 12.98 7.68 14.96 7 17 C5.68 16.67 4.36 16.34 3 16 C3 15.34 3 14.68 3 14 C1.02705044 12.38658567 -1.05469651 10.98168195 -3.15234375 9.53515625 C-5 8 -5 8 -6 5 C-5.01 4.01 -4.02 3.02 -3 2 C-3 2.66 -3 3.32 -3 4 C-2.01 4 -1.02 4 0 4 C0 2.68 0 1.36 0 0 Z " fill="#15153D" transform="translate(23,24)"/>
<path d="M0 0 C0.94875 0.04125 1.8975 0.0825 2.875 0.125 C7.44642857 7.41071429 7.44642857 7.41071429 6.875 12.125 C5.885 11.795 4.895 11.465 3.875 11.125 C3.875 10.465 3.875 9.805 3.875 9.125 C1.565 9.455 -0.745 9.785 -3.125 10.125 C-3.51422918 8.83754964 -3.88598036 7.54480403 -4.25 6.25 C-4.56324219 5.17105469 -4.56324219 5.17105469 -4.8828125 4.0703125 C-4.96273438 3.42835937 -5.04265625 2.78640625 -5.125 2.125 C-3.125 0.125 -3.125 0.125 0 0 Z " fill="#E7AD25" transform="translate(19.125,1.875)"/>
<path d="M0 0 C1.65 0 3.3 0 5 0 C4.67 0.66 4.34 1.32 4 2 C3.34 2 2.68 2 2 2 C2 4.97 2 7.94 2 11 C1.34 11 0.68 11 0 11 C0 11.66 0 12.32 0 13 C-0.99 12.67 -1.98 12.34 -3 12 C-2.67 8.7 -2.34 5.4 -2 2 C-1.34 2 -0.68 2 0 2 C0 1.34 0 0.68 0 0 Z " fill="#B25877" transform="translate(23,13)"/>
<path d="M0 0 C0.94875 0.04125 1.8975 0.0825 2.875 0.125 C3.535 1.775 4.195 3.425 4.875 5.125 C1.905 4.63 1.905 4.63 -1.125 4.125 C-1.455 5.445 -1.785 6.765 -2.125 8.125 C-2.785 7.795 -3.445 7.465 -4.125 7.125 C-4.875 4.6875 -4.875 4.6875 -5.125 2.125 C-3.125 0.125 -3.125 0.125 0 0 Z " fill="#E6B428" transform="translate(19.125,1.875)"/>
<path d="M0 0 C0.66 0 1.32 0 2 0 C1.67 3.3 1.34 6.6 1 10 C-1.9375 9.1875 -1.9375 9.1875 -5 8 C-5.33 7.01 -5.66 6.02 -6 5 C-5.01 4.01 -4.02 3.02 -3 2 C-3 2.66 -3 3.32 -3 4 C-2.01 4 -1.02 4 0 4 C0 2.68 0 1.36 0 0 Z " fill="#221D54" transform="translate(23,24)"/>
<path d="M0 0 C1.9375 0.6875 1.9375 0.6875 3.9375 1.6875 C3.9375 2.3475 3.9375 3.0075 3.9375 3.6875 C2.6175 3.3575 1.2975 3.0275 -0.0625 2.6875 C-0.3925 3.3475 -0.7225 4.0075 -1.0625 4.6875 C-1.7225 4.6875 -2.3825 4.6875 -3.0625 4.6875 C-3.0625 6.3375 -3.0625 7.9875 -3.0625 9.6875 C-4.625 7.9375 -4.625 7.9375 -6.0625 5.6875 C-5.9375 3.5625 -5.9375 3.5625 -5.0625 1.6875 C-2.0625 -0.3125 -2.0625 -0.3125 0 0 Z " fill="#51577A" transform="translate(19.0625,24.3125)"/>
<path d="M0 0 C0.66 0 1.32 0 2 0 C2 3.63 2 7.26 2 11 C1.01 10.67 0.02 10.34 -1 10 C-0.67 6.7 -0.34 3.4 0 0 Z " fill="#DDA042" transform="translate(21,15)"/>
<path d="M0 0 C0.33 1.65 0.66 3.3 1 5 C0.67 4.34 0.34 3.68 0 3 C-2.31 3.33 -4.62 3.66 -7 4 C-7.33 3.01 -7.66 2.02 -8 1 C-5.23735711 0.40267181 -2.83967231 0 0 0 Z " fill="#BB7D13" transform="translate(23,8)"/>
<path d="M0 0 C2.64 0 5.28 0 8 0 C8 0.99 8 1.98 8 3 C5.36 3 2.72 3 0 3 C0 2.01 0 1.02 0 0 Z " fill="#525464" transform="translate(11,39)"/>
<path d="M0 0 C3.125 -0.1875 3.125 -0.1875 6 0 C6.33 0.99 6.66 1.98 7 3 C4.03 3 1.06 3 -2 3 C-1.34 2.01 -0.68 1.02 0 0 Z " fill="#FCDA68" transform="translate(16,2)"/>
<path d="M0 0 C1.98 0.99 3.96 1.98 6 3 C6 3.99 6 4.98 6 6 C4.35 5.67 2.7 5.34 1 5 C0.67 3.35 0.34 1.7 0 0 Z " fill="#3E4B87" transform="translate(23,30)"/>
<path d="M0 0 C0.33 0.66 0.66 1.32 1 2 C0.0625 4.125 0.0625 4.125 -1 6 C-2.32 5.67 -3.64 5.34 -5 5 C-5 4.34 -5 3.68 -5 3 C-2.5 1.375 -2.5 1.375 0 0 Z " fill="#7B7A81" transform="translate(31,35)"/>
</svg>
