<svg width="60" height="27" viewBox="0 0 60 27" fill="none" xmlns="http://www.w3.org/2000/svg">
<path d="M33.2117 4.52583H41.0269L41.6291 1.05341H33.6706C29.4263 1.05341 26.7886 2.8796 26.2346 6.01783C25.6533 9.31028 27.5171 10.699 31.0304 11.3424L34.2441 11.9338C35.9388 12.2428 36.9797 12.7572 36.7573 14.0175C36.5529 15.1748 35.6568 15.5867 33.8821 15.5867H25.028L23.1355 4.65431C22.6001 1.56808 20.7557 0.796207 18.5436 0.796207C16.3315 0.796207 14.292 1.56808 12.6665 4.65431L11.2631 7.31396L12.0564 13.8284L16.1583 5.70913C16.5566 4.91177 17.2071 4.57732 17.876 4.57732C18.5449 4.57732 19.0772 4.91177 19.1938 5.70913L21.255 19.0591H24.8647H25.629H33.4232C37.6673 19.0591 40.314 17.1815 40.8863 13.9403C41.4857 10.5453 39.7974 9.18155 36.2116 8.51291L32.8995 7.89552C31.205 7.58682 30.155 7.12389 30.3638 5.94084C30.5455 4.91177 31.4368 4.52583 33.2117 4.52583Z" fill="white"/>
<path d="M10.3519 9.04572L11.15 15.5996H18.0413L1.29133 26.2039L4.75214 19.65L0 15.5996H6.89107L10.3519 9.04572Z" fill="#FF3A2F"/>
<path d="M43.4953 1.0536L42.8822 4.52602H49.2942L46.7279 19.0591H50.7405L53.307 4.52602H59.3866L60 1.0536H43.4953Z" fill="white"/>
</svg>
