<?xml version="1.0" encoding="UTF-8"?>
<svg version="1.1" xmlns="http://www.w3.org/2000/svg" width="42" height="42">
<path d="M0 0 C0.66 1.32 1.32 2.64 2 4 C9.92 4 17.84 4 26 4 C26.33 2.68 26.66 1.36 27 0 C28.65614657 -0.38218767 30.32457024 -0.71395102 32 -1 C33 0 33 0 33.3125 3.0625 C32.9356183 7.81120946 31.36181931 10.94062306 29 15 C26.69 14.67 24.38 14.34 22 14 C21.79503906 14.62648438 21.59007813 15.25296875 21.37890625 15.8984375 C21.10949219 16.71570313 20.84007813 17.53296875 20.5625 18.375 C20.29566406 19.18710937 20.02882813 19.99921875 19.75390625 20.8359375 C19 23 19 23 18 25 C19.134375 24.979375 20.26875 24.95875 21.4375 24.9375 C25 25 25 25 26 26 C26.13887603 29.05527261 26.06923728 31.70227969 25.375 34.6875 C24.68722576 37.26830141 24.68722576 37.26830141 27 40 C26 41 26 41 23.0625 41.125 C20 41 20 41 18 40 C18.33 37.69 18.66 35.38 19 33 C18.38511719 33.08378906 17.77023438 33.16757812 17.13671875 33.25390625 C15.92435547 33.40666016 15.92435547 33.40666016 14.6875 33.5625 C13.48673828 33.71912109 13.48673828 33.71912109 12.26171875 33.87890625 C10 34 10 34 7 33 C7.66 35.31 8.32 37.62 9 40 C4.545 40.495 4.545 40.495 0 41 C0.33 39.68 0.66 38.36 1 37 C1.66 37 2.32 37 3 37 C2.67 35.35 2.34 33.7 2 32 C1.34 32 0.68 32 0 32 C-0.04254356 30.00045254 -0.04080783 27.99958364 0 26 C1 25 1 25 4.5625 24.9375 C5.696875 24.958125 6.83125 24.97875 8 25 C7.54658132 23.72740489 7.08704773 22.45698757 6.625 21.1875 C6.36976562 20.47980469 6.11453125 19.77210937 5.8515625 19.04296875 C4.9734231 16.75226641 4.9734231 16.75226641 3 14 C2.67 14.33 2.34 14.66 2 15 C0.33382885 15.04063832 -1.33388095 15.042721 -3 15 C-3.67756882 13.44219668 -4.34159457 11.87849904 -5 10.3125 C-5.37125 9.44238281 -5.7425 8.57226562 -6.125 7.67578125 C-7.01870488 4.9427998 -7.16449676 2.85299066 -7 0 C-4.25509788 -1.37245106 -2.87939419 -0.93580311 0 0 Z M7 6 C7 7.98 7 9.96 7 12 C7.66 12.66 8.32 13.32 9 14 C9.66 12.02 10.32 10.04 11 8 C13.3125 7.75 13.3125 7.75 16 8 C17.8125 10 17.8125 10 19 12 C19.33 10.02 19.66 8.04 20 6 C15.71 6 11.42 6 7 6 Z " fill="#967743" transform="translate(8,1)"/>
<path d="M0 0 C3.63 0 7.26 0 11 0 C10.67 1.32 10.34 2.64 10 4 C11.134375 3.979375 12.26875 3.95875 13.4375 3.9375 C17 4 17 4 18 5 C18.13887603 8.05527261 18.06923728 10.70227969 17.375 13.6875 C16.68722576 16.26830141 16.68722576 16.26830141 19 19 C18 20 18 20 15.0625 20.125 C12 20 12 20 10 19 C10.33 16.69 10.66 14.38 11 12 C10.38511719 12.08378906 9.77023438 12.16757812 9.13671875 12.25390625 C8.32847656 12.35574219 7.52023438 12.45757812 6.6875 12.5625 C5.88699219 12.66691406 5.08648437 12.77132812 4.26171875 12.87890625 C2 13 2 13 -1 12 C-0.34 14.31 0.32 16.62 1 19 C-1.97 19.33 -4.94 19.66 -8 20 C-7.67 18.68 -7.34 17.36 -7 16 C-6.34 16 -5.68 16 -5 16 C-5.33 14.35 -5.66 12.7 -6 11 C-6.66 11 -7.32 11 -8 11 C-8.04254356 9.00045254 -8.04080783 6.99958364 -8 5 C-7 4 -7 4 -3.4375 3.9375 C-2.303125 3.958125 -1.16875 3.97875 0 4 C0 2.68 0 1.36 0 0 Z " fill="#841918" transform="translate(16,22)"/>
<path d="M0 0 C1.2375 0.1546875 1.2375 0.1546875 2.5 0.3125 C4.5 3.3125 4.5 3.3125 4.1875 6.25 C3.11403509 11.03179825 3.11403509 11.03179825 2.5 13.3125 C5.06995074 12.02752463 5.40434463 10.81337627 6.625 8.25 C6.97820313 7.51652344 7.33140625 6.78304688 7.6953125 6.02734375 C7.96085937 5.46144531 8.22640625 4.89554688 8.5 4.3125 C9.16 4.6425 9.82 4.9725 10.5 5.3125 C9.17245315 8.61468941 7.77568143 11.55882155 5.5 14.3125 C2.46109971 15.37967234 -0.30058665 15.48675999 -3.5 15.3125 C-4.80089831 12.71070337 -4.66840078 10.7155812 -4.6875 7.8125 C-4.70167969 6.8328125 -4.71585938 5.853125 -4.73046875 4.84375 C-4.41012079 1.32535208 -3.49778596 0.43722324 0 0 Z " fill="#BB5D22" transform="translate(21.5,7.6875)"/>
<path d="M0 0 C3.0625 -0.25 3.0625 -0.25 6 0 C7 1 7 1 7.125 3.75 C7 7 7 7 6.375 9.6875 C5.68722576 12.26830141 5.68722576 12.26830141 8 15 C7 16 7 16 4.0625 16.125 C1 16 1 16 -1 15 C-0.979375 13.948125 -0.95875 12.89625 -0.9375 11.8125 C-0.86686357 8.14974064 -0.86686357 8.14974064 -1.625 5.25 C-2 3 -2 3 0 0 Z " fill="#CD921D" transform="translate(27,26)"/>
<path d="M0 0 C3.0625 0.1875 3.0625 0.1875 5.0625 2.1875 C5.30029528 5.2788386 5.05215019 7.21854944 4.0625 10.1875 C4.45647335 12.82554589 4.45647335 12.82554589 5.0625 15.1875 C0.6075 15.6825 0.6075 15.6825 -3.9375 16.1875 C-3.6075 14.8675 -3.2775 13.5475 -2.9375 12.1875 C-2.2775 12.1875 -1.6175 12.1875 -0.9375 12.1875 C-1.2675 10.5375 -1.5975 8.8875 -1.9375 7.1875 C-2.5975 7.1875 -3.2575 7.1875 -3.9375 7.1875 C-3.98004356 5.18795254 -3.97830783 3.18708364 -3.9375 1.1875 C-2.9375 0.1875 -2.9375 0.1875 0 0 Z " fill="#C68C1F" transform="translate(11.9375,25.8125)"/>
<path d="M0 0 C0.53532823 1.55759343 1.05265378 3.12138045 1.5625 4.6875 C1.85253906 5.55761719 2.14257812 6.42773438 2.44140625 7.32421875 C3.05141961 10.24631074 2.77703633 12.14400553 2 15 C0.35 15 -1.3 15 -3 15 C-3.67756882 13.44219668 -4.34159457 11.87849904 -5 10.3125 C-5.37125 9.44238281 -5.7425 8.57226562 -6.125 7.67578125 C-7.01870488 4.9427998 -7.16449676 2.85299066 -7 0 C-4.3333581 -1.33332095 -2.83319697 -0.67102033 0 0 Z " fill="#4B4B4D" transform="translate(8,1)"/>
<path d="M0 0 C2.625 0.375 2.625 0.375 5 1 C5.50610724 7.07328688 4.04157942 10.77228537 1 16 C-1.97 15.505 -1.97 15.505 -5 15 C-4.55065113 12.87308203 -4.09023527 10.74849961 -3.625 8.625 C-3.36976562 7.44164062 -3.11453125 6.25828125 -2.8515625 5.0390625 C-2 2 -2 2 0 0 Z " fill="#4E5358" transform="translate(36,0)"/>
<path d="M0 0 C1.32 0 2.64 0 4 0 C3.67 2.31 3.34 4.62 3 7 C2.34 7 1.68 7 1 7 C0.71125 7.7425 0.4225 8.485 0.125 9.25 C-0.82302644 11.56739797 -1.84845911 13.77917115 -3 16 C-3.66 16 -4.32 16 -5 16 C-4.39363767 10.23955788 -2.24341721 5.27985631 0 0 Z " fill="#D2A952" transform="translate(29,5)"/>
<path d="M0 0 C1.65 0 3.3 0 5 0 C4.49287967 3.71888239 3.88391785 6.73454239 2 10 C0.68 9.67 -0.64 9.34 -2 9 C-1.125 2.25 -1.125 2.25 0 0 Z " fill="#131313" transform="translate(36,5)"/>
<path d="M0 0 C1.2065625 0.0309375 1.2065625 0.0309375 2.4375 0.0625 C2.48004356 2.06204746 2.47830783 4.06291636 2.4375 6.0625 C1.4375 7.0625 1.4375 7.0625 -1.125 7.125 C-2.3315625 7.0940625 -2.3315625 7.0940625 -3.5625 7.0625 C-3.60504356 5.06295254 -3.60330783 3.06208364 -3.5625 1.0625 C-2.5625 0.0625 -2.5625 0.0625 0 0 Z " fill="#2E577C" transform="translate(11.5625,25.9375)"/>
<path d="M0 0 C1.67542976 0.28604898 3.34385343 0.61781233 5 1 C5 2.98 5 4.96 5 7 C3.33388095 7.042721 1.66617115 7.04063832 0 7 C-1 6 -1 6 -1.125 3.5 C-1 1 -1 1 0 0 Z " fill="#325B7E" transform="translate(29,26)"/>
<path d="M0 0 C3.69230769 0.69230769 3.69230769 0.69230769 5 2 C5.04080783 3.99958364 5.04254356 6.00045254 5 8 C3.35 7.67 1.7 7.34 0 7 C-0.38133299 5.0085944 -0.71325582 3.00720923 -1 1 C-0.67 0.67 -0.34 0.34 0 0 Z " fill="#0F0E0E" transform="translate(3,5)"/>
<path d="M0 0 C6.75 1.625 6.75 1.625 9 5 C8 6 8 6 5.0625 6.125 C2 6 2 6 0 5 C0 3.35 0 1.7 0 0 Z " fill="#2E4553" transform="translate(26,36)"/>
<path d="M0 0 C2 3 2 3 2 5 C-2.455 5.495 -2.455 5.495 -7 6 C-6.67 4.68 -6.34 3.36 -6 2 C-2.9375 0.75 -2.9375 0.75 0 0 Z " fill="#2C4453" transform="translate(15,36)"/>
<path d="M0 0 C0.78375 0.04125 1.5675 0.0825 2.375 0.125 C2.705 1.115 3.035 2.105 3.375 3.125 C2.715 3.785 2.055 4.445 1.375 5.125 C1.705 6.115 2.035 7.105 2.375 8.125 C1.385 8.62 1.385 8.62 0.375 9.125 C0.375 8.465 0.375 7.805 0.375 7.125 C-0.615 6.795 -1.605 6.465 -2.625 6.125 C-2.625 5.465 -2.625 4.805 -2.625 4.125 C-3.285 3.465 -3.945 2.805 -4.625 2.125 C-2.625 0.125 -2.625 0.125 0 0 Z " fill="#F2BD31" transform="translate(21.625,7.875)"/>
<path d="M0 0 C0.99 0.33 1.98 0.66 3 1 C1.80100302 4.0831351 0.52299523 7.06279492 -1 10 C-1.66 10 -2.32 10 -3 10 C-2.49287967 6.28111761 -1.88391785 3.26545761 0 0 Z " fill="#F6BF2B" transform="translate(27,11)"/>
<path d="M0 0 C0.28875 0.598125 0.5775 1.19625 0.875 1.8125 C2.04742026 4.19327792 2.04742026 4.19327792 4 7 C4 8.32 4 9.64 4 11 C3.34 11 2.68 11 2 11 C1.32845067 9.71086513 0.66291141 8.41859796 0 7.125 C-0.37125 6.40570312 -0.7425 5.68640625 -1.125 4.9453125 C-2 3 -2 3 -2 1 C-1.34 0.67 -0.68 0.34 0 0 Z " fill="#F4C754" transform="translate(14,9)"/>
<path d="M0 0 C1.52519276 0.08937803 3.04681929 0.24537146 4.5625 0.4375 C5.80193359 0.59025391 5.80193359 0.59025391 7.06640625 0.74609375 C7.70449219 0.82988281 8.34257812 0.91367187 9 1 C7 3 7 3 4 3.25 C1 3 1 3 -1 1 C-0.67 0.67 -0.34 0.34 0 0 Z " fill="#680E0E" transform="translate(17,32)"/>
<path d="M0 0 C1 3 1 3 1 7 C1.66 7.66 2.32 8.32 3 9 C0.03 8.505 0.03 8.505 -3 8 C-2.67 6.02 -2.34 4.04 -2 2 C-1.34 2 -0.68 2 0 2 C0 1.34 0 0.68 0 0 Z " fill="#4D4B4B" transform="translate(34,7)"/>
<path d="M0 0 C0 0.66 0 1.32 0 2 C-2.31 2.33 -4.62 2.66 -7 3 C-7 2.01 -7 1.02 -7 0 C-4.3333581 -1.33332095 -2.83319697 -0.67102033 0 0 Z " fill="#727272" transform="translate(8,1)"/>
<path d="M0 0 C1.65 0 3.3 0 5 0 C4.67 1.32 4.34 2.64 4 4 C2.35 3.67 0.7 3.34 -1 3 C-0.67 2.01 -0.34 1.02 0 0 Z " fill="#D2AA52" transform="translate(28,33)"/>
<path d="M0 0 C0.99 0.33 1.98 0.66 3 1 C3 1.66 3 2.32 3 3 C3.66 3.33 4.32 3.66 5 4 C5 4.66 5 5.32 5 6 C3.68 6.33 2.36 6.66 1 7 C0.67 4.69 0.34 2.38 0 0 Z " fill="#CF9621" transform="translate(17,11)"/>
<path d="M0 0 C1.32 0 2.64 0 4 0 C4.33 1.32 4.66 2.64 5 4 C3.68 4 2.36 4 1 4 C1 3.34 1 2.68 1 2 C0.34 1.67 -0.32 1.34 -1 1 C-0.67 0.67 -0.34 0.34 0 0 Z " fill="#D9A52C" transform="translate(10,5)"/>
<path d="M0 0 C1.65 0.33 3.3 0.66 5 1 C4.67 1.99 4.34 2.98 4 4 C1.03 3.505 1.03 3.505 -2 3 C-1.34 2.01 -0.68 1.02 0 0 Z " fill="#757575" transform="translate(36,0)"/>
<path d="M0 0 C1.65 0 3.3 0 5 0 C5 1.32 5 2.64 5 4 C3.68 4 2.36 4 1 4 C0.67 2.68 0.34 1.36 0 0 Z " fill="#D1A747" transform="translate(10,33)"/>
<path d="M0 0 C2 2 2 2 2 5 C0.35 5 -1.3 5 -3 5 C-3.33 4.01 -3.66 3.02 -4 2 C-2.68 2 -1.36 2 0 2 C0 1.34 0 0.68 0 0 Z " fill="#2E2D2D" transform="translate(8,11)"/>
<path d="M0 0 C0.99 0 1.98 0 3 0 C2.25 5.75 2.25 5.75 0 8 C0 5.33333333 0 2.66666667 0 0 Z " fill="#CC8C1C" transform="translate(23,11)"/>
<path d="M0 0 C1.65 0 3.3 0 5 0 C5.33 0.99 5.66 1.98 6 3 C3.69 2.67 1.38 2.34 -1 2 C-0.67 1.34 -0.34 0.68 0 0 Z " fill="#FED144" transform="translate(19,8)"/>
</svg>
